M48
; DRILL file {KiCad (5.1.9)-1} date 02/08/26 22:58:39
; FORMAT={-:-/ absolute / metric / decimal}
; #@! TF.CreationDate,2026-02-08T22:58:39+09:00
; #@! TF.GenerationSoftware,Kicad,Pcbnew,(5.1.9)-1
FMAT,2
METRIC
T1C0.300
T2C0.750
T3C0.800
T4C1.000
T5C1.100
T6C1.500
T7C3.200
%
G90
G05
T1
X17.702Y91.264
X18.922Y90.42
X21.557Y83.291
X22.457Y83.594
X24.79Y83.192
X26.4Y65.121
X26.808Y24.772
X27.833Y148.481
X29.443Y93.032
X29.847Y152.84
X30.402Y160.149
X33.397Y104.252
X33.403Y108.791
X33.565Y109.564
X34.595Y110.743
X34.86Y97.55
X36.011Y101.807
X38.483Y90.904
X39.145Y32.53
X39.328Y101.912
X39.764Y68.254
X41.041Y90.061
X41.806Y103.065
X43.395Y93.178
X44.672Y32.451
X45.197Y84.009
X47.477Y35.841
X49.364Y92.648
X50.412Y39.41
X54.858Y82.712
X55.523Y83.636
X55.59Y79.217
X56.166Y110.944
X59.047Y32.884
X60.96Y160.341
X61.587Y36.399
X63.06Y77.502
X63.819Y155.74
X67.79Y139.728
X70.393Y133.633
X71.004Y144.039
X71.733Y139.929
X72.725Y131.508
X73.22Y76.394
X73.782Y71.968
X75.93Y121.597
X78.984Y56.997
X81.28Y160.516
X89.435Y100.291
X91.749Y71.377
X94.515Y69.326
T2
X15.494Y52.07
X16.764Y53.34
X18.034Y52.07
T3
X9.89Y145.84
X9.89Y138.22
X9.89Y126.155
X9.89Y118.535
X9.89Y110.28
X9.89Y102.66
X9.89Y95.675
X9.89Y88.055
X9.89Y81.07
X9.89Y65.83
X9.93Y133.775
X12.43Y145.84
X12.43Y138.22
X12.43Y133.775
X12.43Y126.155
X12.43Y118.535
X12.43Y110.28
X12.43Y102.66
X12.43Y95.675
X12.43Y88.055
X12.43Y81.07
X12.43Y65.83
X14.97Y145.84
X14.97Y138.22
X14.97Y126.155
X14.97Y118.535
X14.97Y110.28
X14.97Y102.66
X14.97Y95.675
X14.97Y88.055
X14.97Y81.07
X14.97Y65.83
X17.51Y145.84
X17.51Y138.22
X17.51Y133.775
X17.51Y126.155
X17.51Y118.535
X17.51Y110.28
X17.51Y102.66
X17.51Y95.675
X17.51Y88.055
X17.51Y81.07
X17.51Y65.83
X20.05Y145.84
X20.05Y138.22
X20.05Y126.155
X20.05Y118.535
X20.05Y110.28
X20.05Y102.66
X20.05Y95.675
X20.05Y88.055
X20.05Y81.07
X20.05Y65.83
X22.59Y145.84
X22.59Y138.22
X22.59Y126.155
X22.59Y118.535
X22.59Y110.28
X22.59Y102.66
X22.59Y95.675
X22.59Y88.055
X22.59Y81.07
X22.59Y65.83
X22.606Y52.07
X25.13Y145.84
X25.13Y138.22
X25.13Y133.775
X25.13Y126.155
X25.13Y118.535
X25.13Y110.28
X25.13Y102.66
X25.13Y95.675
X25.13Y88.055
X25.13Y81.07
X25.13Y65.83
X27.67Y126.155
X27.67Y118.535
X27.67Y110.28
X27.67Y102.66
X27.67Y95.675
X27.67Y88.055
X27.67Y81.07
X27.67Y65.83
X27.987Y153.841
X27.987Y151.341
X28.305Y143.26
X28.305Y140.76
X30.21Y126.155
X30.21Y118.535
X30.21Y81.07
X30.21Y65.83
X30.226Y52.07
X30.845Y107.7
X30.845Y105.2
X30.845Y93.095
X30.845Y90.595
X32.75Y126.155
X32.75Y118.535
X32.75Y81.07
X32.75Y65.83
X34.544Y145.796
X34.544Y138.176
X34.798Y52.07
X35.29Y81.07
X35.29Y65.83
X35.925Y123.575
X35.925Y121.075
X37.084Y145.796
X37.084Y138.176
X37.83Y81.07
X37.83Y65.83
X39.624Y145.796
X39.624Y138.176
X40.37Y81.07
X40.37Y65.83
X42.164Y145.796
X42.164Y138.176
X42.418Y52.07
X42.91Y81.07
X42.91Y65.83
X44.704Y145.796
X44.704Y138.176
X45.45Y81.07
X45.45Y65.83
X47.244Y145.796
X47.244Y138.176
X47.99Y129.33
X47.99Y121.71
X47.99Y113.455
X47.99Y105.835
X47.99Y98.215
X47.99Y90.595
X47.99Y81.07
X47.99Y65.83
X49.784Y145.796
X49.784Y138.176
X50.53Y129.33
X50.53Y121.71
X50.53Y113.455
X50.53Y105.835
X50.53Y98.215
X50.53Y90.595
X51.8Y74.68
X51.8Y72.18
X53.07Y143.26
X53.07Y140.76
X53.07Y129.33
X53.07Y121.71
X53.07Y113.455
X53.07Y105.835
X53.07Y98.215
X53.07Y90.595
X55.61Y129.33
X55.61Y121.71
X55.61Y113.455
X55.61Y105.835
X55.61Y98.215
X55.61Y90.595
X56.88Y81.07
X56.88Y73.45
X58.15Y129.33
X58.15Y121.71
X58.15Y113.455
X58.15Y105.835
X58.15Y98.215
X58.15Y90.595
X59.42Y145.84
X59.42Y138.22
X59.42Y81.07
X59.42Y73.45
X60.69Y129.33
X60.69Y121.71
X60.69Y113.455
X60.69Y105.835
X60.69Y98.215
X60.69Y90.595
X61.96Y145.84
X61.96Y138.22
X61.96Y81.07
X61.96Y73.45
X63.23Y129.33
X63.23Y121.71
X63.23Y113.455
X63.23Y105.835
X63.23Y98.215
X63.23Y90.595
X64.5Y145.84
X64.5Y138.22
X64.5Y81.07
X64.5Y73.45
X65.77Y129.33
X65.77Y121.71
X65.77Y113.455
X65.77Y105.835
X65.77Y98.215
X65.77Y90.595
X67.04Y145.84
X67.04Y138.22
X67.04Y81.07
X67.04Y73.45
X68.945Y126.75
X68.945Y124.25
X68.945Y110.875
X68.945Y108.375
X68.945Y95.635
X68.945Y93.135
X69.58Y145.84
X69.58Y138.22
X69.58Y81.07
X69.58Y73.45
X72.12Y145.84
X72.12Y138.22
X72.12Y81.07
X72.12Y73.45
X74.66Y145.84
X74.66Y138.22
X74.66Y81.07
X74.66Y73.45
X77.2Y81.07
X77.2Y73.45
X77.835Y143.26
X77.835Y140.76
X79.74Y81.07
X79.74Y73.45
X82.915Y78.49
X82.915Y75.99
X87.36Y129.33
X87.36Y121.71
X87.995Y113.455
X87.995Y105.835
X87.995Y98.215
X87.995Y90.595
X87.995Y81.07
X87.995Y73.45
X89.9Y129.33
X89.9Y121.71
X90.535Y113.455
X90.535Y105.835
X90.535Y98.215
X90.535Y90.595
X90.535Y81.07
X90.535Y73.45
X92.44Y129.33
X92.44Y121.71
X93.075Y113.455
X93.075Y105.835
X93.075Y98.215
X93.075Y90.595
X93.075Y81.07
X93.075Y73.45
X94.98Y129.33
X94.98Y121.71
X95.615Y113.455
X95.615Y105.835
X95.615Y98.215
X95.615Y90.595
X95.615Y81.07
X95.615Y73.45
X97.52Y129.33
X97.52Y121.71
X98.155Y113.455
X98.155Y105.835
X98.155Y98.215
X98.155Y90.595
X98.155Y81.07
X98.155Y73.45
X100.06Y129.33
X100.06Y121.71
X100.695Y113.455
X100.695Y105.835
X100.695Y98.215
X100.695Y90.595
X100.695Y81.07
X100.695Y73.45
X102.6Y129.33
X102.6Y121.71
X103.235Y113.455
X103.235Y105.835
X103.235Y98.215
X103.235Y90.595
X103.235Y81.07
X103.235Y73.45
X105.775Y126.75
X105.775Y124.25
X105.775Y113.455
X105.775Y105.835
X105.775Y98.215
X105.775Y90.595
X106.41Y78.49
X106.41Y75.99
X108.95Y110.875
X108.95Y108.375
X108.95Y95.635
X108.95Y93.135
T4
X51.02Y34.495
X53.56Y34.495
X56.1Y34.495
X87.106Y144.57
X87.106Y142.03
X87.106Y139.49
X90.916Y144.57
X90.916Y142.03
X90.916Y139.49
T5
X47.99Y57.94
X47.99Y49.05
X58.15Y57.94
X58.15Y49.05
T6
X70.985Y52.15
X91.475Y52.15
T7
X5.0Y156.0
X5.0Y34.0
X112.0Y156.0
X112.0Y34.0
T0
M30
