G04 #@! TF.GenerationSoftware,KiCad,Pcbnew,(5.1.9)-1*
G04 #@! TF.CreationDate,2025-12-07T21:20:58+09:00*
G04 #@! TF.ProjectId,MZ-2000_EMM_CMU,4d5a2d32-3030-4305-9f45-4d4d5f434d55,rev?*
G04 #@! TF.SameCoordinates,PX20a6660PYbcc1c70*
G04 #@! TF.FileFunction,Soldermask,Bot*
G04 #@! TF.FilePolarity,Negative*
%FSLAX46Y46*%
G04 Gerber Fmt 4.6, Leading zero omitted, Abs format (unit mm)*
G04 Created by KiCad (PCBNEW (5.1.9)-1) date 2025-12-07 21:20:58*
%MOMM*%
%LPD*%
G01*
G04 APERTURE LIST*
%ADD10R,1.780000X10.000000*%
%ADD11C,3.200000*%
%ADD12C,1.600000*%
%ADD13R,1.600000X1.600000*%
%ADD14O,2.200000X2.200000*%
%ADD15R,2.200000X2.200000*%
%ADD16O,1.600000X1.600000*%
%ADD17R,1.600000X2.400000*%
%ADD18O,1.600000X2.400000*%
%ADD19C,3.000000*%
%ADD20R,3.000000X3.000000*%
%ADD21R,1.700000X1.700000*%
%ADD22O,1.700000X1.700000*%
G04 APERTURE END LIST*
D10*
X26940000Y137196000D03*
X29480000Y137196000D03*
X32020000Y137196000D03*
X34560000Y137196000D03*
X37100000Y137196000D03*
X39640000Y137196000D03*
X42180000Y137196000D03*
X44720000Y137196000D03*
X47260000Y137196000D03*
X49800000Y137196000D03*
X52340000Y137196000D03*
X54880000Y137196000D03*
X57420000Y137196000D03*
X59960000Y137196000D03*
X62500000Y137196000D03*
X65040000Y137196000D03*
X67580000Y137196000D03*
X70120000Y137196000D03*
X72660000Y137196000D03*
X75200000Y137196000D03*
X77740000Y137196000D03*
X80280000Y137196000D03*
D11*
X4000000Y127000000D03*
X111000000Y127000000D03*
X111000000Y5000000D03*
X4000000Y5000000D03*
D10*
X83447500Y-10080000D03*
X80907500Y-10080000D03*
X78367500Y-10080000D03*
X75827500Y-10080000D03*
X73287500Y-10080000D03*
X70747500Y-10080000D03*
X68207500Y-10080000D03*
X65667500Y-10080000D03*
X63127500Y-10080000D03*
X60587500Y-10080000D03*
X58047500Y-10080000D03*
X55507500Y-10080000D03*
X52967500Y-10080000D03*
X50427500Y-10080000D03*
X47887500Y-10080000D03*
X45347500Y-10080000D03*
X42807500Y-10080000D03*
X40267500Y-10080000D03*
X37727500Y-10080000D03*
X35187500Y-10080000D03*
X32647500Y-10080000D03*
X30107500Y-10080000D03*
X27567500Y-10080000D03*
X25027500Y-10080000D03*
X22487500Y-10080000D03*
D12*
X76835000Y111760000D03*
X76835000Y114260000D03*
X34925000Y94575000D03*
X34925000Y92075000D03*
X67945000Y95250000D03*
X67945000Y97750000D03*
X29845000Y76200000D03*
X29845000Y78700000D03*
X67945000Y81875000D03*
X67945000Y79375000D03*
X29845000Y61595000D03*
X29845000Y64095000D03*
X67945000Y66635000D03*
X67945000Y64135000D03*
X50800000Y43180000D03*
X50800000Y45680000D03*
X81915000Y49490000D03*
X81915000Y46990000D03*
X8930000Y104775000D03*
X11430000Y104775000D03*
D13*
X26987500Y124841000D03*
D12*
X26987500Y122341000D03*
D14*
X57150000Y22225000D03*
D15*
X46990000Y22225000D03*
X46990000Y29845000D03*
D14*
X57150000Y29845000D03*
D12*
X24130000Y104775000D03*
D16*
X16510000Y104775000D03*
D17*
X24130000Y116840000D03*
D18*
X8890000Y109220000D03*
X21590000Y116840000D03*
X11430000Y109220000D03*
X19050000Y116840000D03*
X13970000Y109220000D03*
X16510000Y116840000D03*
X16510000Y109220000D03*
X13970000Y116840000D03*
X19050000Y109220000D03*
X11430000Y116840000D03*
X21590000Y109220000D03*
X8890000Y116840000D03*
X24130000Y109220000D03*
X31750000Y89535000D03*
X8890000Y97155000D03*
X29210000Y89535000D03*
X11430000Y97155000D03*
X26670000Y89535000D03*
X13970000Y97155000D03*
X24130000Y89535000D03*
X16510000Y97155000D03*
X21590000Y89535000D03*
X19050000Y97155000D03*
X19050000Y89535000D03*
X21590000Y97155000D03*
X16510000Y89535000D03*
X24130000Y97155000D03*
X13970000Y89535000D03*
X26670000Y97155000D03*
X11430000Y89535000D03*
X29210000Y97155000D03*
X8890000Y89535000D03*
D17*
X31750000Y97155000D03*
X64770000Y100330000D03*
D18*
X46990000Y92710000D03*
X62230000Y100330000D03*
X49530000Y92710000D03*
X59690000Y100330000D03*
X52070000Y92710000D03*
X57150000Y100330000D03*
X54610000Y92710000D03*
X54610000Y100330000D03*
X57150000Y92710000D03*
X52070000Y100330000D03*
X59690000Y92710000D03*
X49530000Y100330000D03*
X62230000Y92710000D03*
X46990000Y100330000D03*
X64770000Y92710000D03*
X26670000Y73660000D03*
X8890000Y81280000D03*
X24130000Y73660000D03*
X11430000Y81280000D03*
X21590000Y73660000D03*
X13970000Y81280000D03*
X19050000Y73660000D03*
X16510000Y81280000D03*
X16510000Y73660000D03*
X19050000Y81280000D03*
X13970000Y73660000D03*
X21590000Y81280000D03*
X11430000Y73660000D03*
X24130000Y81280000D03*
X8890000Y73660000D03*
D17*
X26670000Y81280000D03*
X64770000Y84455000D03*
D18*
X46990000Y76835000D03*
X62230000Y84455000D03*
X49530000Y76835000D03*
X59690000Y84455000D03*
X52070000Y76835000D03*
X57150000Y84455000D03*
X54610000Y76835000D03*
X54610000Y84455000D03*
X57150000Y76835000D03*
X52070000Y84455000D03*
X59690000Y76835000D03*
X49530000Y84455000D03*
X62230000Y76835000D03*
X46990000Y84455000D03*
X64770000Y76835000D03*
D17*
X26670000Y66675000D03*
D18*
X8890000Y59055000D03*
X24130000Y66675000D03*
X11430000Y59055000D03*
X21590000Y66675000D03*
X13970000Y59055000D03*
X19050000Y66675000D03*
X16510000Y59055000D03*
X16510000Y66675000D03*
X19050000Y59055000D03*
X13970000Y66675000D03*
X21590000Y59055000D03*
X11430000Y66675000D03*
X24130000Y59055000D03*
X8890000Y66675000D03*
X26670000Y59055000D03*
X64770000Y61595000D03*
X46990000Y69215000D03*
X62230000Y61595000D03*
X49530000Y69215000D03*
X59690000Y61595000D03*
X52070000Y69215000D03*
X57150000Y61595000D03*
X54610000Y69215000D03*
X54610000Y61595000D03*
X57150000Y69215000D03*
X52070000Y61595000D03*
X59690000Y69215000D03*
X49530000Y61595000D03*
X62230000Y69215000D03*
X46990000Y61595000D03*
D17*
X64770000Y69215000D03*
X46990000Y52070000D03*
D18*
X8890000Y36830000D03*
X44450000Y52070000D03*
X11430000Y36830000D03*
X41910000Y52070000D03*
X13970000Y36830000D03*
X39370000Y52070000D03*
X16510000Y36830000D03*
X36830000Y52070000D03*
X19050000Y36830000D03*
X34290000Y52070000D03*
X21590000Y36830000D03*
X31750000Y52070000D03*
X24130000Y36830000D03*
X29210000Y52070000D03*
X26670000Y36830000D03*
X26670000Y52070000D03*
X29210000Y36830000D03*
X24130000Y52070000D03*
X31750000Y36830000D03*
X21590000Y52070000D03*
X34290000Y36830000D03*
X19050000Y52070000D03*
X36830000Y36830000D03*
X16510000Y52070000D03*
X39370000Y36830000D03*
X13970000Y52070000D03*
X41910000Y36830000D03*
X11430000Y52070000D03*
X44450000Y36830000D03*
X8890000Y52070000D03*
X46990000Y36830000D03*
D17*
X78740000Y52070000D03*
D18*
X55880000Y44450000D03*
X76200000Y52070000D03*
X58420000Y44450000D03*
X73660000Y52070000D03*
X60960000Y44450000D03*
X71120000Y52070000D03*
X63500000Y44450000D03*
X68580000Y52070000D03*
X66040000Y44450000D03*
X66040000Y52070000D03*
X68580000Y44450000D03*
X63500000Y52070000D03*
X71120000Y44450000D03*
X60960000Y52070000D03*
X73660000Y44450000D03*
X58420000Y52070000D03*
X76200000Y44450000D03*
X55880000Y52070000D03*
X78740000Y44450000D03*
D19*
X88435000Y22225000D03*
D20*
X67945000Y22225000D03*
D12*
X52070000Y114260000D03*
X52070000Y111760000D03*
X27305000Y111760000D03*
X27305000Y114260000D03*
X104775000Y97750000D03*
X104775000Y95250000D03*
X107950000Y81875000D03*
X107950000Y79375000D03*
X107950000Y64135000D03*
X107950000Y66635000D03*
X105410000Y46990000D03*
X105410000Y49490000D03*
D21*
X86106000Y115570000D03*
D22*
X86106000Y113030000D03*
X86106000Y110490000D03*
X89916000Y110490000D03*
X89916000Y113030000D03*
D21*
X89916000Y115570000D03*
D17*
X48895000Y116840000D03*
D18*
X33655000Y109220000D03*
X46355000Y116840000D03*
X36195000Y109220000D03*
X43815000Y116840000D03*
X38735000Y109220000D03*
X41275000Y116840000D03*
X41275000Y109220000D03*
X38735000Y116840000D03*
X43815000Y109220000D03*
X36195000Y116840000D03*
X46355000Y109220000D03*
X33655000Y116840000D03*
X48895000Y109220000D03*
D17*
X101600000Y100330000D03*
D18*
X86360000Y92710000D03*
X99060000Y100330000D03*
X88900000Y92710000D03*
X96520000Y100330000D03*
X91440000Y92710000D03*
X93980000Y100330000D03*
X93980000Y92710000D03*
X91440000Y100330000D03*
X96520000Y92710000D03*
X88900000Y100330000D03*
X99060000Y92710000D03*
X86360000Y100330000D03*
X101600000Y92710000D03*
X104775000Y76835000D03*
X86995000Y84455000D03*
X102235000Y76835000D03*
X89535000Y84455000D03*
X99695000Y76835000D03*
X92075000Y84455000D03*
X97155000Y76835000D03*
X94615000Y84455000D03*
X94615000Y76835000D03*
X97155000Y84455000D03*
X92075000Y76835000D03*
X99695000Y84455000D03*
X89535000Y76835000D03*
X102235000Y84455000D03*
X86995000Y76835000D03*
D17*
X104775000Y84455000D03*
X104775000Y69215000D03*
D18*
X86995000Y61595000D03*
X102235000Y69215000D03*
X89535000Y61595000D03*
X99695000Y69215000D03*
X92075000Y61595000D03*
X97155000Y69215000D03*
X94615000Y61595000D03*
X94615000Y69215000D03*
X97155000Y61595000D03*
X92075000Y69215000D03*
X99695000Y61595000D03*
X89535000Y69215000D03*
X102235000Y61595000D03*
X86995000Y69215000D03*
X104775000Y61595000D03*
X102235000Y44450000D03*
X86995000Y52070000D03*
X99695000Y44450000D03*
X89535000Y52070000D03*
X97155000Y44450000D03*
X92075000Y52070000D03*
X94615000Y44450000D03*
X94615000Y52070000D03*
X92075000Y44450000D03*
X97155000Y52070000D03*
X89535000Y44450000D03*
X99695000Y52070000D03*
X86995000Y44450000D03*
D17*
X102235000Y52070000D03*
X73660000Y116840000D03*
D18*
X58420000Y109220000D03*
X71120000Y116840000D03*
X60960000Y109220000D03*
X68580000Y116840000D03*
X63500000Y109220000D03*
X66040000Y116840000D03*
X66040000Y109220000D03*
X63500000Y116840000D03*
X68580000Y109220000D03*
X60960000Y116840000D03*
X71120000Y109220000D03*
X58420000Y116840000D03*
X73660000Y109220000D03*
D12*
X29210000Y29845000D03*
D16*
X21590000Y29845000D03*
M02*
