G04 #@! TF.GenerationSoftware,KiCad,Pcbnew,(5.1.9)-1*
G04 #@! TF.CreationDate,2026-02-08T22:58:38+09:00*
G04 #@! TF.ProjectId,MZ-2000_EMM_CMU,4d5a2d32-3030-4305-9f45-4d4d5f434d55,rev?*
G04 #@! TF.SameCoordinates,PX20a6660PYbcc1c70*
G04 #@! TF.FileFunction,Legend,Top*
G04 #@! TF.FilePolarity,Positive*
%FSLAX46Y46*%
G04 Gerber Fmt 4.6, Leading zero omitted, Abs format (unit mm)*
G04 Created by KiCad (PCBNEW (5.1.9)-1) date 2026-02-08 22:58:38*
%MOMM*%
%LPD*%
G01*
G04 APERTURE LIST*
%ADD10C,0.150000*%
%ADD11C,0.300000*%
%ADD12C,0.100000*%
%ADD13C,0.500000*%
%ADD14C,0.120000*%
G04 APERTURE END LIST*
D10*
X14303714Y49474381D02*
X14351333Y49522000D01*
X14446571Y49569620D01*
X14684666Y49569620D01*
X14779904Y49522000D01*
X14827523Y49474381D01*
X14875142Y49379143D01*
X14875142Y49283905D01*
X14827523Y49141048D01*
X14256095Y48569620D01*
X14875142Y48569620D01*
X15303714Y48569620D02*
X15303714Y49569620D01*
X15875142Y48569620D01*
X15875142Y49569620D01*
X16256095Y49569620D02*
X16922761Y49569620D01*
X16494190Y48569620D01*
X17494190Y49569620D02*
X17589428Y49569620D01*
X17684666Y49522000D01*
X17732285Y49474381D01*
X17779904Y49379143D01*
X17827523Y49188667D01*
X17827523Y48950572D01*
X17779904Y48760096D01*
X17732285Y48664858D01*
X17684666Y48617239D01*
X17589428Y48569620D01*
X17494190Y48569620D01*
X17398952Y48617239D01*
X17351333Y48664858D01*
X17303714Y48760096D01*
X17256095Y48950572D01*
X17256095Y49188667D01*
X17303714Y49379143D01*
X17351333Y49474381D01*
X17398952Y49522000D01*
X17494190Y49569620D01*
X18446571Y49569620D02*
X18541809Y49569620D01*
X18637047Y49522000D01*
X18684666Y49474381D01*
X18732285Y49379143D01*
X18779904Y49188667D01*
X18779904Y48950572D01*
X18732285Y48760096D01*
X18684666Y48664858D01*
X18637047Y48617239D01*
X18541809Y48569620D01*
X18446571Y48569620D01*
X18351333Y48617239D01*
X18303714Y48664858D01*
X18256095Y48760096D01*
X18208476Y48950572D01*
X18208476Y49188667D01*
X18256095Y49379143D01*
X18303714Y49474381D01*
X18351333Y49522000D01*
X18446571Y49569620D01*
X19398952Y49569620D02*
X19494190Y49569620D01*
X19589428Y49522000D01*
X19637047Y49474381D01*
X19684666Y49379143D01*
X19732285Y49188667D01*
X19732285Y48950572D01*
X19684666Y48760096D01*
X19637047Y48664858D01*
X19589428Y48617239D01*
X19494190Y48569620D01*
X19398952Y48569620D01*
X19303714Y48617239D01*
X19256095Y48664858D01*
X19208476Y48760096D01*
X19160857Y48950572D01*
X19160857Y49188667D01*
X19208476Y49379143D01*
X19256095Y49474381D01*
X19303714Y49522000D01*
X19398952Y49569620D01*
X60714285Y34121620D02*
X60380952Y34597810D01*
X60142857Y34121620D02*
X60142857Y35121620D01*
X60523809Y35121620D01*
X60619047Y35074000D01*
X60666666Y35026381D01*
X60714285Y34931143D01*
X60714285Y34788286D01*
X60666666Y34693048D01*
X60619047Y34645429D01*
X60523809Y34597810D01*
X60142857Y34597810D01*
X61333333Y35121620D02*
X61523809Y35121620D01*
X61619047Y35074000D01*
X61714285Y34978762D01*
X61761904Y34788286D01*
X61761904Y34454953D01*
X61714285Y34264477D01*
X61619047Y34169239D01*
X61523809Y34121620D01*
X61333333Y34121620D01*
X61238095Y34169239D01*
X61142857Y34264477D01*
X61095238Y34454953D01*
X61095238Y34788286D01*
X61142857Y34978762D01*
X61238095Y35074000D01*
X61333333Y35121620D01*
X62190476Y34121620D02*
X62190476Y35121620D01*
X62523809Y34407334D01*
X62857142Y35121620D01*
X62857142Y34121620D01*
X45309523Y34047620D02*
X44976190Y34523810D01*
X44738095Y34047620D02*
X44738095Y35047620D01*
X45119047Y35047620D01*
X45214285Y35000000D01*
X45261904Y34952381D01*
X45309523Y34857143D01*
X45309523Y34714286D01*
X45261904Y34619048D01*
X45214285Y34571429D01*
X45119047Y34523810D01*
X44738095Y34523810D01*
X45690476Y34333334D02*
X46166666Y34333334D01*
X45595238Y34047620D02*
X45928571Y35047620D01*
X46261904Y34047620D01*
X46595238Y34047620D02*
X46595238Y35047620D01*
X46928571Y34333334D01*
X47261904Y35047620D01*
X47261904Y34047620D01*
X39536761Y54157620D02*
X38965333Y54157620D01*
X39251047Y54157620D02*
X39251047Y55157620D01*
X39155809Y55014762D01*
X39060571Y54919524D01*
X38965333Y54871905D01*
X40155809Y55157620D02*
X40251047Y55157620D01*
X40346285Y55110000D01*
X40393904Y55062381D01*
X40441523Y54967143D01*
X40489142Y54776667D01*
X40489142Y54538572D01*
X40441523Y54348096D01*
X40393904Y54252858D01*
X40346285Y54205239D01*
X40251047Y54157620D01*
X40155809Y54157620D01*
X40060571Y54205239D01*
X40012952Y54252858D01*
X39965333Y54348096D01*
X39917714Y54538572D01*
X39917714Y54776667D01*
X39965333Y54967143D01*
X40012952Y55062381D01*
X40060571Y55110000D01*
X40155809Y55157620D01*
X40917714Y54157620D02*
X40917714Y55157620D01*
X41012952Y54538572D02*
X41298666Y54157620D01*
X41298666Y54824286D02*
X40917714Y54443334D01*
X28328952Y54157620D02*
X27757523Y54157620D01*
X28043238Y54157620D02*
X28043238Y55157620D01*
X27948000Y55014762D01*
X27852761Y54919524D01*
X27757523Y54871905D01*
X28757523Y54157620D02*
X28757523Y55157620D01*
X28852761Y54538572D02*
X29138476Y54157620D01*
X29138476Y54824286D02*
X28757523Y54443334D01*
X94877142Y84157620D02*
X95543809Y84157620D01*
X95115238Y83157620D01*
X96353333Y83824286D02*
X96353333Y83157620D01*
X96115238Y84205239D02*
X95877142Y83490953D01*
X96496190Y83490953D01*
X97353333Y83157620D02*
X96877142Y83157620D01*
X96877142Y84157620D01*
X97639047Y83205239D02*
X97781904Y83157620D01*
X98020000Y83157620D01*
X98115238Y83205239D01*
X98162857Y83252858D01*
X98210476Y83348096D01*
X98210476Y83443334D01*
X98162857Y83538572D01*
X98115238Y83586191D01*
X98020000Y83633810D01*
X97829523Y83681429D01*
X97734285Y83729048D01*
X97686666Y83776667D01*
X97639047Y83871905D01*
X97639047Y83967143D01*
X97686666Y84062381D01*
X97734285Y84110000D01*
X97829523Y84157620D01*
X98067619Y84157620D01*
X98210476Y84110000D01*
X99162857Y83157620D02*
X98591428Y83157620D01*
X98877142Y83157620D02*
X98877142Y84157620D01*
X98781904Y84014762D01*
X98686666Y83919524D01*
X98591428Y83871905D01*
X100115238Y83157620D02*
X99543809Y83157620D01*
X99829523Y83157620D02*
X99829523Y84157620D01*
X99734285Y84014762D01*
X99639047Y83919524D01*
X99543809Y83871905D01*
X65825952Y84157620D02*
X66492619Y84157620D01*
X66064047Y83157620D01*
X67302142Y83824286D02*
X67302142Y83157620D01*
X67064047Y84205239D02*
X66825952Y83490953D01*
X67445000Y83490953D01*
X68302142Y83157620D02*
X67825952Y83157620D01*
X67825952Y84157620D01*
X68587857Y83205239D02*
X68730714Y83157620D01*
X68968809Y83157620D01*
X69064047Y83205239D01*
X69111666Y83252858D01*
X69159285Y83348096D01*
X69159285Y83443334D01*
X69111666Y83538572D01*
X69064047Y83586191D01*
X68968809Y83633810D01*
X68778333Y83681429D01*
X68683095Y83729048D01*
X68635476Y83776667D01*
X68587857Y83871905D01*
X68587857Y83967143D01*
X68635476Y84062381D01*
X68683095Y84110000D01*
X68778333Y84157620D01*
X69016428Y84157620D01*
X69159285Y84110000D01*
X69540238Y84062381D02*
X69587857Y84110000D01*
X69683095Y84157620D01*
X69921190Y84157620D01*
X70016428Y84110000D01*
X70064047Y84062381D01*
X70111666Y83967143D01*
X70111666Y83871905D01*
X70064047Y83729048D01*
X69492619Y83157620D01*
X70111666Y83157620D01*
X70968809Y83824286D02*
X70968809Y83157620D01*
X70730714Y84205239D02*
X70492619Y83490953D01*
X71111666Y83490953D01*
X71968809Y84157620D02*
X71492619Y84157620D01*
X71445000Y83681429D01*
X71492619Y83729048D01*
X71587857Y83776667D01*
X71825952Y83776667D01*
X71921190Y83729048D01*
X71968809Y83681429D01*
X72016428Y83586191D01*
X72016428Y83348096D01*
X71968809Y83252858D01*
X71921190Y83205239D01*
X71825952Y83157620D01*
X71587857Y83157620D01*
X71492619Y83205239D01*
X71445000Y83252858D01*
X25225714Y83157620D02*
X25225714Y84157620D01*
X25225714Y83681429D02*
X25797142Y83681429D01*
X25797142Y83157620D02*
X25797142Y84157620D01*
X26273333Y83157620D02*
X26273333Y84157620D01*
X26606666Y83443334D01*
X26940000Y84157620D01*
X26940000Y83157620D01*
X27844761Y84157620D02*
X27654285Y84157620D01*
X27559047Y84110000D01*
X27511428Y84062381D01*
X27416190Y83919524D01*
X27368571Y83729048D01*
X27368571Y83348096D01*
X27416190Y83252858D01*
X27463809Y83205239D01*
X27559047Y83157620D01*
X27749523Y83157620D01*
X27844761Y83205239D01*
X27892380Y83252858D01*
X27940000Y83348096D01*
X27940000Y83586191D01*
X27892380Y83681429D01*
X27844761Y83729048D01*
X27749523Y83776667D01*
X27559047Y83776667D01*
X27463809Y83729048D01*
X27416190Y83681429D01*
X27368571Y83586191D01*
X28320952Y84062381D02*
X28368571Y84110000D01*
X28463809Y84157620D01*
X28701904Y84157620D01*
X28797142Y84110000D01*
X28844761Y84062381D01*
X28892380Y83967143D01*
X28892380Y83871905D01*
X28844761Y83729048D01*
X28273333Y83157620D01*
X28892380Y83157620D01*
X29463809Y83729048D02*
X29368571Y83776667D01*
X29320952Y83824286D01*
X29273333Y83919524D01*
X29273333Y83967143D01*
X29320952Y84062381D01*
X29368571Y84110000D01*
X29463809Y84157620D01*
X29654285Y84157620D01*
X29749523Y84110000D01*
X29797142Y84062381D01*
X29844761Y83967143D01*
X29844761Y83919524D01*
X29797142Y83824286D01*
X29749523Y83776667D01*
X29654285Y83729048D01*
X29463809Y83729048D01*
X29368571Y83681429D01*
X29320952Y83633810D01*
X29273333Y83538572D01*
X29273333Y83348096D01*
X29320952Y83252858D01*
X29368571Y83205239D01*
X29463809Y83157620D01*
X29654285Y83157620D01*
X29749523Y83205239D01*
X29797142Y83252858D01*
X29844761Y83348096D01*
X29844761Y83538572D01*
X29797142Y83633810D01*
X29749523Y83681429D01*
X29654285Y83729048D01*
X30749523Y84157620D02*
X30273333Y84157620D01*
X30225714Y83681429D01*
X30273333Y83729048D01*
X30368571Y83776667D01*
X30606666Y83776667D01*
X30701904Y83729048D01*
X30749523Y83681429D01*
X30797142Y83586191D01*
X30797142Y83348096D01*
X30749523Y83252858D01*
X30701904Y83205239D01*
X30606666Y83157620D01*
X30368571Y83157620D01*
X30273333Y83205239D01*
X30225714Y83252858D01*
X31749523Y83157620D02*
X31178095Y83157620D01*
X31463809Y83157620D02*
X31463809Y84157620D01*
X31368571Y84014762D01*
X31273333Y83919524D01*
X31178095Y83871905D01*
X32130476Y84062381D02*
X32178095Y84110000D01*
X32273333Y84157620D01*
X32511428Y84157620D01*
X32606666Y84110000D01*
X32654285Y84062381D01*
X32701904Y83967143D01*
X32701904Y83871905D01*
X32654285Y83729048D01*
X32082857Y83157620D01*
X32701904Y83157620D01*
X95670952Y101302620D02*
X96337619Y101302620D01*
X95909047Y100302620D01*
X97147142Y100969286D02*
X97147142Y100302620D01*
X96909047Y101350239D02*
X96670952Y100635953D01*
X97290000Y100635953D01*
X98147142Y100302620D02*
X97670952Y100302620D01*
X97670952Y101302620D01*
X98432857Y100350239D02*
X98575714Y100302620D01*
X98813809Y100302620D01*
X98909047Y100350239D01*
X98956666Y100397858D01*
X99004285Y100493096D01*
X99004285Y100588334D01*
X98956666Y100683572D01*
X98909047Y100731191D01*
X98813809Y100778810D01*
X98623333Y100826429D01*
X98528095Y100874048D01*
X98480476Y100921667D01*
X98432857Y101016905D01*
X98432857Y101112143D01*
X98480476Y101207381D01*
X98528095Y101255000D01*
X98623333Y101302620D01*
X98861428Y101302620D01*
X99004285Y101255000D01*
X99956666Y100302620D02*
X99385238Y100302620D01*
X99670952Y100302620D02*
X99670952Y101302620D01*
X99575714Y101159762D01*
X99480476Y101064524D01*
X99385238Y101016905D01*
X100290000Y101302620D02*
X100909047Y101302620D01*
X100575714Y100921667D01*
X100718571Y100921667D01*
X100813809Y100874048D01*
X100861428Y100826429D01*
X100909047Y100731191D01*
X100909047Y100493096D01*
X100861428Y100397858D01*
X100813809Y100350239D01*
X100718571Y100302620D01*
X100432857Y100302620D01*
X100337619Y100350239D01*
X100290000Y100397858D01*
X101480476Y100874048D02*
X101385238Y100921667D01*
X101337619Y100969286D01*
X101290000Y101064524D01*
X101290000Y101112143D01*
X101337619Y101207381D01*
X101385238Y101255000D01*
X101480476Y101302620D01*
X101670952Y101302620D01*
X101766190Y101255000D01*
X101813809Y101207381D01*
X101861428Y101112143D01*
X101861428Y101064524D01*
X101813809Y100969286D01*
X101766190Y100921667D01*
X101670952Y100874048D01*
X101480476Y100874048D01*
X101385238Y100826429D01*
X101337619Y100778810D01*
X101290000Y100683572D01*
X101290000Y100493096D01*
X101337619Y100397858D01*
X101385238Y100350239D01*
X101480476Y100302620D01*
X101670952Y100302620D01*
X101766190Y100350239D01*
X101813809Y100397858D01*
X101861428Y100493096D01*
X101861428Y100683572D01*
X101813809Y100778810D01*
X101766190Y100826429D01*
X101670952Y100874048D01*
X55665952Y101302620D02*
X56332619Y101302620D01*
X55904047Y100302620D01*
X57142142Y100969286D02*
X57142142Y100302620D01*
X56904047Y101350239D02*
X56665952Y100635953D01*
X57285000Y100635953D01*
X58142142Y100302620D02*
X57665952Y100302620D01*
X57665952Y101302620D01*
X58427857Y100350239D02*
X58570714Y100302620D01*
X58808809Y100302620D01*
X58904047Y100350239D01*
X58951666Y100397858D01*
X58999285Y100493096D01*
X58999285Y100588334D01*
X58951666Y100683572D01*
X58904047Y100731191D01*
X58808809Y100778810D01*
X58618333Y100826429D01*
X58523095Y100874048D01*
X58475476Y100921667D01*
X58427857Y101016905D01*
X58427857Y101112143D01*
X58475476Y101207381D01*
X58523095Y101255000D01*
X58618333Y101302620D01*
X58856428Y101302620D01*
X58999285Y101255000D01*
X59951666Y100302620D02*
X59380238Y100302620D01*
X59665952Y100302620D02*
X59665952Y101302620D01*
X59570714Y101159762D01*
X59475476Y101064524D01*
X59380238Y101016905D01*
X60427857Y100302620D02*
X60618333Y100302620D01*
X60713571Y100350239D01*
X60761190Y100397858D01*
X60856428Y100540715D01*
X60904047Y100731191D01*
X60904047Y101112143D01*
X60856428Y101207381D01*
X60808809Y101255000D01*
X60713571Y101302620D01*
X60523095Y101302620D01*
X60427857Y101255000D01*
X60380238Y101207381D01*
X60332619Y101112143D01*
X60332619Y100874048D01*
X60380238Y100778810D01*
X60427857Y100731191D01*
X60523095Y100683572D01*
X60713571Y100683572D01*
X60808809Y100731191D01*
X60856428Y100778810D01*
X60904047Y100874048D01*
X61237380Y101302620D02*
X61856428Y101302620D01*
X61523095Y100921667D01*
X61665952Y100921667D01*
X61761190Y100874048D01*
X61808809Y100826429D01*
X61856428Y100731191D01*
X61856428Y100493096D01*
X61808809Y100397858D01*
X61761190Y100350239D01*
X61665952Y100302620D01*
X61380238Y100302620D01*
X61285000Y100350239D01*
X61237380Y100397858D01*
X17565952Y98762620D02*
X18232619Y98762620D01*
X17804047Y97762620D01*
X19042142Y98429286D02*
X19042142Y97762620D01*
X18804047Y98810239D02*
X18565952Y98095953D01*
X19185000Y98095953D01*
X20042142Y97762620D02*
X19565952Y97762620D01*
X19565952Y98762620D01*
X20327857Y97810239D02*
X20470714Y97762620D01*
X20708809Y97762620D01*
X20804047Y97810239D01*
X20851666Y97857858D01*
X20899285Y97953096D01*
X20899285Y98048334D01*
X20851666Y98143572D01*
X20804047Y98191191D01*
X20708809Y98238810D01*
X20518333Y98286429D01*
X20423095Y98334048D01*
X20375476Y98381667D01*
X20327857Y98476905D01*
X20327857Y98572143D01*
X20375476Y98667381D01*
X20423095Y98715000D01*
X20518333Y98762620D01*
X20756428Y98762620D01*
X20899285Y98715000D01*
X21851666Y97762620D02*
X21280238Y97762620D01*
X21565952Y97762620D02*
X21565952Y98762620D01*
X21470714Y98619762D01*
X21375476Y98524524D01*
X21280238Y98476905D01*
X22327857Y97762620D02*
X22518333Y97762620D01*
X22613571Y97810239D01*
X22661190Y97857858D01*
X22756428Y98000715D01*
X22804047Y98191191D01*
X22804047Y98572143D01*
X22756428Y98667381D01*
X22708809Y98715000D01*
X22613571Y98762620D01*
X22423095Y98762620D01*
X22327857Y98715000D01*
X22280238Y98667381D01*
X22232619Y98572143D01*
X22232619Y98334048D01*
X22280238Y98238810D01*
X22327857Y98191191D01*
X22423095Y98143572D01*
X22613571Y98143572D01*
X22708809Y98191191D01*
X22756428Y98238810D01*
X22804047Y98334048D01*
X23137380Y98762620D02*
X23756428Y98762620D01*
X23423095Y98381667D01*
X23565952Y98381667D01*
X23661190Y98334048D01*
X23708809Y98286429D01*
X23756428Y98191191D01*
X23756428Y97953096D01*
X23708809Y97857858D01*
X23661190Y97810239D01*
X23565952Y97762620D01*
X23280238Y97762620D01*
X23185000Y97810239D01*
X23137380Y97857858D01*
X16930952Y113367620D02*
X17597619Y113367620D01*
X17169047Y112367620D01*
X18407142Y113034286D02*
X18407142Y112367620D01*
X18169047Y113415239D02*
X17930952Y112700953D01*
X18550000Y112700953D01*
X19407142Y112367620D02*
X18930952Y112367620D01*
X18930952Y113367620D01*
X19692857Y112415239D02*
X19835714Y112367620D01*
X20073809Y112367620D01*
X20169047Y112415239D01*
X20216666Y112462858D01*
X20264285Y112558096D01*
X20264285Y112653334D01*
X20216666Y112748572D01*
X20169047Y112796191D01*
X20073809Y112843810D01*
X19883333Y112891429D01*
X19788095Y112939048D01*
X19740476Y112986667D01*
X19692857Y113081905D01*
X19692857Y113177143D01*
X19740476Y113272381D01*
X19788095Y113320000D01*
X19883333Y113367620D01*
X20121428Y113367620D01*
X20264285Y113320000D01*
X21216666Y112367620D02*
X20645238Y112367620D01*
X20930952Y112367620D02*
X20930952Y113367620D01*
X20835714Y113224762D01*
X20740476Y113129524D01*
X20645238Y113081905D01*
X21692857Y112367620D02*
X21883333Y112367620D01*
X21978571Y112415239D01*
X22026190Y112462858D01*
X22121428Y112605715D01*
X22169047Y112796191D01*
X22169047Y113177143D01*
X22121428Y113272381D01*
X22073809Y113320000D01*
X21978571Y113367620D01*
X21788095Y113367620D01*
X21692857Y113320000D01*
X21645238Y113272381D01*
X21597619Y113177143D01*
X21597619Y112939048D01*
X21645238Y112843810D01*
X21692857Y112796191D01*
X21788095Y112748572D01*
X21978571Y112748572D01*
X22073809Y112796191D01*
X22121428Y112843810D01*
X22169047Y112939048D01*
X22502380Y113367620D02*
X23121428Y113367620D01*
X22788095Y112986667D01*
X22930952Y112986667D01*
X23026190Y112939048D01*
X23073809Y112891429D01*
X23121428Y112796191D01*
X23121428Y112558096D01*
X23073809Y112462858D01*
X23026190Y112415239D01*
X22930952Y112367620D01*
X22645238Y112367620D01*
X22550000Y112415239D01*
X22502380Y112462858D01*
X54395952Y116542620D02*
X55062619Y116542620D01*
X54634047Y115542620D01*
X55872142Y116209286D02*
X55872142Y115542620D01*
X55634047Y116590239D02*
X55395952Y115875953D01*
X56015000Y115875953D01*
X56872142Y115542620D02*
X56395952Y115542620D01*
X56395952Y116542620D01*
X57157857Y115590239D02*
X57300714Y115542620D01*
X57538809Y115542620D01*
X57634047Y115590239D01*
X57681666Y115637858D01*
X57729285Y115733096D01*
X57729285Y115828334D01*
X57681666Y115923572D01*
X57634047Y115971191D01*
X57538809Y116018810D01*
X57348333Y116066429D01*
X57253095Y116114048D01*
X57205476Y116161667D01*
X57157857Y116256905D01*
X57157857Y116352143D01*
X57205476Y116447381D01*
X57253095Y116495000D01*
X57348333Y116542620D01*
X57586428Y116542620D01*
X57729285Y116495000D01*
X58681666Y115542620D02*
X58110238Y115542620D01*
X58395952Y115542620D02*
X58395952Y116542620D01*
X58300714Y116399762D01*
X58205476Y116304524D01*
X58110238Y116256905D01*
X59157857Y115542620D02*
X59348333Y115542620D01*
X59443571Y115590239D01*
X59491190Y115637858D01*
X59586428Y115780715D01*
X59634047Y115971191D01*
X59634047Y116352143D01*
X59586428Y116447381D01*
X59538809Y116495000D01*
X59443571Y116542620D01*
X59253095Y116542620D01*
X59157857Y116495000D01*
X59110238Y116447381D01*
X59062619Y116352143D01*
X59062619Y116114048D01*
X59110238Y116018810D01*
X59157857Y115971191D01*
X59253095Y115923572D01*
X59443571Y115923572D01*
X59538809Y115971191D01*
X59586428Y116018810D01*
X59634047Y116114048D01*
X59967380Y116542620D02*
X60586428Y116542620D01*
X60253095Y116161667D01*
X60395952Y116161667D01*
X60491190Y116114048D01*
X60538809Y116066429D01*
X60586428Y115971191D01*
X60586428Y115733096D01*
X60538809Y115637858D01*
X60491190Y115590239D01*
X60395952Y115542620D01*
X60110238Y115542620D01*
X60015000Y115590239D01*
X59967380Y115637858D01*
X96305952Y116542620D02*
X96972619Y116542620D01*
X96544047Y115542620D01*
X97782142Y116209286D02*
X97782142Y115542620D01*
X97544047Y116590239D02*
X97305952Y115875953D01*
X97925000Y115875953D01*
X98782142Y115542620D02*
X98305952Y115542620D01*
X98305952Y116542620D01*
X99067857Y115590239D02*
X99210714Y115542620D01*
X99448809Y115542620D01*
X99544047Y115590239D01*
X99591666Y115637858D01*
X99639285Y115733096D01*
X99639285Y115828334D01*
X99591666Y115923572D01*
X99544047Y115971191D01*
X99448809Y116018810D01*
X99258333Y116066429D01*
X99163095Y116114048D01*
X99115476Y116161667D01*
X99067857Y116256905D01*
X99067857Y116352143D01*
X99115476Y116447381D01*
X99163095Y116495000D01*
X99258333Y116542620D01*
X99496428Y116542620D01*
X99639285Y116495000D01*
X100591666Y115542620D02*
X100020238Y115542620D01*
X100305952Y115542620D02*
X100305952Y116542620D01*
X100210714Y116399762D01*
X100115476Y116304524D01*
X100020238Y116256905D01*
X100925000Y116542620D02*
X101544047Y116542620D01*
X101210714Y116161667D01*
X101353571Y116161667D01*
X101448809Y116114048D01*
X101496428Y116066429D01*
X101544047Y115971191D01*
X101544047Y115733096D01*
X101496428Y115637858D01*
X101448809Y115590239D01*
X101353571Y115542620D01*
X101067857Y115542620D01*
X100972619Y115590239D01*
X100925000Y115637858D01*
X102115476Y116114048D02*
X102020238Y116161667D01*
X101972619Y116209286D01*
X101925000Y116304524D01*
X101925000Y116352143D01*
X101972619Y116447381D01*
X102020238Y116495000D01*
X102115476Y116542620D01*
X102305952Y116542620D01*
X102401190Y116495000D01*
X102448809Y116447381D01*
X102496428Y116352143D01*
X102496428Y116304524D01*
X102448809Y116209286D01*
X102401190Y116161667D01*
X102305952Y116114048D01*
X102115476Y116114048D01*
X102020238Y116066429D01*
X101972619Y116018810D01*
X101925000Y115923572D01*
X101925000Y115733096D01*
X101972619Y115637858D01*
X102020238Y115590239D01*
X102115476Y115542620D01*
X102305952Y115542620D01*
X102401190Y115590239D01*
X102448809Y115637858D01*
X102496428Y115733096D01*
X102496428Y115923572D01*
X102448809Y116018810D01*
X102401190Y116066429D01*
X102305952Y116114048D01*
X92972142Y132417620D02*
X93638809Y132417620D01*
X93210238Y131417620D01*
X94448333Y132084286D02*
X94448333Y131417620D01*
X94210238Y132465239D02*
X93972142Y131750953D01*
X94591190Y131750953D01*
X95448333Y131417620D02*
X94972142Y131417620D01*
X94972142Y132417620D01*
X95734047Y131465239D02*
X95876904Y131417620D01*
X96115000Y131417620D01*
X96210238Y131465239D01*
X96257857Y131512858D01*
X96305476Y131608096D01*
X96305476Y131703334D01*
X96257857Y131798572D01*
X96210238Y131846191D01*
X96115000Y131893810D01*
X95924523Y131941429D01*
X95829285Y131989048D01*
X95781666Y132036667D01*
X95734047Y132131905D01*
X95734047Y132227143D01*
X95781666Y132322381D01*
X95829285Y132370000D01*
X95924523Y132417620D01*
X96162619Y132417620D01*
X96305476Y132370000D01*
X96638809Y132417620D02*
X97257857Y132417620D01*
X96924523Y132036667D01*
X97067380Y132036667D01*
X97162619Y131989048D01*
X97210238Y131941429D01*
X97257857Y131846191D01*
X97257857Y131608096D01*
X97210238Y131512858D01*
X97162619Y131465239D01*
X97067380Y131417620D01*
X96781666Y131417620D01*
X96686428Y131465239D01*
X96638809Y131512858D01*
X97876904Y132417620D02*
X97972142Y132417620D01*
X98067380Y132370000D01*
X98115000Y132322381D01*
X98162619Y132227143D01*
X98210238Y132036667D01*
X98210238Y131798572D01*
X98162619Y131608096D01*
X98115000Y131512858D01*
X98067380Y131465239D01*
X97972142Y131417620D01*
X97876904Y131417620D01*
X97781666Y131465239D01*
X97734047Y131512858D01*
X97686428Y131608096D01*
X97638809Y131798572D01*
X97638809Y132036667D01*
X97686428Y132227143D01*
X97734047Y132322381D01*
X97781666Y132370000D01*
X97876904Y132417620D01*
X55665952Y132417620D02*
X56332619Y132417620D01*
X55904047Y131417620D01*
X57142142Y132084286D02*
X57142142Y131417620D01*
X56904047Y132465239D02*
X56665952Y131750953D01*
X57285000Y131750953D01*
X58142142Y131417620D02*
X57665952Y131417620D01*
X57665952Y132417620D01*
X58427857Y131465239D02*
X58570714Y131417620D01*
X58808809Y131417620D01*
X58904047Y131465239D01*
X58951666Y131512858D01*
X58999285Y131608096D01*
X58999285Y131703334D01*
X58951666Y131798572D01*
X58904047Y131846191D01*
X58808809Y131893810D01*
X58618333Y131941429D01*
X58523095Y131989048D01*
X58475476Y132036667D01*
X58427857Y132131905D01*
X58427857Y132227143D01*
X58475476Y132322381D01*
X58523095Y132370000D01*
X58618333Y132417620D01*
X58856428Y132417620D01*
X58999285Y132370000D01*
X59951666Y131417620D02*
X59380238Y131417620D01*
X59665952Y131417620D02*
X59665952Y132417620D01*
X59570714Y132274762D01*
X59475476Y132179524D01*
X59380238Y132131905D01*
X60427857Y131417620D02*
X60618333Y131417620D01*
X60713571Y131465239D01*
X60761190Y131512858D01*
X60856428Y131655715D01*
X60904047Y131846191D01*
X60904047Y132227143D01*
X60856428Y132322381D01*
X60808809Y132370000D01*
X60713571Y132417620D01*
X60523095Y132417620D01*
X60427857Y132370000D01*
X60380238Y132322381D01*
X60332619Y132227143D01*
X60332619Y131989048D01*
X60380238Y131893810D01*
X60427857Y131846191D01*
X60523095Y131798572D01*
X60713571Y131798572D01*
X60808809Y131846191D01*
X60856428Y131893810D01*
X60904047Y131989048D01*
X61237380Y132417620D02*
X61856428Y132417620D01*
X61523095Y132036667D01*
X61665952Y132036667D01*
X61761190Y131989048D01*
X61808809Y131941429D01*
X61856428Y131846191D01*
X61856428Y131608096D01*
X61808809Y131512858D01*
X61761190Y131465239D01*
X61665952Y131417620D01*
X61380238Y131417620D01*
X61285000Y131465239D01*
X61237380Y131512858D01*
X19470952Y129242620D02*
X20137619Y129242620D01*
X19709047Y128242620D01*
X20947142Y128909286D02*
X20947142Y128242620D01*
X20709047Y129290239D02*
X20470952Y128575953D01*
X21090000Y128575953D01*
X21947142Y128242620D02*
X21470952Y128242620D01*
X21470952Y129242620D01*
X22232857Y128290239D02*
X22375714Y128242620D01*
X22613809Y128242620D01*
X22709047Y128290239D01*
X22756666Y128337858D01*
X22804285Y128433096D01*
X22804285Y128528334D01*
X22756666Y128623572D01*
X22709047Y128671191D01*
X22613809Y128718810D01*
X22423333Y128766429D01*
X22328095Y128814048D01*
X22280476Y128861667D01*
X22232857Y128956905D01*
X22232857Y129052143D01*
X22280476Y129147381D01*
X22328095Y129195000D01*
X22423333Y129242620D01*
X22661428Y129242620D01*
X22804285Y129195000D01*
X23185238Y129147381D02*
X23232857Y129195000D01*
X23328095Y129242620D01*
X23566190Y129242620D01*
X23661428Y129195000D01*
X23709047Y129147381D01*
X23756666Y129052143D01*
X23756666Y128956905D01*
X23709047Y128814048D01*
X23137619Y128242620D01*
X23756666Y128242620D01*
X24613809Y128909286D02*
X24613809Y128242620D01*
X24375714Y129290239D02*
X24137619Y128575953D01*
X24756666Y128575953D01*
X25613809Y129242620D02*
X25137619Y129242620D01*
X25090000Y128766429D01*
X25137619Y128814048D01*
X25232857Y128861667D01*
X25470952Y128861667D01*
X25566190Y128814048D01*
X25613809Y128766429D01*
X25661428Y128671191D01*
X25661428Y128433096D01*
X25613809Y128337858D01*
X25566190Y128290239D01*
X25470952Y128242620D01*
X25232857Y128242620D01*
X25137619Y128290239D01*
X25090000Y128337858D01*
X65667142Y148927620D02*
X66333809Y148927620D01*
X65905238Y147927620D01*
X67143333Y148594286D02*
X67143333Y147927620D01*
X66905238Y148975239D02*
X66667142Y148260953D01*
X67286190Y148260953D01*
X68143333Y147927620D02*
X67667142Y147927620D01*
X67667142Y148927620D01*
X68429047Y147975239D02*
X68571904Y147927620D01*
X68810000Y147927620D01*
X68905238Y147975239D01*
X68952857Y148022858D01*
X69000476Y148118096D01*
X69000476Y148213334D01*
X68952857Y148308572D01*
X68905238Y148356191D01*
X68810000Y148403810D01*
X68619523Y148451429D01*
X68524285Y148499048D01*
X68476666Y148546667D01*
X68429047Y148641905D01*
X68429047Y148737143D01*
X68476666Y148832381D01*
X68524285Y148880000D01*
X68619523Y148927620D01*
X68857619Y148927620D01*
X69000476Y148880000D01*
X69619523Y148927620D02*
X69714761Y148927620D01*
X69810000Y148880000D01*
X69857619Y148832381D01*
X69905238Y148737143D01*
X69952857Y148546667D01*
X69952857Y148308572D01*
X69905238Y148118096D01*
X69857619Y148022858D01*
X69810000Y147975239D01*
X69714761Y147927620D01*
X69619523Y147927620D01*
X69524285Y147975239D01*
X69476666Y148022858D01*
X69429047Y148118096D01*
X69381428Y148308572D01*
X69381428Y148546667D01*
X69429047Y148737143D01*
X69476666Y148832381D01*
X69524285Y148880000D01*
X69619523Y148927620D01*
X70810000Y148594286D02*
X70810000Y147927620D01*
X70571904Y148975239D02*
X70333809Y148260953D01*
X70952857Y148260953D01*
X40902142Y148927620D02*
X41568809Y148927620D01*
X41140238Y147927620D01*
X42378333Y148594286D02*
X42378333Y147927620D01*
X42140238Y148975239D02*
X41902142Y148260953D01*
X42521190Y148260953D01*
X43378333Y147927620D02*
X42902142Y147927620D01*
X42902142Y148927620D01*
X43664047Y147975239D02*
X43806904Y147927620D01*
X44045000Y147927620D01*
X44140238Y147975239D01*
X44187857Y148022858D01*
X44235476Y148118096D01*
X44235476Y148213334D01*
X44187857Y148308572D01*
X44140238Y148356191D01*
X44045000Y148403810D01*
X43854523Y148451429D01*
X43759285Y148499048D01*
X43711666Y148546667D01*
X43664047Y148641905D01*
X43664047Y148737143D01*
X43711666Y148832381D01*
X43759285Y148880000D01*
X43854523Y148927620D01*
X44092619Y148927620D01*
X44235476Y148880000D01*
X44854523Y148927620D02*
X44949761Y148927620D01*
X45045000Y148880000D01*
X45092619Y148832381D01*
X45140238Y148737143D01*
X45187857Y148546667D01*
X45187857Y148308572D01*
X45140238Y148118096D01*
X45092619Y148022858D01*
X45045000Y147975239D01*
X44949761Y147927620D01*
X44854523Y147927620D01*
X44759285Y147975239D01*
X44711666Y148022858D01*
X44664047Y148118096D01*
X44616428Y148308572D01*
X44616428Y148546667D01*
X44664047Y148737143D01*
X44711666Y148832381D01*
X44759285Y148880000D01*
X44854523Y148927620D01*
X46045000Y148594286D02*
X46045000Y147927620D01*
X45806904Y148975239D02*
X45568809Y148260953D01*
X46187857Y148260953D01*
X16137142Y148927620D02*
X16803809Y148927620D01*
X16375238Y147927620D01*
X17613333Y148594286D02*
X17613333Y147927620D01*
X17375238Y148975239D02*
X17137142Y148260953D01*
X17756190Y148260953D01*
X18613333Y147927620D02*
X18137142Y147927620D01*
X18137142Y148927620D01*
X18899047Y147975239D02*
X19041904Y147927620D01*
X19280000Y147927620D01*
X19375238Y147975239D01*
X19422857Y148022858D01*
X19470476Y148118096D01*
X19470476Y148213334D01*
X19422857Y148308572D01*
X19375238Y148356191D01*
X19280000Y148403810D01*
X19089523Y148451429D01*
X18994285Y148499048D01*
X18946666Y148546667D01*
X18899047Y148641905D01*
X18899047Y148737143D01*
X18946666Y148832381D01*
X18994285Y148880000D01*
X19089523Y148927620D01*
X19327619Y148927620D01*
X19470476Y148880000D01*
X20422857Y147927620D02*
X19851428Y147927620D01*
X20137142Y147927620D02*
X20137142Y148927620D01*
X20041904Y148784762D01*
X19946666Y148689524D01*
X19851428Y148641905D01*
X21280000Y148594286D02*
X21280000Y147927620D01*
X21041904Y148975239D02*
X20803809Y148260953D01*
X21422857Y148260953D01*
D11*
X89844571Y149400000D02*
X90558857Y149400000D01*
X89701714Y148971429D02*
X90201714Y150471429D01*
X90701714Y148971429D01*
X91130285Y150328572D02*
X91201714Y150400000D01*
X91344571Y150471429D01*
X91701714Y150471429D01*
X91844571Y150400000D01*
X91916000Y150328572D01*
X91987428Y150185715D01*
X91987428Y150042858D01*
X91916000Y149828572D01*
X91058857Y148971429D01*
X91987428Y148971429D01*
X86034571Y149400000D02*
X86748857Y149400000D01*
X85891714Y148971429D02*
X86391714Y150471429D01*
X86891714Y148971429D01*
X87248857Y150471429D02*
X88177428Y150471429D01*
X87677428Y149900000D01*
X87891714Y149900000D01*
X88034571Y149828572D01*
X88106000Y149757143D01*
X88177428Y149614286D01*
X88177428Y149257143D01*
X88106000Y149114286D01*
X88034571Y149042858D01*
X87891714Y148971429D01*
X87463142Y148971429D01*
X87320285Y149042858D01*
X87248857Y149114286D01*
X91344571Y146431429D02*
X90487428Y146431429D01*
X90916000Y146431429D02*
X90916000Y147931429D01*
X90773142Y147717143D01*
X90630285Y147574286D01*
X90487428Y147502858D01*
X87534571Y146431429D02*
X86677428Y146431429D01*
X87106000Y146431429D02*
X87106000Y147931429D01*
X86963142Y147717143D01*
X86820285Y147574286D01*
X86677428Y147502858D01*
X90844571Y137644429D02*
X90987428Y137644429D01*
X91130285Y137573000D01*
X91201714Y137501572D01*
X91273142Y137358715D01*
X91344571Y137073000D01*
X91344571Y136715858D01*
X91273142Y136430143D01*
X91201714Y136287286D01*
X91130285Y136215858D01*
X90987428Y136144429D01*
X90844571Y136144429D01*
X90701714Y136215858D01*
X90630285Y136287286D01*
X90558857Y136430143D01*
X90487428Y136715858D01*
X90487428Y137073000D01*
X90558857Y137358715D01*
X90630285Y137501572D01*
X90701714Y137573000D01*
X90844571Y137644429D01*
X86907571Y137771429D02*
X87050428Y137771429D01*
X87193285Y137700000D01*
X87264714Y137628572D01*
X87336142Y137485715D01*
X87407571Y137200000D01*
X87407571Y136842858D01*
X87336142Y136557143D01*
X87264714Y136414286D01*
X87193285Y136342858D01*
X87050428Y136271429D01*
X86907571Y136271429D01*
X86764714Y136342858D01*
X86693285Y136414286D01*
X86621857Y136557143D01*
X86550428Y136842858D01*
X86550428Y137200000D01*
X86621857Y137485715D01*
X86693285Y137628572D01*
X86764714Y137700000D01*
X86907571Y137771429D01*
D10*
X9040952Y131941381D02*
X9088571Y131989000D01*
X9183809Y132036620D01*
X9421904Y132036620D01*
X9517142Y131989000D01*
X9564761Y131941381D01*
X9612380Y131846143D01*
X9612380Y131750905D01*
X9564761Y131608048D01*
X8993333Y131036620D01*
X9612380Y131036620D01*
X9993333Y131941381D02*
X10040952Y131989000D01*
X10136190Y132036620D01*
X10374285Y132036620D01*
X10469523Y131989000D01*
X10517142Y131941381D01*
X10564761Y131846143D01*
X10564761Y131750905D01*
X10517142Y131608048D01*
X9945714Y131036620D01*
X10564761Y131036620D01*
X11183809Y132036620D02*
X11279047Y132036620D01*
X11374285Y131989000D01*
X11421904Y131941381D01*
X11469523Y131846143D01*
X11517142Y131655667D01*
X11517142Y131417572D01*
X11469523Y131227096D01*
X11421904Y131131858D01*
X11374285Y131084239D01*
X11279047Y131036620D01*
X11183809Y131036620D01*
X11088571Y131084239D01*
X11040952Y131131858D01*
X10993333Y131227096D01*
X10945714Y131417572D01*
X10945714Y131655667D01*
X10993333Y131846143D01*
X11040952Y131941381D01*
X11088571Y131989000D01*
X11183809Y132036620D01*
X11945714Y131703286D02*
X11945714Y130703286D01*
X11945714Y131655667D02*
X12040952Y131703286D01*
X12231428Y131703286D01*
X12326666Y131655667D01*
X12374285Y131608048D01*
X12421904Y131512810D01*
X12421904Y131227096D01*
X12374285Y131131858D01*
X12326666Y131084239D01*
X12231428Y131036620D01*
X12040952Y131036620D01*
X11945714Y131084239D01*
X13183809Y131560429D02*
X12850476Y131560429D01*
X12850476Y131036620D02*
X12850476Y132036620D01*
X13326666Y132036620D01*
X20653333Y131036620D02*
X20081904Y131036620D01*
X20367619Y131036620D02*
X20367619Y132036620D01*
X20272380Y131893762D01*
X20177142Y131798524D01*
X20081904Y131750905D01*
X21272380Y132036620D02*
X21367619Y132036620D01*
X21462857Y131989000D01*
X21510476Y131941381D01*
X21558095Y131846143D01*
X21605714Y131655667D01*
X21605714Y131417572D01*
X21558095Y131227096D01*
X21510476Y131131858D01*
X21462857Y131084239D01*
X21367619Y131036620D01*
X21272380Y131036620D01*
X21177142Y131084239D01*
X21129523Y131131858D01*
X21081904Y131227096D01*
X21034285Y131417572D01*
X21034285Y131655667D01*
X21081904Y131846143D01*
X21129523Y131941381D01*
X21177142Y131989000D01*
X21272380Y132036620D01*
X22224761Y132036620D02*
X22320000Y132036620D01*
X22415238Y131989000D01*
X22462857Y131941381D01*
X22510476Y131846143D01*
X22558095Y131655667D01*
X22558095Y131417572D01*
X22510476Y131227096D01*
X22462857Y131131858D01*
X22415238Y131084239D01*
X22320000Y131036620D01*
X22224761Y131036620D01*
X22129523Y131084239D01*
X22081904Y131131858D01*
X22034285Y131227096D01*
X21986666Y131417572D01*
X21986666Y131655667D01*
X22034285Y131846143D01*
X22081904Y131941381D01*
X22129523Y131989000D01*
X22224761Y132036620D01*
X50927142Y55201620D02*
X50355714Y55201620D01*
X50641428Y55201620D02*
X50641428Y56201620D01*
X50546190Y56058762D01*
X50450952Y55963524D01*
X50355714Y55915905D01*
X51355714Y55201620D02*
X51355714Y56201620D01*
X51927142Y55201620D01*
X51927142Y56201620D01*
X52831904Y55868286D02*
X52831904Y55201620D01*
X52593809Y56249239D02*
X52355714Y55534953D01*
X52974761Y55534953D01*
X53879523Y55201620D02*
X53308095Y55201620D01*
X53593809Y55201620D02*
X53593809Y56201620D01*
X53498571Y56058762D01*
X53403333Y55963524D01*
X53308095Y55915905D01*
X54736666Y55868286D02*
X54736666Y55201620D01*
X54498571Y56249239D02*
X54260476Y55534953D01*
X54879523Y55534953D01*
X55403333Y55773048D02*
X55308095Y55820667D01*
X55260476Y55868286D01*
X55212857Y55963524D01*
X55212857Y56011143D01*
X55260476Y56106381D01*
X55308095Y56154000D01*
X55403333Y56201620D01*
X55593809Y56201620D01*
X55689047Y56154000D01*
X55736666Y56106381D01*
X55784285Y56011143D01*
X55784285Y55963524D01*
X55736666Y55868286D01*
X55689047Y55820667D01*
X55593809Y55773048D01*
X55403333Y55773048D01*
X55308095Y55725429D01*
X55260476Y55677810D01*
X55212857Y55582572D01*
X55212857Y55392096D01*
X55260476Y55296858D01*
X55308095Y55249239D01*
X55403333Y55201620D01*
X55593809Y55201620D01*
X55689047Y55249239D01*
X55736666Y55296858D01*
X55784285Y55392096D01*
X55784285Y55582572D01*
X55736666Y55677810D01*
X55689047Y55725429D01*
X55593809Y55773048D01*
X50927142Y46311620D02*
X50355714Y46311620D01*
X50641428Y46311620D02*
X50641428Y47311620D01*
X50546190Y47168762D01*
X50450952Y47073524D01*
X50355714Y47025905D01*
X51355714Y46311620D02*
X51355714Y47311620D01*
X51927142Y46311620D01*
X51927142Y47311620D01*
X52831904Y46978286D02*
X52831904Y46311620D01*
X52593809Y47359239D02*
X52355714Y46644953D01*
X52974761Y46644953D01*
X53879523Y46311620D02*
X53308095Y46311620D01*
X53593809Y46311620D02*
X53593809Y47311620D01*
X53498571Y47168762D01*
X53403333Y47073524D01*
X53308095Y47025905D01*
X54736666Y46978286D02*
X54736666Y46311620D01*
X54498571Y47359239D02*
X54260476Y46644953D01*
X54879523Y46644953D01*
X55403333Y46883048D02*
X55308095Y46930667D01*
X55260476Y46978286D01*
X55212857Y47073524D01*
X55212857Y47121143D01*
X55260476Y47216381D01*
X55308095Y47264000D01*
X55403333Y47311620D01*
X55593809Y47311620D01*
X55689047Y47264000D01*
X55736666Y47216381D01*
X55784285Y47121143D01*
X55784285Y47073524D01*
X55736666Y46978286D01*
X55689047Y46930667D01*
X55593809Y46883048D01*
X55403333Y46883048D01*
X55308095Y46835429D01*
X55260476Y46787810D01*
X55212857Y46692572D01*
X55212857Y46502096D01*
X55260476Y46406858D01*
X55308095Y46359239D01*
X55403333Y46311620D01*
X55593809Y46311620D01*
X55689047Y46359239D01*
X55736666Y46406858D01*
X55784285Y46502096D01*
X55784285Y46692572D01*
X55736666Y46787810D01*
X55689047Y46835429D01*
X55593809Y46883048D01*
X95944761Y40792858D02*
X95897142Y40745239D01*
X95754285Y40697620D01*
X95659047Y40697620D01*
X95516190Y40745239D01*
X95420952Y40840477D01*
X95373333Y40935715D01*
X95325714Y41126191D01*
X95325714Y41269048D01*
X95373333Y41459524D01*
X95420952Y41554762D01*
X95516190Y41650000D01*
X95659047Y41697620D01*
X95754285Y41697620D01*
X95897142Y41650000D01*
X95944761Y41602381D01*
X96944761Y40697620D02*
X96611428Y41173810D01*
X96373333Y40697620D02*
X96373333Y41697620D01*
X96754285Y41697620D01*
X96849523Y41650000D01*
X96897142Y41602381D01*
X96944761Y41507143D01*
X96944761Y41364286D01*
X96897142Y41269048D01*
X96849523Y41221429D01*
X96754285Y41173810D01*
X96373333Y41173810D01*
X97325714Y41602381D02*
X97373333Y41650000D01*
X97468571Y41697620D01*
X97706666Y41697620D01*
X97801904Y41650000D01*
X97849523Y41602381D01*
X97897142Y41507143D01*
X97897142Y41411905D01*
X97849523Y41269048D01*
X97278095Y40697620D01*
X97897142Y40697620D01*
X98516190Y41697620D02*
X98611428Y41697620D01*
X98706666Y41650000D01*
X98754285Y41602381D01*
X98801904Y41507143D01*
X98849523Y41316667D01*
X98849523Y41078572D01*
X98801904Y40888096D01*
X98754285Y40792858D01*
X98706666Y40745239D01*
X98611428Y40697620D01*
X98516190Y40697620D01*
X98420952Y40745239D01*
X98373333Y40792858D01*
X98325714Y40888096D01*
X98278095Y41078572D01*
X98278095Y41316667D01*
X98325714Y41507143D01*
X98373333Y41602381D01*
X98420952Y41650000D01*
X98516190Y41697620D01*
X99182857Y41697620D02*
X99801904Y41697620D01*
X99468571Y41316667D01*
X99611428Y41316667D01*
X99706666Y41269048D01*
X99754285Y41221429D01*
X99801904Y41126191D01*
X99801904Y40888096D01*
X99754285Y40792858D01*
X99706666Y40745239D01*
X99611428Y40697620D01*
X99325714Y40697620D01*
X99230476Y40745239D01*
X99182857Y40792858D01*
X100182857Y41602381D02*
X100230476Y41650000D01*
X100325714Y41697620D01*
X100563809Y41697620D01*
X100659047Y41650000D01*
X100706666Y41602381D01*
X100754285Y41507143D01*
X100754285Y41411905D01*
X100706666Y41269048D01*
X100135238Y40697620D01*
X100754285Y40697620D01*
X50157142Y70441620D02*
X50252380Y70441620D01*
X50347619Y70394000D01*
X50395238Y70346381D01*
X50442857Y70251143D01*
X50490476Y70060667D01*
X50490476Y69822572D01*
X50442857Y69632096D01*
X50395238Y69536858D01*
X50347619Y69489239D01*
X50252380Y69441620D01*
X50157142Y69441620D01*
X50061904Y69489239D01*
X50014285Y69536858D01*
X49966666Y69632096D01*
X49919047Y69822572D01*
X49919047Y70060667D01*
X49966666Y70251143D01*
X50014285Y70346381D01*
X50061904Y70394000D01*
X50157142Y70441620D01*
X50919047Y69536858D02*
X50966666Y69489239D01*
X50919047Y69441620D01*
X50871428Y69489239D01*
X50919047Y69536858D01*
X50919047Y69441620D01*
X51919047Y69441620D02*
X51347619Y69441620D01*
X51633333Y69441620D02*
X51633333Y70441620D01*
X51538095Y70298762D01*
X51442857Y70203524D01*
X51347619Y70155905D01*
X52776190Y70108286D02*
X52776190Y69441620D01*
X52347619Y70108286D02*
X52347619Y69584477D01*
X52395238Y69489239D01*
X52490476Y69441620D01*
X52633333Y69441620D01*
X52728571Y69489239D01*
X52776190Y69536858D01*
X53585714Y69965429D02*
X53252380Y69965429D01*
X53252380Y69441620D02*
X53252380Y70441620D01*
X53728571Y70441620D01*
X81907142Y73616620D02*
X82002380Y73616620D01*
X82097619Y73569000D01*
X82145238Y73521381D01*
X82192857Y73426143D01*
X82240476Y73235667D01*
X82240476Y72997572D01*
X82192857Y72807096D01*
X82145238Y72711858D01*
X82097619Y72664239D01*
X82002380Y72616620D01*
X81907142Y72616620D01*
X81811904Y72664239D01*
X81764285Y72711858D01*
X81716666Y72807096D01*
X81669047Y72997572D01*
X81669047Y73235667D01*
X81716666Y73426143D01*
X81764285Y73521381D01*
X81811904Y73569000D01*
X81907142Y73616620D01*
X82669047Y72711858D02*
X82716666Y72664239D01*
X82669047Y72616620D01*
X82621428Y72664239D01*
X82669047Y72711858D01*
X82669047Y72616620D01*
X83669047Y72616620D02*
X83097619Y72616620D01*
X83383333Y72616620D02*
X83383333Y73616620D01*
X83288095Y73473762D01*
X83192857Y73378524D01*
X83097619Y73330905D01*
X84526190Y73283286D02*
X84526190Y72616620D01*
X84097619Y73283286D02*
X84097619Y72759477D01*
X84145238Y72664239D01*
X84240476Y72616620D01*
X84383333Y72616620D01*
X84478571Y72664239D01*
X84526190Y72711858D01*
X85335714Y73140429D02*
X85002380Y73140429D01*
X85002380Y72616620D02*
X85002380Y73616620D01*
X85478571Y73616620D01*
X105402142Y74251620D02*
X105497380Y74251620D01*
X105592619Y74204000D01*
X105640238Y74156381D01*
X105687857Y74061143D01*
X105735476Y73870667D01*
X105735476Y73632572D01*
X105687857Y73442096D01*
X105640238Y73346858D01*
X105592619Y73299239D01*
X105497380Y73251620D01*
X105402142Y73251620D01*
X105306904Y73299239D01*
X105259285Y73346858D01*
X105211666Y73442096D01*
X105164047Y73632572D01*
X105164047Y73870667D01*
X105211666Y74061143D01*
X105259285Y74156381D01*
X105306904Y74204000D01*
X105402142Y74251620D01*
X106164047Y73346858D02*
X106211666Y73299239D01*
X106164047Y73251620D01*
X106116428Y73299239D01*
X106164047Y73346858D01*
X106164047Y73251620D01*
X107164047Y73251620D02*
X106592619Y73251620D01*
X106878333Y73251620D02*
X106878333Y74251620D01*
X106783095Y74108762D01*
X106687857Y74013524D01*
X106592619Y73965905D01*
X108021190Y73918286D02*
X108021190Y73251620D01*
X107592619Y73918286D02*
X107592619Y73394477D01*
X107640238Y73299239D01*
X107735476Y73251620D01*
X107878333Y73251620D01*
X107973571Y73299239D01*
X108021190Y73346858D01*
X108830714Y73775429D02*
X108497380Y73775429D01*
X108497380Y73251620D02*
X108497380Y74251620D01*
X108973571Y74251620D01*
X107942142Y91396620D02*
X108037380Y91396620D01*
X108132619Y91349000D01*
X108180238Y91301381D01*
X108227857Y91206143D01*
X108275476Y91015667D01*
X108275476Y90777572D01*
X108227857Y90587096D01*
X108180238Y90491858D01*
X108132619Y90444239D01*
X108037380Y90396620D01*
X107942142Y90396620D01*
X107846904Y90444239D01*
X107799285Y90491858D01*
X107751666Y90587096D01*
X107704047Y90777572D01*
X107704047Y91015667D01*
X107751666Y91206143D01*
X107799285Y91301381D01*
X107846904Y91349000D01*
X107942142Y91396620D01*
X108704047Y90491858D02*
X108751666Y90444239D01*
X108704047Y90396620D01*
X108656428Y90444239D01*
X108704047Y90491858D01*
X108704047Y90396620D01*
X109704047Y90396620D02*
X109132619Y90396620D01*
X109418333Y90396620D02*
X109418333Y91396620D01*
X109323095Y91253762D01*
X109227857Y91158524D01*
X109132619Y91110905D01*
X110561190Y91063286D02*
X110561190Y90396620D01*
X110132619Y91063286D02*
X110132619Y90539477D01*
X110180238Y90444239D01*
X110275476Y90396620D01*
X110418333Y90396620D01*
X110513571Y90444239D01*
X110561190Y90491858D01*
X111370714Y90920429D02*
X111037380Y90920429D01*
X111037380Y90396620D02*
X111037380Y91396620D01*
X111513571Y91396620D01*
X67937142Y91396620D02*
X68032380Y91396620D01*
X68127619Y91349000D01*
X68175238Y91301381D01*
X68222857Y91206143D01*
X68270476Y91015667D01*
X68270476Y90777572D01*
X68222857Y90587096D01*
X68175238Y90491858D01*
X68127619Y90444239D01*
X68032380Y90396620D01*
X67937142Y90396620D01*
X67841904Y90444239D01*
X67794285Y90491858D01*
X67746666Y90587096D01*
X67699047Y90777572D01*
X67699047Y91015667D01*
X67746666Y91206143D01*
X67794285Y91301381D01*
X67841904Y91349000D01*
X67937142Y91396620D01*
X68699047Y90491858D02*
X68746666Y90444239D01*
X68699047Y90396620D01*
X68651428Y90444239D01*
X68699047Y90491858D01*
X68699047Y90396620D01*
X69699047Y90396620D02*
X69127619Y90396620D01*
X69413333Y90396620D02*
X69413333Y91396620D01*
X69318095Y91253762D01*
X69222857Y91158524D01*
X69127619Y91110905D01*
X70556190Y91063286D02*
X70556190Y90396620D01*
X70127619Y91063286D02*
X70127619Y90539477D01*
X70175238Y90444239D01*
X70270476Y90396620D01*
X70413333Y90396620D01*
X70508571Y90444239D01*
X70556190Y90491858D01*
X71365714Y90920429D02*
X71032380Y90920429D01*
X71032380Y90396620D02*
X71032380Y91396620D01*
X71508571Y91396620D01*
X29837142Y88856620D02*
X29932380Y88856620D01*
X30027619Y88809000D01*
X30075238Y88761381D01*
X30122857Y88666143D01*
X30170476Y88475667D01*
X30170476Y88237572D01*
X30122857Y88047096D01*
X30075238Y87951858D01*
X30027619Y87904239D01*
X29932380Y87856620D01*
X29837142Y87856620D01*
X29741904Y87904239D01*
X29694285Y87951858D01*
X29646666Y88047096D01*
X29599047Y88237572D01*
X29599047Y88475667D01*
X29646666Y88666143D01*
X29694285Y88761381D01*
X29741904Y88809000D01*
X29837142Y88856620D01*
X30599047Y87951858D02*
X30646666Y87904239D01*
X30599047Y87856620D01*
X30551428Y87904239D01*
X30599047Y87951858D01*
X30599047Y87856620D01*
X31599047Y87856620D02*
X31027619Y87856620D01*
X31313333Y87856620D02*
X31313333Y88856620D01*
X31218095Y88713762D01*
X31122857Y88618524D01*
X31027619Y88570905D01*
X32456190Y88523286D02*
X32456190Y87856620D01*
X32027619Y88523286D02*
X32027619Y87999477D01*
X32075238Y87904239D01*
X32170476Y87856620D01*
X32313333Y87856620D01*
X32408571Y87904239D01*
X32456190Y87951858D01*
X33265714Y88380429D02*
X32932380Y88380429D01*
X32932380Y87856620D02*
X32932380Y88856620D01*
X33408571Y88856620D01*
X29837142Y103461620D02*
X29932380Y103461620D01*
X30027619Y103414000D01*
X30075238Y103366381D01*
X30122857Y103271143D01*
X30170476Y103080667D01*
X30170476Y102842572D01*
X30122857Y102652096D01*
X30075238Y102556858D01*
X30027619Y102509239D01*
X29932380Y102461620D01*
X29837142Y102461620D01*
X29741904Y102509239D01*
X29694285Y102556858D01*
X29646666Y102652096D01*
X29599047Y102842572D01*
X29599047Y103080667D01*
X29646666Y103271143D01*
X29694285Y103366381D01*
X29741904Y103414000D01*
X29837142Y103461620D01*
X30599047Y102556858D02*
X30646666Y102509239D01*
X30599047Y102461620D01*
X30551428Y102509239D01*
X30599047Y102556858D01*
X30599047Y102461620D01*
X31599047Y102461620D02*
X31027619Y102461620D01*
X31313333Y102461620D02*
X31313333Y103461620D01*
X31218095Y103318762D01*
X31122857Y103223524D01*
X31027619Y103175905D01*
X32456190Y103128286D02*
X32456190Y102461620D01*
X32027619Y103128286D02*
X32027619Y102604477D01*
X32075238Y102509239D01*
X32170476Y102461620D01*
X32313333Y102461620D01*
X32408571Y102509239D01*
X32456190Y102556858D01*
X33265714Y102985429D02*
X32932380Y102985429D01*
X32932380Y102461620D02*
X32932380Y103461620D01*
X33408571Y103461620D01*
X67937142Y106636620D02*
X68032380Y106636620D01*
X68127619Y106589000D01*
X68175238Y106541381D01*
X68222857Y106446143D01*
X68270476Y106255667D01*
X68270476Y106017572D01*
X68222857Y105827096D01*
X68175238Y105731858D01*
X68127619Y105684239D01*
X68032380Y105636620D01*
X67937142Y105636620D01*
X67841904Y105684239D01*
X67794285Y105731858D01*
X67746666Y105827096D01*
X67699047Y106017572D01*
X67699047Y106255667D01*
X67746666Y106446143D01*
X67794285Y106541381D01*
X67841904Y106589000D01*
X67937142Y106636620D01*
X68699047Y105731858D02*
X68746666Y105684239D01*
X68699047Y105636620D01*
X68651428Y105684239D01*
X68699047Y105731858D01*
X68699047Y105636620D01*
X69699047Y105636620D02*
X69127619Y105636620D01*
X69413333Y105636620D02*
X69413333Y106636620D01*
X69318095Y106493762D01*
X69222857Y106398524D01*
X69127619Y106350905D01*
X70556190Y106303286D02*
X70556190Y105636620D01*
X70127619Y106303286D02*
X70127619Y105779477D01*
X70175238Y105684239D01*
X70270476Y105636620D01*
X70413333Y105636620D01*
X70508571Y105684239D01*
X70556190Y105731858D01*
X71365714Y106160429D02*
X71032380Y106160429D01*
X71032380Y105636620D02*
X71032380Y106636620D01*
X71508571Y106636620D01*
X107942142Y106636620D02*
X108037380Y106636620D01*
X108132619Y106589000D01*
X108180238Y106541381D01*
X108227857Y106446143D01*
X108275476Y106255667D01*
X108275476Y106017572D01*
X108227857Y105827096D01*
X108180238Y105731858D01*
X108132619Y105684239D01*
X108037380Y105636620D01*
X107942142Y105636620D01*
X107846904Y105684239D01*
X107799285Y105731858D01*
X107751666Y105827096D01*
X107704047Y106017572D01*
X107704047Y106255667D01*
X107751666Y106446143D01*
X107799285Y106541381D01*
X107846904Y106589000D01*
X107942142Y106636620D01*
X108704047Y105731858D02*
X108751666Y105684239D01*
X108704047Y105636620D01*
X108656428Y105684239D01*
X108704047Y105731858D01*
X108704047Y105636620D01*
X109704047Y105636620D02*
X109132619Y105636620D01*
X109418333Y105636620D02*
X109418333Y106636620D01*
X109323095Y106493762D01*
X109227857Y106398524D01*
X109132619Y106350905D01*
X110561190Y106303286D02*
X110561190Y105636620D01*
X110132619Y106303286D02*
X110132619Y105779477D01*
X110180238Y105684239D01*
X110275476Y105636620D01*
X110418333Y105636620D01*
X110513571Y105684239D01*
X110561190Y105731858D01*
X111370714Y106160429D02*
X111037380Y106160429D01*
X111037380Y105636620D02*
X111037380Y106636620D01*
X111513571Y106636620D01*
X104767142Y122511620D02*
X104862380Y122511620D01*
X104957619Y122464000D01*
X105005238Y122416381D01*
X105052857Y122321143D01*
X105100476Y122130667D01*
X105100476Y121892572D01*
X105052857Y121702096D01*
X105005238Y121606858D01*
X104957619Y121559239D01*
X104862380Y121511620D01*
X104767142Y121511620D01*
X104671904Y121559239D01*
X104624285Y121606858D01*
X104576666Y121702096D01*
X104529047Y121892572D01*
X104529047Y122130667D01*
X104576666Y122321143D01*
X104624285Y122416381D01*
X104671904Y122464000D01*
X104767142Y122511620D01*
X105529047Y121606858D02*
X105576666Y121559239D01*
X105529047Y121511620D01*
X105481428Y121559239D01*
X105529047Y121606858D01*
X105529047Y121511620D01*
X106529047Y121511620D02*
X105957619Y121511620D01*
X106243333Y121511620D02*
X106243333Y122511620D01*
X106148095Y122368762D01*
X106052857Y122273524D01*
X105957619Y122225905D01*
X107386190Y122178286D02*
X107386190Y121511620D01*
X106957619Y122178286D02*
X106957619Y121654477D01*
X107005238Y121559239D01*
X107100476Y121511620D01*
X107243333Y121511620D01*
X107338571Y121559239D01*
X107386190Y121606858D01*
X108195714Y122035429D02*
X107862380Y122035429D01*
X107862380Y121511620D02*
X107862380Y122511620D01*
X108338571Y122511620D01*
X67937142Y122511620D02*
X68032380Y122511620D01*
X68127619Y122464000D01*
X68175238Y122416381D01*
X68222857Y122321143D01*
X68270476Y122130667D01*
X68270476Y121892572D01*
X68222857Y121702096D01*
X68175238Y121606858D01*
X68127619Y121559239D01*
X68032380Y121511620D01*
X67937142Y121511620D01*
X67841904Y121559239D01*
X67794285Y121606858D01*
X67746666Y121702096D01*
X67699047Y121892572D01*
X67699047Y122130667D01*
X67746666Y122321143D01*
X67794285Y122416381D01*
X67841904Y122464000D01*
X67937142Y122511620D01*
X68699047Y121606858D02*
X68746666Y121559239D01*
X68699047Y121511620D01*
X68651428Y121559239D01*
X68699047Y121606858D01*
X68699047Y121511620D01*
X69699047Y121511620D02*
X69127619Y121511620D01*
X69413333Y121511620D02*
X69413333Y122511620D01*
X69318095Y122368762D01*
X69222857Y122273524D01*
X69127619Y122225905D01*
X70556190Y122178286D02*
X70556190Y121511620D01*
X70127619Y122178286D02*
X70127619Y121654477D01*
X70175238Y121559239D01*
X70270476Y121511620D01*
X70413333Y121511620D01*
X70508571Y121559239D01*
X70556190Y121606858D01*
X71365714Y122035429D02*
X71032380Y122035429D01*
X71032380Y121511620D02*
X71032380Y122511620D01*
X71508571Y122511620D01*
X34917142Y119336620D02*
X35012380Y119336620D01*
X35107619Y119289000D01*
X35155238Y119241381D01*
X35202857Y119146143D01*
X35250476Y118955667D01*
X35250476Y118717572D01*
X35202857Y118527096D01*
X35155238Y118431858D01*
X35107619Y118384239D01*
X35012380Y118336620D01*
X34917142Y118336620D01*
X34821904Y118384239D01*
X34774285Y118431858D01*
X34726666Y118527096D01*
X34679047Y118717572D01*
X34679047Y118955667D01*
X34726666Y119146143D01*
X34774285Y119241381D01*
X34821904Y119289000D01*
X34917142Y119336620D01*
X35679047Y118431858D02*
X35726666Y118384239D01*
X35679047Y118336620D01*
X35631428Y118384239D01*
X35679047Y118431858D01*
X35679047Y118336620D01*
X36679047Y118336620D02*
X36107619Y118336620D01*
X36393333Y118336620D02*
X36393333Y119336620D01*
X36298095Y119193762D01*
X36202857Y119098524D01*
X36107619Y119050905D01*
X37536190Y119003286D02*
X37536190Y118336620D01*
X37107619Y119003286D02*
X37107619Y118479477D01*
X37155238Y118384239D01*
X37250476Y118336620D01*
X37393333Y118336620D01*
X37488571Y118384239D01*
X37536190Y118431858D01*
X38345714Y118860429D02*
X38012380Y118860429D01*
X38012380Y118336620D02*
X38012380Y119336620D01*
X38488571Y119336620D01*
X76827142Y139021620D02*
X76922380Y139021620D01*
X77017619Y138974000D01*
X77065238Y138926381D01*
X77112857Y138831143D01*
X77160476Y138640667D01*
X77160476Y138402572D01*
X77112857Y138212096D01*
X77065238Y138116858D01*
X77017619Y138069239D01*
X76922380Y138021620D01*
X76827142Y138021620D01*
X76731904Y138069239D01*
X76684285Y138116858D01*
X76636666Y138212096D01*
X76589047Y138402572D01*
X76589047Y138640667D01*
X76636666Y138831143D01*
X76684285Y138926381D01*
X76731904Y138974000D01*
X76827142Y139021620D01*
X77589047Y138116858D02*
X77636666Y138069239D01*
X77589047Y138021620D01*
X77541428Y138069239D01*
X77589047Y138116858D01*
X77589047Y138021620D01*
X78589047Y138021620D02*
X78017619Y138021620D01*
X78303333Y138021620D02*
X78303333Y139021620D01*
X78208095Y138878762D01*
X78112857Y138783524D01*
X78017619Y138735905D01*
X79446190Y138688286D02*
X79446190Y138021620D01*
X79017619Y138688286D02*
X79017619Y138164477D01*
X79065238Y138069239D01*
X79160476Y138021620D01*
X79303333Y138021620D01*
X79398571Y138069239D01*
X79446190Y138116858D01*
X80255714Y138545429D02*
X79922380Y138545429D01*
X79922380Y138021620D02*
X79922380Y139021620D01*
X80398571Y139021620D01*
X52062142Y139021620D02*
X52157380Y139021620D01*
X52252619Y138974000D01*
X52300238Y138926381D01*
X52347857Y138831143D01*
X52395476Y138640667D01*
X52395476Y138402572D01*
X52347857Y138212096D01*
X52300238Y138116858D01*
X52252619Y138069239D01*
X52157380Y138021620D01*
X52062142Y138021620D01*
X51966904Y138069239D01*
X51919285Y138116858D01*
X51871666Y138212096D01*
X51824047Y138402572D01*
X51824047Y138640667D01*
X51871666Y138831143D01*
X51919285Y138926381D01*
X51966904Y138974000D01*
X52062142Y139021620D01*
X52824047Y138116858D02*
X52871666Y138069239D01*
X52824047Y138021620D01*
X52776428Y138069239D01*
X52824047Y138116858D01*
X52824047Y138021620D01*
X53824047Y138021620D02*
X53252619Y138021620D01*
X53538333Y138021620D02*
X53538333Y139021620D01*
X53443095Y138878762D01*
X53347857Y138783524D01*
X53252619Y138735905D01*
X54681190Y138688286D02*
X54681190Y138021620D01*
X54252619Y138688286D02*
X54252619Y138164477D01*
X54300238Y138069239D01*
X54395476Y138021620D01*
X54538333Y138021620D01*
X54633571Y138069239D01*
X54681190Y138116858D01*
X55490714Y138545429D02*
X55157380Y138545429D01*
X55157380Y138021620D02*
X55157380Y139021620D01*
X55633571Y139021620D01*
X25487380Y148181620D02*
X24915952Y148181620D01*
X25201666Y148181620D02*
X25201666Y149181620D01*
X25106428Y149038762D01*
X25011190Y148943524D01*
X24915952Y148895905D01*
X26106428Y149181620D02*
X26201666Y149181620D01*
X26296904Y149134000D01*
X26344523Y149086381D01*
X26392142Y148991143D01*
X26439761Y148800667D01*
X26439761Y148562572D01*
X26392142Y148372096D01*
X26344523Y148276858D01*
X26296904Y148229239D01*
X26201666Y148181620D01*
X26106428Y148181620D01*
X26011190Y148229239D01*
X25963571Y148276858D01*
X25915952Y148372096D01*
X25868333Y148562572D01*
X25868333Y148800667D01*
X25915952Y148991143D01*
X25963571Y149086381D01*
X26011190Y149134000D01*
X26106428Y149181620D01*
X27058809Y149181620D02*
X27154047Y149181620D01*
X27249285Y149134000D01*
X27296904Y149086381D01*
X27344523Y148991143D01*
X27392142Y148800667D01*
X27392142Y148562572D01*
X27344523Y148372096D01*
X27296904Y148276858D01*
X27249285Y148229239D01*
X27154047Y148181620D01*
X27058809Y148181620D01*
X26963571Y148229239D01*
X26915952Y148276858D01*
X26868333Y148372096D01*
X26820714Y148562572D01*
X26820714Y148800667D01*
X26868333Y148991143D01*
X26915952Y149086381D01*
X26963571Y149134000D01*
X27058809Y149181620D01*
X28249285Y148848286D02*
X28249285Y148181620D01*
X27820714Y148848286D02*
X27820714Y148324477D01*
X27868333Y148229239D01*
X27963571Y148181620D01*
X28106428Y148181620D01*
X28201666Y148229239D01*
X28249285Y148276858D01*
X29058809Y148705429D02*
X28725476Y148705429D01*
X28725476Y148181620D02*
X28725476Y149181620D01*
X29201666Y149181620D01*
X27297142Y139021620D02*
X27392380Y139021620D01*
X27487619Y138974000D01*
X27535238Y138926381D01*
X27582857Y138831143D01*
X27630476Y138640667D01*
X27630476Y138402572D01*
X27582857Y138212096D01*
X27535238Y138116858D01*
X27487619Y138069239D01*
X27392380Y138021620D01*
X27297142Y138021620D01*
X27201904Y138069239D01*
X27154285Y138116858D01*
X27106666Y138212096D01*
X27059047Y138402572D01*
X27059047Y138640667D01*
X27106666Y138831143D01*
X27154285Y138926381D01*
X27201904Y138974000D01*
X27297142Y139021620D01*
X28059047Y138116858D02*
X28106666Y138069239D01*
X28059047Y138021620D01*
X28011428Y138069239D01*
X28059047Y138116858D01*
X28059047Y138021620D01*
X29059047Y138021620D02*
X28487619Y138021620D01*
X28773333Y138021620D02*
X28773333Y139021620D01*
X28678095Y138878762D01*
X28582857Y138783524D01*
X28487619Y138735905D01*
X29916190Y138688286D02*
X29916190Y138021620D01*
X29487619Y138688286D02*
X29487619Y138164477D01*
X29535238Y138069239D01*
X29630476Y138021620D01*
X29773333Y138021620D01*
X29868571Y138069239D01*
X29916190Y138116858D01*
X30725714Y138545429D02*
X30392380Y138545429D01*
X30392380Y138021620D02*
X30392380Y139021620D01*
X30868571Y139021620D01*
D12*
G36*
X84500000Y24500000D02*
G01*
X83230000Y27040000D01*
X85770000Y27040000D01*
X84500000Y24500000D01*
G37*
X84500000Y24500000D02*
X83230000Y27040000D01*
X85770000Y27040000D01*
X84500000Y24500000D01*
D13*
X4524285Y40316429D02*
X4524285Y41316429D01*
X6619523Y41745000D02*
X6619523Y40316429D01*
X2619523Y40316429D01*
X2619523Y41745000D01*
X6619523Y43030715D02*
X2619523Y43030715D01*
X5476666Y44030715D01*
X2619523Y45030715D01*
X6619523Y45030715D01*
X6619523Y46459286D02*
X2619523Y46459286D01*
X5476666Y47459286D01*
X2619523Y48459286D01*
X6619523Y48459286D01*
X6619523Y54602143D02*
X6619523Y54459286D01*
X6429047Y54173572D01*
X5857619Y53745000D01*
X4714761Y53030715D01*
X4143333Y52745000D01*
X3571904Y52602143D01*
X3190952Y52602143D01*
X2810000Y52745000D01*
X2619523Y53030715D01*
X2619523Y53173572D01*
X2810000Y53459286D01*
X3190952Y53602143D01*
X3381428Y53602143D01*
X3762380Y53459286D01*
X3952857Y53316429D01*
X4714761Y52459286D01*
X4905238Y52316429D01*
X5286190Y52173572D01*
X5857619Y52173572D01*
X6238571Y52316429D01*
X6429047Y52459286D01*
X6619523Y52745000D01*
X6619523Y53173572D01*
X6429047Y53459286D01*
X6238571Y53602143D01*
X5476666Y54030715D01*
X4905238Y54173572D01*
X4524285Y54173572D01*
X6238571Y59887858D02*
X6429047Y59745000D01*
X6619523Y59316429D01*
X6619523Y59030715D01*
X6429047Y58602143D01*
X6048095Y58316429D01*
X5667142Y58173572D01*
X4905238Y58030715D01*
X4333809Y58030715D01*
X3571904Y58173572D01*
X3190952Y58316429D01*
X2810000Y58602143D01*
X2619523Y59030715D01*
X2619523Y59316429D01*
X2810000Y59745000D01*
X3000476Y59887858D01*
X6619523Y61173572D02*
X2619523Y61173572D01*
X5476666Y62173572D01*
X2619523Y63173572D01*
X6619523Y63173572D01*
X2619523Y64602143D02*
X5857619Y64602143D01*
X6238571Y64745000D01*
X6429047Y64887858D01*
X6619523Y65173572D01*
X6619523Y65745000D01*
X6429047Y66030715D01*
X6238571Y66173572D01*
X5857619Y66316429D01*
X2619523Y66316429D01*
X5095714Y67745000D02*
X5095714Y70030715D01*
X4333809Y71887858D02*
X4143333Y71602143D01*
X3952857Y71459286D01*
X3571904Y71316429D01*
X3381428Y71316429D01*
X3000476Y71459286D01*
X2810000Y71602143D01*
X2619523Y71887858D01*
X2619523Y72459286D01*
X2810000Y72745000D01*
X3000476Y72887858D01*
X3381428Y73030715D01*
X3571904Y73030715D01*
X3952857Y72887858D01*
X4143333Y72745000D01*
X4333809Y72459286D01*
X4333809Y71887858D01*
X4524285Y71602143D01*
X4714761Y71459286D01*
X5095714Y71316429D01*
X5857619Y71316429D01*
X6238571Y71459286D01*
X6429047Y71602143D01*
X6619523Y71887858D01*
X6619523Y72459286D01*
X6429047Y72745000D01*
X6238571Y72887858D01*
X5857619Y73030715D01*
X5095714Y73030715D01*
X4714761Y72887858D01*
X4524285Y72745000D01*
X4333809Y72459286D01*
X2619523Y74887858D02*
X2619523Y75173572D01*
X2810000Y75459286D01*
X3000476Y75602143D01*
X3381428Y75745000D01*
X4143333Y75887858D01*
X5095714Y75887858D01*
X5857619Y75745000D01*
X6238571Y75602143D01*
X6429047Y75459286D01*
X6619523Y75173572D01*
X6619523Y74887858D01*
X6429047Y74602143D01*
X6238571Y74459286D01*
X5857619Y74316429D01*
X5095714Y74173572D01*
X4143333Y74173572D01*
X3381428Y74316429D01*
X3000476Y74459286D01*
X2810000Y74602143D01*
X2619523Y74887858D01*
X2619523Y77745000D02*
X2619523Y78030715D01*
X2810000Y78316429D01*
X3000476Y78459286D01*
X3381428Y78602143D01*
X4143333Y78745000D01*
X5095714Y78745000D01*
X5857619Y78602143D01*
X6238571Y78459286D01*
X6429047Y78316429D01*
X6619523Y78030715D01*
X6619523Y77745000D01*
X6429047Y77459286D01*
X6238571Y77316429D01*
X5857619Y77173572D01*
X5095714Y77030715D01*
X4143333Y77030715D01*
X3381428Y77173572D01*
X3000476Y77316429D01*
X2810000Y77459286D01*
X2619523Y77745000D01*
X3952857Y81887858D02*
X3952857Y83030715D01*
X6619523Y82316429D02*
X3190952Y82316429D01*
X2810000Y82459286D01*
X2619523Y82745000D01*
X2619523Y83030715D01*
X6619523Y84459286D02*
X6429047Y84173572D01*
X6238571Y84030715D01*
X5857619Y83887858D01*
X4714761Y83887858D01*
X4333809Y84030715D01*
X4143333Y84173572D01*
X3952857Y84459286D01*
X3952857Y84887858D01*
X4143333Y85173572D01*
X4333809Y85316429D01*
X4714761Y85459286D01*
X5857619Y85459286D01*
X6238571Y85316429D01*
X6429047Y85173572D01*
X6619523Y84887858D01*
X6619523Y84459286D01*
X6619523Y86745000D02*
X3952857Y86745000D01*
X4714761Y86745000D02*
X4333809Y86887858D01*
X4143333Y87030715D01*
X3952857Y87316429D01*
X3952857Y87602143D01*
X6619523Y90887858D02*
X2619523Y90887858D01*
X5476666Y91887858D01*
X2619523Y92887858D01*
X6619523Y92887858D01*
X2619523Y94030715D02*
X2619523Y96030715D01*
X6619523Y94030715D01*
X6619523Y96030715D01*
X5095714Y97173572D02*
X5095714Y99459286D01*
X3000476Y100745000D02*
X2810000Y100887858D01*
X2619523Y101173572D01*
X2619523Y101887858D01*
X2810000Y102173572D01*
X3000476Y102316429D01*
X3381428Y102459286D01*
X3762380Y102459286D01*
X4333809Y102316429D01*
X6619523Y100602143D01*
X6619523Y102459286D01*
X2619523Y104316429D02*
X2619523Y104602143D01*
X2810000Y104887858D01*
X3000476Y105030715D01*
X3381428Y105173572D01*
X4143333Y105316429D01*
X5095714Y105316429D01*
X5857619Y105173572D01*
X6238571Y105030715D01*
X6429047Y104887858D01*
X6619523Y104602143D01*
X6619523Y104316429D01*
X6429047Y104030715D01*
X6238571Y103887858D01*
X5857619Y103745000D01*
X5095714Y103602143D01*
X4143333Y103602143D01*
X3381428Y103745000D01*
X3000476Y103887858D01*
X2810000Y104030715D01*
X2619523Y104316429D01*
X2619523Y107173572D02*
X2619523Y107459286D01*
X2810000Y107745000D01*
X3000476Y107887858D01*
X3381428Y108030715D01*
X4143333Y108173572D01*
X5095714Y108173572D01*
X5857619Y108030715D01*
X6238571Y107887858D01*
X6429047Y107745000D01*
X6619523Y107459286D01*
X6619523Y107173572D01*
X6429047Y106887858D01*
X6238571Y106745000D01*
X5857619Y106602143D01*
X5095714Y106459286D01*
X4143333Y106459286D01*
X3381428Y106602143D01*
X3000476Y106745000D01*
X2810000Y106887858D01*
X2619523Y107173572D01*
X2619523Y110030715D02*
X2619523Y110316429D01*
X2810000Y110602143D01*
X3000476Y110745000D01*
X3381428Y110887858D01*
X4143333Y111030715D01*
X5095714Y111030715D01*
X5857619Y110887858D01*
X6238571Y110745000D01*
X6429047Y110602143D01*
X6619523Y110316429D01*
X6619523Y110030715D01*
X6429047Y109745000D01*
X6238571Y109602143D01*
X5857619Y109459286D01*
X5095714Y109316429D01*
X4143333Y109316429D01*
X3381428Y109459286D01*
X3000476Y109602143D01*
X2810000Y109745000D01*
X2619523Y110030715D01*
X6619523Y116316429D02*
X4714761Y115316429D01*
X6619523Y114602143D02*
X2619523Y114602143D01*
X2619523Y115745000D01*
X2810000Y116030715D01*
X3000476Y116173572D01*
X3381428Y116316429D01*
X3952857Y116316429D01*
X4333809Y116173572D01*
X4524285Y116030715D01*
X4714761Y115745000D01*
X4714761Y114602143D01*
X6429047Y118745000D02*
X6619523Y118459286D01*
X6619523Y117887858D01*
X6429047Y117602143D01*
X6048095Y117459286D01*
X4524285Y117459286D01*
X4143333Y117602143D01*
X3952857Y117887858D01*
X3952857Y118459286D01*
X4143333Y118745000D01*
X4524285Y118887858D01*
X4905238Y118887858D01*
X5286190Y117459286D01*
X3952857Y119887858D02*
X6619523Y120602143D01*
X3952857Y121316429D01*
X6619523Y124030715D02*
X6619523Y122316429D01*
X6619523Y123173572D02*
X2619523Y123173572D01*
X3190952Y122887858D01*
X3571904Y122602143D01*
X3762380Y122316429D01*
X6238571Y125316429D02*
X6429047Y125459286D01*
X6619523Y125316429D01*
X6429047Y125173572D01*
X6238571Y125316429D01*
X6619523Y125316429D01*
X2619523Y128173572D02*
X2619523Y126745000D01*
X4524285Y126602143D01*
X4333809Y126745000D01*
X4143333Y127030715D01*
X4143333Y127745000D01*
X4333809Y128030715D01*
X4524285Y128173572D01*
X4905238Y128316429D01*
X5857619Y128316429D01*
X6238571Y128173572D01*
X6429047Y128030715D01*
X6619523Y127745000D01*
X6619523Y127030715D01*
X6429047Y126745000D01*
X6238571Y126602143D01*
D14*
X76465000Y139890000D02*
X76465000Y144130000D01*
X79205000Y139890000D02*
X79205000Y144130000D01*
X76465000Y139890000D02*
X77170000Y139890000D01*
X78500000Y139890000D02*
X79205000Y139890000D01*
X76465000Y144130000D02*
X77170000Y144130000D01*
X78500000Y144130000D02*
X79205000Y144130000D01*
X36590000Y124445000D02*
X37295000Y124445000D01*
X34555000Y124445000D02*
X35260000Y124445000D01*
X36590000Y120205000D02*
X37295000Y120205000D01*
X34555000Y120205000D02*
X35260000Y120205000D01*
X37295000Y120205000D02*
X37295000Y124445000D01*
X34555000Y120205000D02*
X34555000Y124445000D01*
X67575000Y123380000D02*
X67575000Y127620000D01*
X70315000Y123380000D02*
X70315000Y127620000D01*
X67575000Y123380000D02*
X68280000Y123380000D01*
X69610000Y123380000D02*
X70315000Y123380000D01*
X67575000Y127620000D02*
X68280000Y127620000D01*
X69610000Y127620000D02*
X70315000Y127620000D01*
X29475000Y104330000D02*
X29475000Y108570000D01*
X32215000Y104330000D02*
X32215000Y108570000D01*
X29475000Y104330000D02*
X30180000Y104330000D01*
X31510000Y104330000D02*
X32215000Y104330000D01*
X29475000Y108570000D02*
X30180000Y108570000D01*
X31510000Y108570000D02*
X32215000Y108570000D01*
X69610000Y111745000D02*
X70315000Y111745000D01*
X67575000Y111745000D02*
X68280000Y111745000D01*
X69610000Y107505000D02*
X70315000Y107505000D01*
X67575000Y107505000D02*
X68280000Y107505000D01*
X70315000Y107505000D02*
X70315000Y111745000D01*
X67575000Y107505000D02*
X67575000Y111745000D01*
X29475000Y89725000D02*
X29475000Y93965000D01*
X32215000Y89725000D02*
X32215000Y93965000D01*
X29475000Y89725000D02*
X30180000Y89725000D01*
X31510000Y89725000D02*
X32215000Y89725000D01*
X29475000Y93965000D02*
X30180000Y93965000D01*
X31510000Y93965000D02*
X32215000Y93965000D01*
X69610000Y96505000D02*
X70315000Y96505000D01*
X67575000Y96505000D02*
X68280000Y96505000D01*
X69610000Y92265000D02*
X70315000Y92265000D01*
X67575000Y92265000D02*
X68280000Y92265000D01*
X70315000Y92265000D02*
X70315000Y96505000D01*
X67575000Y92265000D02*
X67575000Y96505000D01*
X50430000Y71310000D02*
X50430000Y75550000D01*
X53170000Y71310000D02*
X53170000Y75550000D01*
X50430000Y71310000D02*
X51135000Y71310000D01*
X52465000Y71310000D02*
X53170000Y71310000D01*
X50430000Y75550000D02*
X51135000Y75550000D01*
X52465000Y75550000D02*
X53170000Y75550000D01*
X83580000Y79360000D02*
X84285000Y79360000D01*
X81545000Y79360000D02*
X82250000Y79360000D01*
X83580000Y75120000D02*
X84285000Y75120000D01*
X81545000Y75120000D02*
X82250000Y75120000D01*
X84285000Y75120000D02*
X84285000Y79360000D01*
X81545000Y75120000D02*
X81545000Y79360000D01*
X9060000Y134440000D02*
X9060000Y135145000D01*
X9060000Y132405000D02*
X9060000Y133110000D01*
X13300000Y134440000D02*
X13300000Y135145000D01*
X13300000Y132405000D02*
X13300000Y133110000D01*
X13300000Y135145000D02*
X9060000Y135145000D01*
X13300000Y132405000D02*
X9060000Y132405000D01*
X30607500Y152591000D02*
G75*
G03*
X30607500Y152591000I-2620000J0D01*
G01*
X30567500Y152591000D02*
X25407500Y152591000D01*
X30567500Y152551000D02*
X25407500Y152551000D01*
X30566500Y152511000D02*
X25408500Y152511000D01*
X30565500Y152471000D02*
X25409500Y152471000D01*
X30563500Y152431000D02*
X25411500Y152431000D01*
X30560500Y152391000D02*
X25414500Y152391000D01*
X30556500Y152351000D02*
X29027500Y152351000D01*
X26947500Y152351000D02*
X25418500Y152351000D01*
X30552500Y152311000D02*
X29027500Y152311000D01*
X26947500Y152311000D02*
X25422500Y152311000D01*
X30548500Y152271000D02*
X29027500Y152271000D01*
X26947500Y152271000D02*
X25426500Y152271000D01*
X30543500Y152231000D02*
X29027500Y152231000D01*
X26947500Y152231000D02*
X25431500Y152231000D01*
X30537500Y152191000D02*
X29027500Y152191000D01*
X26947500Y152191000D02*
X25437500Y152191000D01*
X30530500Y152151000D02*
X29027500Y152151000D01*
X26947500Y152151000D02*
X25444500Y152151000D01*
X30523500Y152111000D02*
X29027500Y152111000D01*
X26947500Y152111000D02*
X25451500Y152111000D01*
X30515500Y152071000D02*
X29027500Y152071000D01*
X26947500Y152071000D02*
X25459500Y152071000D01*
X30507500Y152031000D02*
X29027500Y152031000D01*
X26947500Y152031000D02*
X25467500Y152031000D01*
X30498500Y151991000D02*
X29027500Y151991000D01*
X26947500Y151991000D02*
X25476500Y151991000D01*
X30488500Y151951000D02*
X29027500Y151951000D01*
X26947500Y151951000D02*
X25486500Y151951000D01*
X30478500Y151911000D02*
X29027500Y151911000D01*
X26947500Y151911000D02*
X25496500Y151911000D01*
X30467500Y151870000D02*
X29027500Y151870000D01*
X26947500Y151870000D02*
X25507500Y151870000D01*
X30455500Y151830000D02*
X29027500Y151830000D01*
X26947500Y151830000D02*
X25519500Y151830000D01*
X30442500Y151790000D02*
X29027500Y151790000D01*
X26947500Y151790000D02*
X25532500Y151790000D01*
X30429500Y151750000D02*
X29027500Y151750000D01*
X26947500Y151750000D02*
X25545500Y151750000D01*
X30415500Y151710000D02*
X29027500Y151710000D01*
X26947500Y151710000D02*
X25559500Y151710000D01*
X30401500Y151670000D02*
X29027500Y151670000D01*
X26947500Y151670000D02*
X25573500Y151670000D01*
X30385500Y151630000D02*
X29027500Y151630000D01*
X26947500Y151630000D02*
X25589500Y151630000D01*
X30369500Y151590000D02*
X29027500Y151590000D01*
X26947500Y151590000D02*
X25605500Y151590000D01*
X30352500Y151550000D02*
X29027500Y151550000D01*
X26947500Y151550000D02*
X25622500Y151550000D01*
X30335500Y151510000D02*
X29027500Y151510000D01*
X26947500Y151510000D02*
X25639500Y151510000D01*
X30316500Y151470000D02*
X29027500Y151470000D01*
X26947500Y151470000D02*
X25658500Y151470000D01*
X30297500Y151430000D02*
X29027500Y151430000D01*
X26947500Y151430000D02*
X25677500Y151430000D01*
X30277500Y151390000D02*
X29027500Y151390000D01*
X26947500Y151390000D02*
X25697500Y151390000D01*
X30255500Y151350000D02*
X29027500Y151350000D01*
X26947500Y151350000D02*
X25719500Y151350000D01*
X30234500Y151310000D02*
X29027500Y151310000D01*
X26947500Y151310000D02*
X25740500Y151310000D01*
X30211500Y151270000D02*
X29027500Y151270000D01*
X26947500Y151270000D02*
X25763500Y151270000D01*
X30187500Y151230000D02*
X29027500Y151230000D01*
X26947500Y151230000D02*
X25787500Y151230000D01*
X30162500Y151190000D02*
X29027500Y151190000D01*
X26947500Y151190000D02*
X25812500Y151190000D01*
X30136500Y151150000D02*
X29027500Y151150000D01*
X26947500Y151150000D02*
X25838500Y151150000D01*
X30109500Y151110000D02*
X29027500Y151110000D01*
X26947500Y151110000D02*
X25865500Y151110000D01*
X30082500Y151070000D02*
X29027500Y151070000D01*
X26947500Y151070000D02*
X25892500Y151070000D01*
X30052500Y151030000D02*
X29027500Y151030000D01*
X26947500Y151030000D02*
X25922500Y151030000D01*
X30022500Y150990000D02*
X29027500Y150990000D01*
X26947500Y150990000D02*
X25952500Y150990000D01*
X29991500Y150950000D02*
X29027500Y150950000D01*
X26947500Y150950000D02*
X25983500Y150950000D01*
X29958500Y150910000D02*
X29027500Y150910000D01*
X26947500Y150910000D02*
X26016500Y150910000D01*
X29924500Y150870000D02*
X29027500Y150870000D01*
X26947500Y150870000D02*
X26050500Y150870000D01*
X29888500Y150830000D02*
X29027500Y150830000D01*
X26947500Y150830000D02*
X26086500Y150830000D01*
X29851500Y150790000D02*
X29027500Y150790000D01*
X26947500Y150790000D02*
X26123500Y150790000D01*
X29813500Y150750000D02*
X29027500Y150750000D01*
X26947500Y150750000D02*
X26161500Y150750000D01*
X29772500Y150710000D02*
X29027500Y150710000D01*
X26947500Y150710000D02*
X26202500Y150710000D01*
X29730500Y150670000D02*
X29027500Y150670000D01*
X26947500Y150670000D02*
X26244500Y150670000D01*
X29686500Y150630000D02*
X29027500Y150630000D01*
X26947500Y150630000D02*
X26288500Y150630000D01*
X29640500Y150590000D02*
X29027500Y150590000D01*
X26947500Y150590000D02*
X26334500Y150590000D01*
X29592500Y150550000D02*
X29027500Y150550000D01*
X26947500Y150550000D02*
X26382500Y150550000D01*
X29541500Y150510000D02*
X29027500Y150510000D01*
X26947500Y150510000D02*
X26433500Y150510000D01*
X29487500Y150470000D02*
X29027500Y150470000D01*
X26947500Y150470000D02*
X26487500Y150470000D01*
X29430500Y150430000D02*
X29027500Y150430000D01*
X26947500Y150430000D02*
X26544500Y150430000D01*
X29370500Y150390000D02*
X29027500Y150390000D01*
X26947500Y150390000D02*
X26604500Y150390000D01*
X29306500Y150350000D02*
X29027500Y150350000D01*
X26947500Y150350000D02*
X26668500Y150350000D01*
X29238500Y150310000D02*
X29027500Y150310000D01*
X26947500Y150310000D02*
X26736500Y150310000D01*
X29165500Y150270000D02*
X26809500Y150270000D01*
X29085500Y150230000D02*
X26889500Y150230000D01*
X28998500Y150190000D02*
X26976500Y150190000D01*
X28902500Y150150000D02*
X27072500Y150150000D01*
X28792500Y150110000D02*
X27182500Y150110000D01*
X28664500Y150070000D02*
X27310500Y150070000D01*
X28505500Y150030000D02*
X27469500Y150030000D01*
X28271500Y149990000D02*
X27703500Y149990000D01*
X29462500Y155395775D02*
X29462500Y154895775D01*
X29712500Y155145775D02*
X29212500Y155145775D01*
X51130000Y50520000D02*
X51130000Y47580000D01*
X51370000Y50520000D02*
X51370000Y47580000D01*
X51250000Y50520000D02*
X51250000Y47580000D01*
X56810000Y49050000D02*
X55790000Y49050000D01*
X49330000Y49050000D02*
X50350000Y49050000D01*
X55790000Y50520000D02*
X50350000Y50520000D01*
X55790000Y47580000D02*
X55790000Y50520000D01*
X50350000Y47580000D02*
X55790000Y47580000D01*
X50350000Y50520000D02*
X50350000Y47580000D01*
X50350000Y59410000D02*
X50350000Y56470000D01*
X50350000Y56470000D02*
X55790000Y56470000D01*
X55790000Y56470000D02*
X55790000Y59410000D01*
X55790000Y59410000D02*
X50350000Y59410000D01*
X49330000Y57940000D02*
X50350000Y57940000D01*
X56810000Y57940000D02*
X55790000Y57940000D01*
X51250000Y59410000D02*
X51250000Y56470000D01*
X51370000Y59410000D02*
X51370000Y56470000D01*
X51130000Y59410000D02*
X51130000Y56470000D01*
X24590000Y132735000D02*
X24590000Y132405000D01*
X24590000Y132405000D02*
X18050000Y132405000D01*
X18050000Y132405000D02*
X18050000Y132735000D01*
X24590000Y134815000D02*
X24590000Y135145000D01*
X24590000Y135145000D02*
X18050000Y135145000D01*
X18050000Y135145000D02*
X18050000Y134815000D01*
X26460000Y143030000D02*
X26460000Y144280000D01*
X26460000Y144280000D02*
X8560000Y144280000D01*
X8560000Y144280000D02*
X8560000Y139780000D01*
X8560000Y139780000D02*
X26460000Y139780000D01*
X26460000Y139780000D02*
X26460000Y141030000D01*
X26460000Y141030000D02*
G75*
G02*
X26460000Y143030000I0J1000000D01*
G01*
X34080000Y120095000D02*
X34080000Y121345000D01*
X8560000Y120095000D02*
X34080000Y120095000D01*
X8560000Y124595000D02*
X8560000Y120095000D01*
X34080000Y124595000D02*
X8560000Y124595000D01*
X34080000Y123345000D02*
X34080000Y124595000D01*
X34080000Y121345000D02*
G75*
G02*
X34080000Y123345000I0J1000000D01*
G01*
X67100000Y126520000D02*
X67100000Y127770000D01*
X67100000Y127770000D02*
X46660000Y127770000D01*
X46660000Y127770000D02*
X46660000Y123270000D01*
X46660000Y123270000D02*
X67100000Y123270000D01*
X67100000Y123270000D02*
X67100000Y124520000D01*
X67100000Y124520000D02*
G75*
G02*
X67100000Y126520000I0J1000000D01*
G01*
X29000000Y104220000D02*
X29000000Y105470000D01*
X8560000Y104220000D02*
X29000000Y104220000D01*
X8560000Y108720000D02*
X8560000Y104220000D01*
X29000000Y108720000D02*
X8560000Y108720000D01*
X29000000Y107470000D02*
X29000000Y108720000D01*
X29000000Y105470000D02*
G75*
G02*
X29000000Y107470000I0J1000000D01*
G01*
X67100000Y110645000D02*
X67100000Y111895000D01*
X67100000Y111895000D02*
X46660000Y111895000D01*
X46660000Y111895000D02*
X46660000Y107395000D01*
X46660000Y107395000D02*
X67100000Y107395000D01*
X67100000Y107395000D02*
X67100000Y108645000D01*
X67100000Y108645000D02*
G75*
G02*
X67100000Y110645000I0J1000000D01*
G01*
X29000000Y92865000D02*
X29000000Y94115000D01*
X29000000Y94115000D02*
X8560000Y94115000D01*
X8560000Y94115000D02*
X8560000Y89615000D01*
X8560000Y89615000D02*
X29000000Y89615000D01*
X29000000Y89615000D02*
X29000000Y90865000D01*
X29000000Y90865000D02*
G75*
G02*
X29000000Y92865000I0J1000000D01*
G01*
X67100000Y92155000D02*
X67100000Y93405000D01*
X46660000Y92155000D02*
X67100000Y92155000D01*
X46660000Y96655000D02*
X46660000Y92155000D01*
X67100000Y96655000D02*
X46660000Y96655000D01*
X67100000Y95405000D02*
X67100000Y96655000D01*
X67100000Y93405000D02*
G75*
G02*
X67100000Y95405000I0J1000000D01*
G01*
X49320000Y74450000D02*
X49320000Y79510000D01*
X49320000Y79510000D02*
X8560000Y79510000D01*
X8560000Y79510000D02*
X8560000Y67390000D01*
X8560000Y67390000D02*
X49320000Y67390000D01*
X49320000Y67390000D02*
X49320000Y72450000D01*
X49320000Y72450000D02*
G75*
G02*
X49320000Y74450000I0J1000000D01*
G01*
X81070000Y78260000D02*
X81070000Y79510000D01*
X81070000Y79510000D02*
X55550000Y79510000D01*
X55550000Y79510000D02*
X55550000Y75010000D01*
X55550000Y75010000D02*
X81070000Y75010000D01*
X81070000Y75010000D02*
X81070000Y76260000D01*
X81070000Y76260000D02*
G75*
G02*
X81070000Y78260000I0J1000000D01*
G01*
X68785000Y55150000D02*
X74485000Y55150000D01*
X68785000Y49150000D02*
X68785000Y55150000D01*
X68785000Y49150000D02*
X74485000Y49150000D01*
X97680671Y52195281D02*
G75*
G02*
X75235000Y48650000I-11495671J-45281D01*
G01*
X75236754Y48623616D02*
G75*
G03*
X74485000Y49150000I-751754J-273616D01*
G01*
X97680671Y52104719D02*
G75*
G03*
X75235000Y55650000I-11495671J45281D01*
G01*
X75236754Y55676384D02*
G75*
G02*
X74485000Y55150000I-751754J273616D01*
G01*
X53735000Y144130000D02*
X54440000Y144130000D01*
X51700000Y144130000D02*
X52405000Y144130000D01*
X53735000Y139890000D02*
X54440000Y139890000D01*
X51700000Y139890000D02*
X52405000Y139890000D01*
X54440000Y139890000D02*
X54440000Y144130000D01*
X51700000Y139890000D02*
X51700000Y144130000D01*
X26935000Y139890000D02*
X26935000Y144130000D01*
X29675000Y139890000D02*
X29675000Y144130000D01*
X26935000Y139890000D02*
X27640000Y139890000D01*
X28970000Y139890000D02*
X29675000Y139890000D01*
X26935000Y144130000D02*
X27640000Y144130000D01*
X28970000Y144130000D02*
X29675000Y144130000D01*
X106440000Y127620000D02*
X107145000Y127620000D01*
X104405000Y127620000D02*
X105110000Y127620000D01*
X106440000Y123380000D02*
X107145000Y123380000D01*
X104405000Y123380000D02*
X105110000Y123380000D01*
X107145000Y123380000D02*
X107145000Y127620000D01*
X104405000Y123380000D02*
X104405000Y127620000D01*
X109615000Y111745000D02*
X110320000Y111745000D01*
X107580000Y111745000D02*
X108285000Y111745000D01*
X109615000Y107505000D02*
X110320000Y107505000D01*
X107580000Y107505000D02*
X108285000Y107505000D01*
X110320000Y107505000D02*
X110320000Y111745000D01*
X107580000Y107505000D02*
X107580000Y111745000D01*
X107580000Y92265000D02*
X107580000Y96505000D01*
X110320000Y92265000D02*
X110320000Y96505000D01*
X107580000Y92265000D02*
X108285000Y92265000D01*
X109615000Y92265000D02*
X110320000Y92265000D01*
X107580000Y96505000D02*
X108285000Y96505000D01*
X109615000Y96505000D02*
X110320000Y96505000D01*
X105040000Y75120000D02*
X105040000Y79360000D01*
X107780000Y75120000D02*
X107780000Y79360000D01*
X105040000Y75120000D02*
X105745000Y75120000D01*
X107075000Y75120000D02*
X107780000Y75120000D01*
X105040000Y79360000D02*
X105745000Y79360000D01*
X107075000Y79360000D02*
X107780000Y79360000D01*
X85776000Y138160000D02*
X88436000Y138160000D01*
X85776000Y143300000D02*
X85776000Y138160000D01*
X88436000Y143300000D02*
X88436000Y138160000D01*
X85776000Y143300000D02*
X88436000Y143300000D01*
X85776000Y144570000D02*
X85776000Y145900000D01*
X85776000Y145900000D02*
X87106000Y145900000D01*
X89586000Y145900000D02*
X90916000Y145900000D01*
X89586000Y144570000D02*
X89586000Y145900000D01*
X89586000Y143300000D02*
X92246000Y143300000D01*
X92246000Y143300000D02*
X92246000Y138160000D01*
X89586000Y143300000D02*
X89586000Y138160000D01*
X89586000Y138160000D02*
X92246000Y138160000D01*
X103930000Y126520000D02*
X103930000Y127770000D01*
X103930000Y127770000D02*
X86030000Y127770000D01*
X86030000Y127770000D02*
X86030000Y123270000D01*
X86030000Y123270000D02*
X103930000Y123270000D01*
X103930000Y123270000D02*
X103930000Y124520000D01*
X103930000Y124520000D02*
G75*
G02*
X103930000Y126520000I0J1000000D01*
G01*
X107105000Y107395000D02*
X107105000Y108645000D01*
X86665000Y107395000D02*
X107105000Y107395000D01*
X86665000Y111895000D02*
X86665000Y107395000D01*
X107105000Y111895000D02*
X86665000Y111895000D01*
X107105000Y110645000D02*
X107105000Y111895000D01*
X107105000Y108645000D02*
G75*
G02*
X107105000Y110645000I0J1000000D01*
G01*
X107105000Y95405000D02*
X107105000Y96655000D01*
X107105000Y96655000D02*
X86665000Y96655000D01*
X86665000Y96655000D02*
X86665000Y92155000D01*
X86665000Y92155000D02*
X107105000Y92155000D01*
X107105000Y92155000D02*
X107105000Y93405000D01*
X107105000Y93405000D02*
G75*
G02*
X107105000Y95405000I0J1000000D01*
G01*
X104565000Y75010000D02*
X104565000Y76260000D01*
X86665000Y75010000D02*
X104565000Y75010000D01*
X86665000Y79510000D02*
X86665000Y75010000D01*
X104565000Y79510000D02*
X86665000Y79510000D01*
X104565000Y78260000D02*
X104565000Y79510000D01*
X104565000Y76260000D02*
G75*
G02*
X104565000Y78260000I0J1000000D01*
G01*
X75990000Y139780000D02*
X75990000Y141030000D01*
X58090000Y139780000D02*
X75990000Y139780000D01*
X58090000Y144280000D02*
X58090000Y139780000D01*
X75990000Y144280000D02*
X58090000Y144280000D01*
X75990000Y143030000D02*
X75990000Y144280000D01*
X75990000Y141030000D02*
G75*
G02*
X75990000Y143030000I0J1000000D01*
G01*
X57430000Y33165000D02*
X57430000Y35825000D01*
X52290000Y33165000D02*
X57430000Y33165000D01*
X52290000Y35825000D02*
X57430000Y35825000D01*
X52290000Y33165000D02*
X52290000Y35825000D01*
X51020000Y33165000D02*
X49690000Y33165000D01*
X49690000Y33165000D02*
X49690000Y34495000D01*
X14964000Y50220000D02*
X18564000Y50220000D01*
X14925522Y50231522D02*
G75*
G02*
X16764000Y54670000I1838478J1838478D01*
G01*
X18602478Y50231522D02*
G75*
G03*
X16764000Y54670000I-1838478J1838478D01*
G01*
X29686000Y50700000D02*
X29686000Y51030000D01*
X23146000Y50700000D02*
X29686000Y50700000D01*
X23146000Y51030000D02*
X23146000Y50700000D01*
X29686000Y53440000D02*
X29686000Y53110000D01*
X23146000Y53440000D02*
X29686000Y53440000D01*
X23146000Y53110000D02*
X23146000Y53440000D01*
X41878000Y51030000D02*
X41878000Y50700000D01*
X41878000Y50700000D02*
X35338000Y50700000D01*
X35338000Y50700000D02*
X35338000Y51030000D01*
X41878000Y53110000D02*
X41878000Y53440000D01*
X41878000Y53440000D02*
X35338000Y53440000D01*
X35338000Y53440000D02*
X35338000Y53110000D01*
X51114000Y142986000D02*
X51114000Y144236000D01*
X51114000Y144236000D02*
X33214000Y144236000D01*
X33214000Y144236000D02*
X33214000Y139736000D01*
X33214000Y139736000D02*
X51114000Y139736000D01*
X51114000Y139736000D02*
X51114000Y140986000D01*
X51114000Y140986000D02*
G75*
G02*
X51114000Y142986000I0J1000000D01*
G01*
D10*
X77668333Y144847858D02*
X77620714Y144800239D01*
X77477857Y144752620D01*
X77382619Y144752620D01*
X77239761Y144800239D01*
X77144523Y144895477D01*
X77096904Y144990715D01*
X77049285Y145181191D01*
X77049285Y145324048D01*
X77096904Y145514524D01*
X77144523Y145609762D01*
X77239761Y145705000D01*
X77382619Y145752620D01*
X77477857Y145752620D01*
X77620714Y145705000D01*
X77668333Y145657381D01*
X78620714Y144752620D02*
X78049285Y144752620D01*
X78335000Y144752620D02*
X78335000Y145752620D01*
X78239761Y145609762D01*
X78144523Y145514524D01*
X78049285Y145466905D01*
X35833333Y125142858D02*
X35785714Y125095239D01*
X35642857Y125047620D01*
X35547619Y125047620D01*
X35404761Y125095239D01*
X35309523Y125190477D01*
X35261904Y125285715D01*
X35214285Y125476191D01*
X35214285Y125619048D01*
X35261904Y125809524D01*
X35309523Y125904762D01*
X35404761Y126000000D01*
X35547619Y126047620D01*
X35642857Y126047620D01*
X35785714Y126000000D01*
X35833333Y125952381D01*
X36690476Y125714286D02*
X36690476Y125047620D01*
X36452380Y126095239D02*
X36214285Y125380953D01*
X36833333Y125380953D01*
X68778333Y128337858D02*
X68730714Y128290239D01*
X68587857Y128242620D01*
X68492619Y128242620D01*
X68349761Y128290239D01*
X68254523Y128385477D01*
X68206904Y128480715D01*
X68159285Y128671191D01*
X68159285Y128814048D01*
X68206904Y129004524D01*
X68254523Y129099762D01*
X68349761Y129195000D01*
X68492619Y129242620D01*
X68587857Y129242620D01*
X68730714Y129195000D01*
X68778333Y129147381D01*
X69635476Y129242620D02*
X69445000Y129242620D01*
X69349761Y129195000D01*
X69302142Y129147381D01*
X69206904Y129004524D01*
X69159285Y128814048D01*
X69159285Y128433096D01*
X69206904Y128337858D01*
X69254523Y128290239D01*
X69349761Y128242620D01*
X69540238Y128242620D01*
X69635476Y128290239D01*
X69683095Y128337858D01*
X69730714Y128433096D01*
X69730714Y128671191D01*
X69683095Y128766429D01*
X69635476Y128814048D01*
X69540238Y128861667D01*
X69349761Y128861667D01*
X69254523Y128814048D01*
X69206904Y128766429D01*
X69159285Y128671191D01*
X30678333Y109287858D02*
X30630714Y109240239D01*
X30487857Y109192620D01*
X30392619Y109192620D01*
X30249761Y109240239D01*
X30154523Y109335477D01*
X30106904Y109430715D01*
X30059285Y109621191D01*
X30059285Y109764048D01*
X30106904Y109954524D01*
X30154523Y110049762D01*
X30249761Y110145000D01*
X30392619Y110192620D01*
X30487857Y110192620D01*
X30630714Y110145000D01*
X30678333Y110097381D01*
X31011666Y110192620D02*
X31678333Y110192620D01*
X31249761Y109192620D01*
X68778333Y112462858D02*
X68730714Y112415239D01*
X68587857Y112367620D01*
X68492619Y112367620D01*
X68349761Y112415239D01*
X68254523Y112510477D01*
X68206904Y112605715D01*
X68159285Y112796191D01*
X68159285Y112939048D01*
X68206904Y113129524D01*
X68254523Y113224762D01*
X68349761Y113320000D01*
X68492619Y113367620D01*
X68587857Y113367620D01*
X68730714Y113320000D01*
X68778333Y113272381D01*
X69349761Y112939048D02*
X69254523Y112986667D01*
X69206904Y113034286D01*
X69159285Y113129524D01*
X69159285Y113177143D01*
X69206904Y113272381D01*
X69254523Y113320000D01*
X69349761Y113367620D01*
X69540238Y113367620D01*
X69635476Y113320000D01*
X69683095Y113272381D01*
X69730714Y113177143D01*
X69730714Y113129524D01*
X69683095Y113034286D01*
X69635476Y112986667D01*
X69540238Y112939048D01*
X69349761Y112939048D01*
X69254523Y112891429D01*
X69206904Y112843810D01*
X69159285Y112748572D01*
X69159285Y112558096D01*
X69206904Y112462858D01*
X69254523Y112415239D01*
X69349761Y112367620D01*
X69540238Y112367620D01*
X69635476Y112415239D01*
X69683095Y112462858D01*
X69730714Y112558096D01*
X69730714Y112748572D01*
X69683095Y112843810D01*
X69635476Y112891429D01*
X69540238Y112939048D01*
X30678333Y94682858D02*
X30630714Y94635239D01*
X30487857Y94587620D01*
X30392619Y94587620D01*
X30249761Y94635239D01*
X30154523Y94730477D01*
X30106904Y94825715D01*
X30059285Y95016191D01*
X30059285Y95159048D01*
X30106904Y95349524D01*
X30154523Y95444762D01*
X30249761Y95540000D01*
X30392619Y95587620D01*
X30487857Y95587620D01*
X30630714Y95540000D01*
X30678333Y95492381D01*
X31154523Y94587620D02*
X31345000Y94587620D01*
X31440238Y94635239D01*
X31487857Y94682858D01*
X31583095Y94825715D01*
X31630714Y95016191D01*
X31630714Y95397143D01*
X31583095Y95492381D01*
X31535476Y95540000D01*
X31440238Y95587620D01*
X31249761Y95587620D01*
X31154523Y95540000D01*
X31106904Y95492381D01*
X31059285Y95397143D01*
X31059285Y95159048D01*
X31106904Y95063810D01*
X31154523Y95016191D01*
X31249761Y94968572D01*
X31440238Y94968572D01*
X31535476Y95016191D01*
X31583095Y95063810D01*
X31630714Y95159048D01*
X68302142Y97222858D02*
X68254523Y97175239D01*
X68111666Y97127620D01*
X68016428Y97127620D01*
X67873571Y97175239D01*
X67778333Y97270477D01*
X67730714Y97365715D01*
X67683095Y97556191D01*
X67683095Y97699048D01*
X67730714Y97889524D01*
X67778333Y97984762D01*
X67873571Y98080000D01*
X68016428Y98127620D01*
X68111666Y98127620D01*
X68254523Y98080000D01*
X68302142Y98032381D01*
X69254523Y97127620D02*
X68683095Y97127620D01*
X68968809Y97127620D02*
X68968809Y98127620D01*
X68873571Y97984762D01*
X68778333Y97889524D01*
X68683095Y97841905D01*
X69873571Y98127620D02*
X69968809Y98127620D01*
X70064047Y98080000D01*
X70111666Y98032381D01*
X70159285Y97937143D01*
X70206904Y97746667D01*
X70206904Y97508572D01*
X70159285Y97318096D01*
X70111666Y97222858D01*
X70064047Y97175239D01*
X69968809Y97127620D01*
X69873571Y97127620D01*
X69778333Y97175239D01*
X69730714Y97222858D01*
X69683095Y97318096D01*
X69635476Y97508572D01*
X69635476Y97746667D01*
X69683095Y97937143D01*
X69730714Y98032381D01*
X69778333Y98080000D01*
X69873571Y98127620D01*
X51157142Y76267858D02*
X51109523Y76220239D01*
X50966666Y76172620D01*
X50871428Y76172620D01*
X50728571Y76220239D01*
X50633333Y76315477D01*
X50585714Y76410715D01*
X50538095Y76601191D01*
X50538095Y76744048D01*
X50585714Y76934524D01*
X50633333Y77029762D01*
X50728571Y77125000D01*
X50871428Y77172620D01*
X50966666Y77172620D01*
X51109523Y77125000D01*
X51157142Y77077381D01*
X52109523Y76172620D02*
X51538095Y76172620D01*
X51823809Y76172620D02*
X51823809Y77172620D01*
X51728571Y77029762D01*
X51633333Y76934524D01*
X51538095Y76886905D01*
X52442857Y77172620D02*
X53061904Y77172620D01*
X52728571Y76791667D01*
X52871428Y76791667D01*
X52966666Y76744048D01*
X53014285Y76696429D01*
X53061904Y76601191D01*
X53061904Y76363096D01*
X53014285Y76267858D01*
X52966666Y76220239D01*
X52871428Y76172620D01*
X52585714Y76172620D01*
X52490476Y76220239D01*
X52442857Y76267858D01*
X82272142Y80077858D02*
X82224523Y80030239D01*
X82081666Y79982620D01*
X81986428Y79982620D01*
X81843571Y80030239D01*
X81748333Y80125477D01*
X81700714Y80220715D01*
X81653095Y80411191D01*
X81653095Y80554048D01*
X81700714Y80744524D01*
X81748333Y80839762D01*
X81843571Y80935000D01*
X81986428Y80982620D01*
X82081666Y80982620D01*
X82224523Y80935000D01*
X82272142Y80887381D01*
X83224523Y79982620D02*
X82653095Y79982620D01*
X82938809Y79982620D02*
X82938809Y80982620D01*
X82843571Y80839762D01*
X82748333Y80744524D01*
X82653095Y80696905D01*
X84129285Y80982620D02*
X83653095Y80982620D01*
X83605476Y80506429D01*
X83653095Y80554048D01*
X83748333Y80601667D01*
X83986428Y80601667D01*
X84081666Y80554048D01*
X84129285Y80506429D01*
X84176904Y80411191D01*
X84176904Y80173096D01*
X84129285Y80077858D01*
X84081666Y80030239D01*
X83986428Y79982620D01*
X83748333Y79982620D01*
X83653095Y80030239D01*
X83605476Y80077858D01*
X10517142Y135642858D02*
X10469523Y135595239D01*
X10326666Y135547620D01*
X10231428Y135547620D01*
X10088571Y135595239D01*
X9993333Y135690477D01*
X9945714Y135785715D01*
X9898095Y135976191D01*
X9898095Y136119048D01*
X9945714Y136309524D01*
X9993333Y136404762D01*
X10088571Y136500000D01*
X10231428Y136547620D01*
X10326666Y136547620D01*
X10469523Y136500000D01*
X10517142Y136452381D01*
X11469523Y135547620D02*
X10898095Y135547620D01*
X11183809Y135547620D02*
X11183809Y136547620D01*
X11088571Y136404762D01*
X10993333Y136309524D01*
X10898095Y136261905D01*
X12326666Y136547620D02*
X12136190Y136547620D01*
X12040952Y136500000D01*
X11993333Y136452381D01*
X11898095Y136309524D01*
X11850476Y136119048D01*
X11850476Y135738096D01*
X11898095Y135642858D01*
X11945714Y135595239D01*
X12040952Y135547620D01*
X12231428Y135547620D01*
X12326666Y135595239D01*
X12374285Y135642858D01*
X12421904Y135738096D01*
X12421904Y135976191D01*
X12374285Y136071429D01*
X12326666Y136119048D01*
X12231428Y136166667D01*
X12040952Y136166667D01*
X11945714Y136119048D01*
X11898095Y136071429D01*
X11850476Y135976191D01*
X27027142Y155642858D02*
X26979523Y155595239D01*
X26836666Y155547620D01*
X26741428Y155547620D01*
X26598571Y155595239D01*
X26503333Y155690477D01*
X26455714Y155785715D01*
X26408095Y155976191D01*
X26408095Y156119048D01*
X26455714Y156309524D01*
X26503333Y156404762D01*
X26598571Y156500000D01*
X26741428Y156547620D01*
X26836666Y156547620D01*
X26979523Y156500000D01*
X27027142Y156452381D01*
X27979523Y155547620D02*
X27408095Y155547620D01*
X27693809Y155547620D02*
X27693809Y156547620D01*
X27598571Y156404762D01*
X27503333Y156309524D01*
X27408095Y156261905D01*
X28312857Y156547620D02*
X28979523Y156547620D01*
X28550952Y155547620D01*
X52331904Y51067620D02*
X52331904Y52067620D01*
X52570000Y52067620D01*
X52712857Y52020000D01*
X52808095Y51924762D01*
X52855714Y51829524D01*
X52903333Y51639048D01*
X52903333Y51496191D01*
X52855714Y51305715D01*
X52808095Y51210477D01*
X52712857Y51115239D01*
X52570000Y51067620D01*
X52331904Y51067620D01*
X53855714Y51067620D02*
X53284285Y51067620D01*
X53570000Y51067620D02*
X53570000Y52067620D01*
X53474761Y51924762D01*
X53379523Y51829524D01*
X53284285Y51781905D01*
X47728095Y50697620D02*
X47728095Y51697620D01*
X48299523Y50697620D02*
X47870952Y51269048D01*
X48299523Y51697620D02*
X47728095Y51126191D01*
X52331904Y59957620D02*
X52331904Y60957620D01*
X52570000Y60957620D01*
X52712857Y60910000D01*
X52808095Y60814762D01*
X52855714Y60719524D01*
X52903333Y60529048D01*
X52903333Y60386191D01*
X52855714Y60195715D01*
X52808095Y60100477D01*
X52712857Y60005239D01*
X52570000Y59957620D01*
X52331904Y59957620D01*
X53284285Y60862381D02*
X53331904Y60910000D01*
X53427142Y60957620D01*
X53665238Y60957620D01*
X53760476Y60910000D01*
X53808095Y60862381D01*
X53855714Y60767143D01*
X53855714Y60671905D01*
X53808095Y60529048D01*
X53236666Y59957620D01*
X53855714Y59957620D01*
X47728095Y59587620D02*
X47728095Y60587620D01*
X48299523Y59587620D02*
X47870952Y60159048D01*
X48299523Y60587620D02*
X47728095Y60016191D01*
X21333333Y135547620D02*
X21000000Y136023810D01*
X20761904Y135547620D02*
X20761904Y136547620D01*
X21142857Y136547620D01*
X21238095Y136500000D01*
X21285714Y136452381D01*
X21333333Y136357143D01*
X21333333Y136214286D01*
X21285714Y136119048D01*
X21238095Y136071429D01*
X21142857Y136023810D01*
X20761904Y136023810D01*
X22285714Y135547620D02*
X21714285Y135547620D01*
X22000000Y135547620D02*
X22000000Y136547620D01*
X21904761Y136404762D01*
X21809523Y136309524D01*
X21714285Y136261905D01*
X13573095Y148927620D02*
X13573095Y148118096D01*
X13620714Y148022858D01*
X13668333Y147975239D01*
X13763571Y147927620D01*
X13954047Y147927620D01*
X14049285Y147975239D01*
X14096904Y148022858D01*
X14144523Y148118096D01*
X14144523Y148927620D01*
X14525476Y148927620D02*
X15144523Y148927620D01*
X14811190Y148546667D01*
X14954047Y148546667D01*
X15049285Y148499048D01*
X15096904Y148451429D01*
X15144523Y148356191D01*
X15144523Y148118096D01*
X15096904Y148022858D01*
X15049285Y147975239D01*
X14954047Y147927620D01*
X14668333Y147927620D01*
X14573095Y147975239D01*
X14525476Y148022858D01*
X16113095Y129242620D02*
X16113095Y128433096D01*
X16160714Y128337858D01*
X16208333Y128290239D01*
X16303571Y128242620D01*
X16494047Y128242620D01*
X16589285Y128290239D01*
X16636904Y128337858D01*
X16684523Y128433096D01*
X16684523Y129242620D01*
X17589285Y128909286D02*
X17589285Y128242620D01*
X17351190Y129290239D02*
X17113095Y128575953D01*
X17732142Y128575953D01*
X52308095Y132417620D02*
X52308095Y131608096D01*
X52355714Y131512858D01*
X52403333Y131465239D01*
X52498571Y131417620D01*
X52689047Y131417620D01*
X52784285Y131465239D01*
X52831904Y131512858D01*
X52879523Y131608096D01*
X52879523Y132417620D01*
X53784285Y132417620D02*
X53593809Y132417620D01*
X53498571Y132370000D01*
X53450952Y132322381D01*
X53355714Y132179524D01*
X53308095Y131989048D01*
X53308095Y131608096D01*
X53355714Y131512858D01*
X53403333Y131465239D01*
X53498571Y131417620D01*
X53689047Y131417620D01*
X53784285Y131465239D01*
X53831904Y131512858D01*
X53879523Y131608096D01*
X53879523Y131846191D01*
X53831904Y131941429D01*
X53784285Y131989048D01*
X53689047Y132036667D01*
X53498571Y132036667D01*
X53403333Y131989048D01*
X53355714Y131941429D01*
X53308095Y131846191D01*
X14208095Y113367620D02*
X14208095Y112558096D01*
X14255714Y112462858D01*
X14303333Y112415239D01*
X14398571Y112367620D01*
X14589047Y112367620D01*
X14684285Y112415239D01*
X14731904Y112462858D01*
X14779523Y112558096D01*
X14779523Y113367620D01*
X15160476Y113367620D02*
X15827142Y113367620D01*
X15398571Y112367620D01*
X51673095Y116542620D02*
X51673095Y115733096D01*
X51720714Y115637858D01*
X51768333Y115590239D01*
X51863571Y115542620D01*
X52054047Y115542620D01*
X52149285Y115590239D01*
X52196904Y115637858D01*
X52244523Y115733096D01*
X52244523Y116542620D01*
X52863571Y116114048D02*
X52768333Y116161667D01*
X52720714Y116209286D01*
X52673095Y116304524D01*
X52673095Y116352143D01*
X52720714Y116447381D01*
X52768333Y116495000D01*
X52863571Y116542620D01*
X53054047Y116542620D01*
X53149285Y116495000D01*
X53196904Y116447381D01*
X53244523Y116352143D01*
X53244523Y116304524D01*
X53196904Y116209286D01*
X53149285Y116161667D01*
X53054047Y116114048D01*
X52863571Y116114048D01*
X52768333Y116066429D01*
X52720714Y116018810D01*
X52673095Y115923572D01*
X52673095Y115733096D01*
X52720714Y115637858D01*
X52768333Y115590239D01*
X52863571Y115542620D01*
X53054047Y115542620D01*
X53149285Y115590239D01*
X53196904Y115637858D01*
X53244523Y115733096D01*
X53244523Y115923572D01*
X53196904Y116018810D01*
X53149285Y116066429D01*
X53054047Y116114048D01*
X14208095Y98762620D02*
X14208095Y97953096D01*
X14255714Y97857858D01*
X14303333Y97810239D01*
X14398571Y97762620D01*
X14589047Y97762620D01*
X14684285Y97810239D01*
X14731904Y97857858D01*
X14779523Y97953096D01*
X14779523Y98762620D01*
X15303333Y97762620D02*
X15493809Y97762620D01*
X15589047Y97810239D01*
X15636666Y97857858D01*
X15731904Y98000715D01*
X15779523Y98191191D01*
X15779523Y98572143D01*
X15731904Y98667381D01*
X15684285Y98715000D01*
X15589047Y98762620D01*
X15398571Y98762620D01*
X15303333Y98715000D01*
X15255714Y98667381D01*
X15208095Y98572143D01*
X15208095Y98334048D01*
X15255714Y98238810D01*
X15303333Y98191191D01*
X15398571Y98143572D01*
X15589047Y98143572D01*
X15684285Y98191191D01*
X15731904Y98238810D01*
X15779523Y98334048D01*
X51831904Y101302620D02*
X51831904Y100493096D01*
X51879523Y100397858D01*
X51927142Y100350239D01*
X52022380Y100302620D01*
X52212857Y100302620D01*
X52308095Y100350239D01*
X52355714Y100397858D01*
X52403333Y100493096D01*
X52403333Y101302620D01*
X53403333Y100302620D02*
X52831904Y100302620D01*
X53117619Y100302620D02*
X53117619Y101302620D01*
X53022380Y101159762D01*
X52927142Y101064524D01*
X52831904Y101016905D01*
X54022380Y101302620D02*
X54117619Y101302620D01*
X54212857Y101255000D01*
X54260476Y101207381D01*
X54308095Y101112143D01*
X54355714Y100921667D01*
X54355714Y100683572D01*
X54308095Y100493096D01*
X54260476Y100397858D01*
X54212857Y100350239D01*
X54117619Y100302620D01*
X54022380Y100302620D01*
X53927142Y100350239D01*
X53879523Y100397858D01*
X53831904Y100493096D01*
X53784285Y100683572D01*
X53784285Y100921667D01*
X53831904Y101112143D01*
X53879523Y101207381D01*
X53927142Y101255000D01*
X54022380Y101302620D01*
X17541904Y84157620D02*
X17541904Y83348096D01*
X17589523Y83252858D01*
X17637142Y83205239D01*
X17732380Y83157620D01*
X17922857Y83157620D01*
X18018095Y83205239D01*
X18065714Y83252858D01*
X18113333Y83348096D01*
X18113333Y84157620D01*
X19113333Y83157620D02*
X18541904Y83157620D01*
X18827619Y83157620D02*
X18827619Y84157620D01*
X18732380Y84014762D01*
X18637142Y83919524D01*
X18541904Y83871905D01*
X19446666Y84157620D02*
X20065714Y84157620D01*
X19732380Y83776667D01*
X19875238Y83776667D01*
X19970476Y83729048D01*
X20018095Y83681429D01*
X20065714Y83586191D01*
X20065714Y83348096D01*
X20018095Y83252858D01*
X19970476Y83205239D01*
X19875238Y83157620D01*
X19589523Y83157620D01*
X19494285Y83205239D01*
X19446666Y83252858D01*
X61991904Y84157620D02*
X61991904Y83348096D01*
X62039523Y83252858D01*
X62087142Y83205239D01*
X62182380Y83157620D01*
X62372857Y83157620D01*
X62468095Y83205239D01*
X62515714Y83252858D01*
X62563333Y83348096D01*
X62563333Y84157620D01*
X63563333Y83157620D02*
X62991904Y83157620D01*
X63277619Y83157620D02*
X63277619Y84157620D01*
X63182380Y84014762D01*
X63087142Y83919524D01*
X62991904Y83871905D01*
X64468095Y84157620D02*
X63991904Y84157620D01*
X63944285Y83681429D01*
X63991904Y83729048D01*
X64087142Y83776667D01*
X64325238Y83776667D01*
X64420476Y83729048D01*
X64468095Y83681429D01*
X64515714Y83586191D01*
X64515714Y83348096D01*
X64468095Y83252858D01*
X64420476Y83205239D01*
X64325238Y83157620D01*
X64087142Y83157620D01*
X63991904Y83205239D01*
X63944285Y83252858D01*
X70199285Y56521429D02*
X70342142Y56473810D01*
X70389761Y56426191D01*
X70437380Y56330953D01*
X70437380Y56188096D01*
X70389761Y56092858D01*
X70342142Y56045239D01*
X70246904Y55997620D01*
X69865952Y55997620D01*
X69865952Y56997620D01*
X70199285Y56997620D01*
X70294523Y56950000D01*
X70342142Y56902381D01*
X70389761Y56807143D01*
X70389761Y56711905D01*
X70342142Y56616667D01*
X70294523Y56569048D01*
X70199285Y56521429D01*
X69865952Y56521429D01*
X70723095Y56997620D02*
X71294523Y56997620D01*
X71008809Y55997620D02*
X71008809Y56997620D01*
X72151666Y55997620D02*
X71580238Y55997620D01*
X71865952Y55997620D02*
X71865952Y56997620D01*
X71770714Y56854762D01*
X71675476Y56759524D01*
X71580238Y56711905D01*
X73163571Y52042858D02*
X74306428Y52042858D01*
X73735000Y51471429D02*
X73735000Y52614286D01*
X52903333Y145142858D02*
X52855714Y145095239D01*
X52712857Y145047620D01*
X52617619Y145047620D01*
X52474761Y145095239D01*
X52379523Y145190477D01*
X52331904Y145285715D01*
X52284285Y145476191D01*
X52284285Y145619048D01*
X52331904Y145809524D01*
X52379523Y145904762D01*
X52474761Y146000000D01*
X52617619Y146047620D01*
X52712857Y146047620D01*
X52855714Y146000000D01*
X52903333Y145952381D01*
X53284285Y145952381D02*
X53331904Y146000000D01*
X53427142Y146047620D01*
X53665238Y146047620D01*
X53760476Y146000000D01*
X53808095Y145952381D01*
X53855714Y145857143D01*
X53855714Y145761905D01*
X53808095Y145619048D01*
X53236666Y145047620D01*
X53855714Y145047620D01*
X28138333Y144847858D02*
X28090714Y144800239D01*
X27947857Y144752620D01*
X27852619Y144752620D01*
X27709761Y144800239D01*
X27614523Y144895477D01*
X27566904Y144990715D01*
X27519285Y145181191D01*
X27519285Y145324048D01*
X27566904Y145514524D01*
X27614523Y145609762D01*
X27709761Y145705000D01*
X27852619Y145752620D01*
X27947857Y145752620D01*
X28090714Y145705000D01*
X28138333Y145657381D01*
X28471666Y145752620D02*
X29090714Y145752620D01*
X28757380Y145371667D01*
X28900238Y145371667D01*
X28995476Y145324048D01*
X29043095Y145276429D01*
X29090714Y145181191D01*
X29090714Y144943096D01*
X29043095Y144847858D01*
X28995476Y144800239D01*
X28900238Y144752620D01*
X28614523Y144752620D01*
X28519285Y144800239D01*
X28471666Y144847858D01*
X105608333Y128337858D02*
X105560714Y128290239D01*
X105417857Y128242620D01*
X105322619Y128242620D01*
X105179761Y128290239D01*
X105084523Y128385477D01*
X105036904Y128480715D01*
X104989285Y128671191D01*
X104989285Y128814048D01*
X105036904Y129004524D01*
X105084523Y129099762D01*
X105179761Y129195000D01*
X105322619Y129242620D01*
X105417857Y129242620D01*
X105560714Y129195000D01*
X105608333Y129147381D01*
X106513095Y129242620D02*
X106036904Y129242620D01*
X105989285Y128766429D01*
X106036904Y128814048D01*
X106132142Y128861667D01*
X106370238Y128861667D01*
X106465476Y128814048D01*
X106513095Y128766429D01*
X106560714Y128671191D01*
X106560714Y128433096D01*
X106513095Y128337858D01*
X106465476Y128290239D01*
X106370238Y128242620D01*
X106132142Y128242620D01*
X106036904Y128290239D01*
X105989285Y128337858D01*
X108307142Y112462858D02*
X108259523Y112415239D01*
X108116666Y112367620D01*
X108021428Y112367620D01*
X107878571Y112415239D01*
X107783333Y112510477D01*
X107735714Y112605715D01*
X107688095Y112796191D01*
X107688095Y112939048D01*
X107735714Y113129524D01*
X107783333Y113224762D01*
X107878571Y113320000D01*
X108021428Y113367620D01*
X108116666Y113367620D01*
X108259523Y113320000D01*
X108307142Y113272381D01*
X109259523Y112367620D02*
X108688095Y112367620D01*
X108973809Y112367620D02*
X108973809Y113367620D01*
X108878571Y113224762D01*
X108783333Y113129524D01*
X108688095Y113081905D01*
X110211904Y112367620D02*
X109640476Y112367620D01*
X109926190Y112367620D02*
X109926190Y113367620D01*
X109830952Y113224762D01*
X109735714Y113129524D01*
X109640476Y113081905D01*
X108307142Y97222858D02*
X108259523Y97175239D01*
X108116666Y97127620D01*
X108021428Y97127620D01*
X107878571Y97175239D01*
X107783333Y97270477D01*
X107735714Y97365715D01*
X107688095Y97556191D01*
X107688095Y97699048D01*
X107735714Y97889524D01*
X107783333Y97984762D01*
X107878571Y98080000D01*
X108021428Y98127620D01*
X108116666Y98127620D01*
X108259523Y98080000D01*
X108307142Y98032381D01*
X109259523Y97127620D02*
X108688095Y97127620D01*
X108973809Y97127620D02*
X108973809Y98127620D01*
X108878571Y97984762D01*
X108783333Y97889524D01*
X108688095Y97841905D01*
X109640476Y98032381D02*
X109688095Y98080000D01*
X109783333Y98127620D01*
X110021428Y98127620D01*
X110116666Y98080000D01*
X110164285Y98032381D01*
X110211904Y97937143D01*
X110211904Y97841905D01*
X110164285Y97699048D01*
X109592857Y97127620D01*
X110211904Y97127620D01*
X105767142Y80077858D02*
X105719523Y80030239D01*
X105576666Y79982620D01*
X105481428Y79982620D01*
X105338571Y80030239D01*
X105243333Y80125477D01*
X105195714Y80220715D01*
X105148095Y80411191D01*
X105148095Y80554048D01*
X105195714Y80744524D01*
X105243333Y80839762D01*
X105338571Y80935000D01*
X105481428Y80982620D01*
X105576666Y80982620D01*
X105719523Y80935000D01*
X105767142Y80887381D01*
X106719523Y79982620D02*
X106148095Y79982620D01*
X106433809Y79982620D02*
X106433809Y80982620D01*
X106338571Y80839762D01*
X106243333Y80744524D01*
X106148095Y80696905D01*
X107576666Y80649286D02*
X107576666Y79982620D01*
X107338571Y81030239D02*
X107100476Y80315953D01*
X107719523Y80315953D01*
X84058095Y143530239D02*
X84200952Y143482620D01*
X84439047Y143482620D01*
X84534285Y143530239D01*
X84581904Y143577858D01*
X84629523Y143673096D01*
X84629523Y143768334D01*
X84581904Y143863572D01*
X84534285Y143911191D01*
X84439047Y143958810D01*
X84248571Y144006429D01*
X84153333Y144054048D01*
X84105714Y144101667D01*
X84058095Y144196905D01*
X84058095Y144292143D01*
X84105714Y144387381D01*
X84153333Y144435000D01*
X84248571Y144482620D01*
X84486666Y144482620D01*
X84629523Y144435000D01*
X85581904Y143482620D02*
X85010476Y143482620D01*
X85296190Y143482620D02*
X85296190Y144482620D01*
X85200952Y144339762D01*
X85105714Y144244524D01*
X85010476Y144196905D01*
X88249095Y143530239D02*
X88391952Y143482620D01*
X88630047Y143482620D01*
X88725285Y143530239D01*
X88772904Y143577858D01*
X88820523Y143673096D01*
X88820523Y143768334D01*
X88772904Y143863572D01*
X88725285Y143911191D01*
X88630047Y143958810D01*
X88439571Y144006429D01*
X88344333Y144054048D01*
X88296714Y144101667D01*
X88249095Y144196905D01*
X88249095Y144292143D01*
X88296714Y144387381D01*
X88344333Y144435000D01*
X88439571Y144482620D01*
X88677666Y144482620D01*
X88820523Y144435000D01*
X89201476Y144387381D02*
X89249095Y144435000D01*
X89344333Y144482620D01*
X89582428Y144482620D01*
X89677666Y144435000D01*
X89725285Y144387381D01*
X89772904Y144292143D01*
X89772904Y144196905D01*
X89725285Y144054048D01*
X89153857Y143482620D01*
X89772904Y143482620D01*
X89773095Y132417620D02*
X89773095Y131608096D01*
X89820714Y131512858D01*
X89868333Y131465239D01*
X89963571Y131417620D01*
X90154047Y131417620D01*
X90249285Y131465239D01*
X90296904Y131512858D01*
X90344523Y131608096D01*
X90344523Y132417620D01*
X91296904Y132417620D02*
X90820714Y132417620D01*
X90773095Y131941429D01*
X90820714Y131989048D01*
X90915952Y132036667D01*
X91154047Y132036667D01*
X91249285Y131989048D01*
X91296904Y131941429D01*
X91344523Y131846191D01*
X91344523Y131608096D01*
X91296904Y131512858D01*
X91249285Y131465239D01*
X91154047Y131417620D01*
X90915952Y131417620D01*
X90820714Y131465239D01*
X90773095Y131512858D01*
X92471904Y116542620D02*
X92471904Y115733096D01*
X92519523Y115637858D01*
X92567142Y115590239D01*
X92662380Y115542620D01*
X92852857Y115542620D01*
X92948095Y115590239D01*
X92995714Y115637858D01*
X93043333Y115733096D01*
X93043333Y116542620D01*
X94043333Y115542620D02*
X93471904Y115542620D01*
X93757619Y115542620D02*
X93757619Y116542620D01*
X93662380Y116399762D01*
X93567142Y116304524D01*
X93471904Y116256905D01*
X94995714Y115542620D02*
X94424285Y115542620D01*
X94710000Y115542620D02*
X94710000Y116542620D01*
X94614761Y116399762D01*
X94519523Y116304524D01*
X94424285Y116256905D01*
X91201904Y101302620D02*
X91201904Y100493096D01*
X91249523Y100397858D01*
X91297142Y100350239D01*
X91392380Y100302620D01*
X91582857Y100302620D01*
X91678095Y100350239D01*
X91725714Y100397858D01*
X91773333Y100493096D01*
X91773333Y101302620D01*
X92773333Y100302620D02*
X92201904Y100302620D01*
X92487619Y100302620D02*
X92487619Y101302620D01*
X92392380Y101159762D01*
X92297142Y101064524D01*
X92201904Y101016905D01*
X93154285Y101207381D02*
X93201904Y101255000D01*
X93297142Y101302620D01*
X93535238Y101302620D01*
X93630476Y101255000D01*
X93678095Y101207381D01*
X93725714Y101112143D01*
X93725714Y101016905D01*
X93678095Y100874048D01*
X93106666Y100302620D01*
X93725714Y100302620D01*
X90566904Y84157620D02*
X90566904Y83348096D01*
X90614523Y83252858D01*
X90662142Y83205239D01*
X90757380Y83157620D01*
X90947857Y83157620D01*
X91043095Y83205239D01*
X91090714Y83252858D01*
X91138333Y83348096D01*
X91138333Y84157620D01*
X92138333Y83157620D02*
X91566904Y83157620D01*
X91852619Y83157620D02*
X91852619Y84157620D01*
X91757380Y84014762D01*
X91662142Y83919524D01*
X91566904Y83871905D01*
X92995476Y83824286D02*
X92995476Y83157620D01*
X92757380Y84205239D02*
X92519285Y83490953D01*
X93138333Y83490953D01*
X60563095Y148927620D02*
X60563095Y148118096D01*
X60610714Y148022858D01*
X60658333Y147975239D01*
X60753571Y147927620D01*
X60944047Y147927620D01*
X61039285Y147975239D01*
X61086904Y148022858D01*
X61134523Y148118096D01*
X61134523Y148927620D01*
X62134523Y147927620D02*
X61563095Y147927620D01*
X61848809Y147927620D02*
X61848809Y148927620D01*
X61753571Y148784762D01*
X61658333Y148689524D01*
X61563095Y148641905D01*
X52758095Y31590239D02*
X52900952Y31542620D01*
X53139047Y31542620D01*
X53234285Y31590239D01*
X53281904Y31637858D01*
X53329523Y31733096D01*
X53329523Y31828334D01*
X53281904Y31923572D01*
X53234285Y31971191D01*
X53139047Y32018810D01*
X52948571Y32066429D01*
X52853333Y32114048D01*
X52805714Y32161667D01*
X52758095Y32256905D01*
X52758095Y32352143D01*
X52805714Y32447381D01*
X52853333Y32495000D01*
X52948571Y32542620D01*
X53186666Y32542620D01*
X53329523Y32495000D01*
X53662857Y32542620D02*
X54281904Y32542620D01*
X53948571Y32161667D01*
X54091428Y32161667D01*
X54186666Y32114048D01*
X54234285Y32066429D01*
X54281904Y31971191D01*
X54281904Y31733096D01*
X54234285Y31637858D01*
X54186666Y31590239D01*
X54091428Y31542620D01*
X53805714Y31542620D01*
X53710476Y31590239D01*
X53662857Y31637858D01*
X16668761Y55082381D02*
X16573523Y55130000D01*
X16478285Y55225239D01*
X16335428Y55368096D01*
X16240190Y55415715D01*
X16144952Y55415715D01*
X16192571Y55177620D02*
X16097333Y55225239D01*
X16002095Y55320477D01*
X15954476Y55510953D01*
X15954476Y55844286D01*
X16002095Y56034762D01*
X16097333Y56130000D01*
X16192571Y56177620D01*
X16383047Y56177620D01*
X16478285Y56130000D01*
X16573523Y56034762D01*
X16621142Y55844286D01*
X16621142Y55510953D01*
X16573523Y55320477D01*
X16478285Y55225239D01*
X16383047Y55177620D01*
X16192571Y55177620D01*
X17573523Y55177620D02*
X17002095Y55177620D01*
X17287809Y55177620D02*
X17287809Y56177620D01*
X17192571Y56034762D01*
X17097333Y55939524D01*
X17002095Y55891905D01*
X24471333Y53987620D02*
X24138000Y54463810D01*
X23899904Y53987620D02*
X23899904Y54987620D01*
X24280857Y54987620D01*
X24376095Y54940000D01*
X24423714Y54892381D01*
X24471333Y54797143D01*
X24471333Y54654286D01*
X24423714Y54559048D01*
X24376095Y54511429D01*
X24280857Y54463810D01*
X23899904Y54463810D01*
X24852285Y54892381D02*
X24899904Y54940000D01*
X24995142Y54987620D01*
X25233238Y54987620D01*
X25328476Y54940000D01*
X25376095Y54892381D01*
X25423714Y54797143D01*
X25423714Y54701905D01*
X25376095Y54559048D01*
X24804666Y53987620D01*
X25423714Y53987620D01*
X36155333Y54157620D02*
X35822000Y54633810D01*
X35583904Y54157620D02*
X35583904Y55157620D01*
X35964857Y55157620D01*
X36060095Y55110000D01*
X36107714Y55062381D01*
X36155333Y54967143D01*
X36155333Y54824286D01*
X36107714Y54729048D01*
X36060095Y54681429D01*
X35964857Y54633810D01*
X35583904Y54633810D01*
X36488666Y55157620D02*
X37107714Y55157620D01*
X36774380Y54776667D01*
X36917238Y54776667D01*
X37012476Y54729048D01*
X37060095Y54681429D01*
X37107714Y54586191D01*
X37107714Y54348096D01*
X37060095Y54252858D01*
X37012476Y54205239D01*
X36917238Y54157620D01*
X36631523Y54157620D01*
X36536285Y54205239D01*
X36488666Y54252858D01*
X36830095Y148883620D02*
X36830095Y148074096D01*
X36877714Y147978858D01*
X36925333Y147931239D01*
X37020571Y147883620D01*
X37211047Y147883620D01*
X37306285Y147931239D01*
X37353904Y147978858D01*
X37401523Y148074096D01*
X37401523Y148883620D01*
X37830095Y148788381D02*
X37877714Y148836000D01*
X37972952Y148883620D01*
X38211047Y148883620D01*
X38306285Y148836000D01*
X38353904Y148788381D01*
X38401523Y148693143D01*
X38401523Y148597905D01*
X38353904Y148455048D01*
X37782476Y147883620D01*
X38401523Y147883620D01*
M02*
