G04 #@! TF.GenerationSoftware,KiCad,Pcbnew,(5.1.9)-1*
G04 #@! TF.CreationDate,2025-12-18T14:44:51+09:00*
G04 #@! TF.ProjectId,MZ-2000_EMM,4d5a2d32-3030-4305-9f45-4d4d2e6b6963,rev?*
G04 #@! TF.SameCoordinates,PX20a6660PYbcc1c70*
G04 #@! TF.FileFunction,Legend,Top*
G04 #@! TF.FilePolarity,Positive*
%FSLAX46Y46*%
G04 Gerber Fmt 4.6, Leading zero omitted, Abs format (unit mm)*
G04 Created by KiCad (PCBNEW (5.1.9)-1) date 2025-12-18 14:44:51*
%MOMM*%
%LPD*%
G01*
G04 APERTURE LIST*
%ADD10C,0.150000*%
%ADD11C,0.300000*%
%ADD12C,0.500000*%
%ADD13C,0.120000*%
G04 APERTURE END LIST*
D10*
X25259761Y26841620D02*
X24688333Y26841620D01*
X24974047Y26841620D02*
X24974047Y27841620D01*
X24878809Y27698762D01*
X24783571Y27603524D01*
X24688333Y27555905D01*
X25878809Y27841620D02*
X25974047Y27841620D01*
X26069285Y27794000D01*
X26116904Y27746381D01*
X26164523Y27651143D01*
X26212142Y27460667D01*
X26212142Y27222572D01*
X26164523Y27032096D01*
X26116904Y26936858D01*
X26069285Y26889239D01*
X25974047Y26841620D01*
X25878809Y26841620D01*
X25783571Y26889239D01*
X25735952Y26936858D01*
X25688333Y27032096D01*
X25640714Y27222572D01*
X25640714Y27460667D01*
X25688333Y27651143D01*
X25735952Y27746381D01*
X25783571Y27794000D01*
X25878809Y27841620D01*
X26640714Y26841620D02*
X26640714Y27841620D01*
X26735952Y27222572D02*
X27021666Y26841620D01*
X27021666Y27508286D02*
X26640714Y27127334D01*
X93877142Y55157620D02*
X94543809Y55157620D01*
X94115238Y54157620D01*
X95353333Y54824286D02*
X95353333Y54157620D01*
X95115238Y55205239D02*
X94877142Y54490953D01*
X95496190Y54490953D01*
X96353333Y54157620D02*
X95877142Y54157620D01*
X95877142Y55157620D01*
X96639047Y54205239D02*
X96781904Y54157620D01*
X97020000Y54157620D01*
X97115238Y54205239D01*
X97162857Y54252858D01*
X97210476Y54348096D01*
X97210476Y54443334D01*
X97162857Y54538572D01*
X97115238Y54586191D01*
X97020000Y54633810D01*
X96829523Y54681429D01*
X96734285Y54729048D01*
X96686666Y54776667D01*
X96639047Y54871905D01*
X96639047Y54967143D01*
X96686666Y55062381D01*
X96734285Y55110000D01*
X96829523Y55157620D01*
X97067619Y55157620D01*
X97210476Y55110000D01*
X98162857Y54157620D02*
X97591428Y54157620D01*
X97877142Y54157620D02*
X97877142Y55157620D01*
X97781904Y55014762D01*
X97686666Y54919524D01*
X97591428Y54871905D01*
X99115238Y54157620D02*
X98543809Y54157620D01*
X98829523Y54157620D02*
X98829523Y55157620D01*
X98734285Y55014762D01*
X98639047Y54919524D01*
X98543809Y54871905D01*
X64825952Y55157620D02*
X65492619Y55157620D01*
X65064047Y54157620D01*
X66302142Y54824286D02*
X66302142Y54157620D01*
X66064047Y55205239D02*
X65825952Y54490953D01*
X66445000Y54490953D01*
X67302142Y54157620D02*
X66825952Y54157620D01*
X66825952Y55157620D01*
X67587857Y54205239D02*
X67730714Y54157620D01*
X67968809Y54157620D01*
X68064047Y54205239D01*
X68111666Y54252858D01*
X68159285Y54348096D01*
X68159285Y54443334D01*
X68111666Y54538572D01*
X68064047Y54586191D01*
X67968809Y54633810D01*
X67778333Y54681429D01*
X67683095Y54729048D01*
X67635476Y54776667D01*
X67587857Y54871905D01*
X67587857Y54967143D01*
X67635476Y55062381D01*
X67683095Y55110000D01*
X67778333Y55157620D01*
X68016428Y55157620D01*
X68159285Y55110000D01*
X68540238Y55062381D02*
X68587857Y55110000D01*
X68683095Y55157620D01*
X68921190Y55157620D01*
X69016428Y55110000D01*
X69064047Y55062381D01*
X69111666Y54967143D01*
X69111666Y54871905D01*
X69064047Y54729048D01*
X68492619Y54157620D01*
X69111666Y54157620D01*
X69968809Y54824286D02*
X69968809Y54157620D01*
X69730714Y55205239D02*
X69492619Y54490953D01*
X70111666Y54490953D01*
X70968809Y55157620D02*
X70492619Y55157620D01*
X70445000Y54681429D01*
X70492619Y54729048D01*
X70587857Y54776667D01*
X70825952Y54776667D01*
X70921190Y54729048D01*
X70968809Y54681429D01*
X71016428Y54586191D01*
X71016428Y54348096D01*
X70968809Y54252858D01*
X70921190Y54205239D01*
X70825952Y54157620D01*
X70587857Y54157620D01*
X70492619Y54205239D01*
X70445000Y54252858D01*
X24225714Y54157620D02*
X24225714Y55157620D01*
X24225714Y54681429D02*
X24797142Y54681429D01*
X24797142Y54157620D02*
X24797142Y55157620D01*
X25273333Y54157620D02*
X25273333Y55157620D01*
X25606666Y54443334D01*
X25940000Y55157620D01*
X25940000Y54157620D01*
X26844761Y55157620D02*
X26654285Y55157620D01*
X26559047Y55110000D01*
X26511428Y55062381D01*
X26416190Y54919524D01*
X26368571Y54729048D01*
X26368571Y54348096D01*
X26416190Y54252858D01*
X26463809Y54205239D01*
X26559047Y54157620D01*
X26749523Y54157620D01*
X26844761Y54205239D01*
X26892380Y54252858D01*
X26940000Y54348096D01*
X26940000Y54586191D01*
X26892380Y54681429D01*
X26844761Y54729048D01*
X26749523Y54776667D01*
X26559047Y54776667D01*
X26463809Y54729048D01*
X26416190Y54681429D01*
X26368571Y54586191D01*
X27320952Y55062381D02*
X27368571Y55110000D01*
X27463809Y55157620D01*
X27701904Y55157620D01*
X27797142Y55110000D01*
X27844761Y55062381D01*
X27892380Y54967143D01*
X27892380Y54871905D01*
X27844761Y54729048D01*
X27273333Y54157620D01*
X27892380Y54157620D01*
X28463809Y54729048D02*
X28368571Y54776667D01*
X28320952Y54824286D01*
X28273333Y54919524D01*
X28273333Y54967143D01*
X28320952Y55062381D01*
X28368571Y55110000D01*
X28463809Y55157620D01*
X28654285Y55157620D01*
X28749523Y55110000D01*
X28797142Y55062381D01*
X28844761Y54967143D01*
X28844761Y54919524D01*
X28797142Y54824286D01*
X28749523Y54776667D01*
X28654285Y54729048D01*
X28463809Y54729048D01*
X28368571Y54681429D01*
X28320952Y54633810D01*
X28273333Y54538572D01*
X28273333Y54348096D01*
X28320952Y54252858D01*
X28368571Y54205239D01*
X28463809Y54157620D01*
X28654285Y54157620D01*
X28749523Y54205239D01*
X28797142Y54252858D01*
X28844761Y54348096D01*
X28844761Y54538572D01*
X28797142Y54633810D01*
X28749523Y54681429D01*
X28654285Y54729048D01*
X29749523Y55157620D02*
X29273333Y55157620D01*
X29225714Y54681429D01*
X29273333Y54729048D01*
X29368571Y54776667D01*
X29606666Y54776667D01*
X29701904Y54729048D01*
X29749523Y54681429D01*
X29797142Y54586191D01*
X29797142Y54348096D01*
X29749523Y54252858D01*
X29701904Y54205239D01*
X29606666Y54157620D01*
X29368571Y54157620D01*
X29273333Y54205239D01*
X29225714Y54252858D01*
X30749523Y54157620D02*
X30178095Y54157620D01*
X30463809Y54157620D02*
X30463809Y55157620D01*
X30368571Y55014762D01*
X30273333Y54919524D01*
X30178095Y54871905D01*
X31130476Y55062381D02*
X31178095Y55110000D01*
X31273333Y55157620D01*
X31511428Y55157620D01*
X31606666Y55110000D01*
X31654285Y55062381D01*
X31701904Y54967143D01*
X31701904Y54871905D01*
X31654285Y54729048D01*
X31082857Y54157620D01*
X31701904Y54157620D01*
X94670952Y72302620D02*
X95337619Y72302620D01*
X94909047Y71302620D01*
X96147142Y71969286D02*
X96147142Y71302620D01*
X95909047Y72350239D02*
X95670952Y71635953D01*
X96290000Y71635953D01*
X97147142Y71302620D02*
X96670952Y71302620D01*
X96670952Y72302620D01*
X97432857Y71350239D02*
X97575714Y71302620D01*
X97813809Y71302620D01*
X97909047Y71350239D01*
X97956666Y71397858D01*
X98004285Y71493096D01*
X98004285Y71588334D01*
X97956666Y71683572D01*
X97909047Y71731191D01*
X97813809Y71778810D01*
X97623333Y71826429D01*
X97528095Y71874048D01*
X97480476Y71921667D01*
X97432857Y72016905D01*
X97432857Y72112143D01*
X97480476Y72207381D01*
X97528095Y72255000D01*
X97623333Y72302620D01*
X97861428Y72302620D01*
X98004285Y72255000D01*
X98956666Y71302620D02*
X98385238Y71302620D01*
X98670952Y71302620D02*
X98670952Y72302620D01*
X98575714Y72159762D01*
X98480476Y72064524D01*
X98385238Y72016905D01*
X99290000Y72302620D02*
X99909047Y72302620D01*
X99575714Y71921667D01*
X99718571Y71921667D01*
X99813809Y71874048D01*
X99861428Y71826429D01*
X99909047Y71731191D01*
X99909047Y71493096D01*
X99861428Y71397858D01*
X99813809Y71350239D01*
X99718571Y71302620D01*
X99432857Y71302620D01*
X99337619Y71350239D01*
X99290000Y71397858D01*
X100480476Y71874048D02*
X100385238Y71921667D01*
X100337619Y71969286D01*
X100290000Y72064524D01*
X100290000Y72112143D01*
X100337619Y72207381D01*
X100385238Y72255000D01*
X100480476Y72302620D01*
X100670952Y72302620D01*
X100766190Y72255000D01*
X100813809Y72207381D01*
X100861428Y72112143D01*
X100861428Y72064524D01*
X100813809Y71969286D01*
X100766190Y71921667D01*
X100670952Y71874048D01*
X100480476Y71874048D01*
X100385238Y71826429D01*
X100337619Y71778810D01*
X100290000Y71683572D01*
X100290000Y71493096D01*
X100337619Y71397858D01*
X100385238Y71350239D01*
X100480476Y71302620D01*
X100670952Y71302620D01*
X100766190Y71350239D01*
X100813809Y71397858D01*
X100861428Y71493096D01*
X100861428Y71683572D01*
X100813809Y71778810D01*
X100766190Y71826429D01*
X100670952Y71874048D01*
X54665952Y72302620D02*
X55332619Y72302620D01*
X54904047Y71302620D01*
X56142142Y71969286D02*
X56142142Y71302620D01*
X55904047Y72350239D02*
X55665952Y71635953D01*
X56285000Y71635953D01*
X57142142Y71302620D02*
X56665952Y71302620D01*
X56665952Y72302620D01*
X57427857Y71350239D02*
X57570714Y71302620D01*
X57808809Y71302620D01*
X57904047Y71350239D01*
X57951666Y71397858D01*
X57999285Y71493096D01*
X57999285Y71588334D01*
X57951666Y71683572D01*
X57904047Y71731191D01*
X57808809Y71778810D01*
X57618333Y71826429D01*
X57523095Y71874048D01*
X57475476Y71921667D01*
X57427857Y72016905D01*
X57427857Y72112143D01*
X57475476Y72207381D01*
X57523095Y72255000D01*
X57618333Y72302620D01*
X57856428Y72302620D01*
X57999285Y72255000D01*
X58951666Y71302620D02*
X58380238Y71302620D01*
X58665952Y71302620D02*
X58665952Y72302620D01*
X58570714Y72159762D01*
X58475476Y72064524D01*
X58380238Y72016905D01*
X59427857Y71302620D02*
X59618333Y71302620D01*
X59713571Y71350239D01*
X59761190Y71397858D01*
X59856428Y71540715D01*
X59904047Y71731191D01*
X59904047Y72112143D01*
X59856428Y72207381D01*
X59808809Y72255000D01*
X59713571Y72302620D01*
X59523095Y72302620D01*
X59427857Y72255000D01*
X59380238Y72207381D01*
X59332619Y72112143D01*
X59332619Y71874048D01*
X59380238Y71778810D01*
X59427857Y71731191D01*
X59523095Y71683572D01*
X59713571Y71683572D01*
X59808809Y71731191D01*
X59856428Y71778810D01*
X59904047Y71874048D01*
X60237380Y72302620D02*
X60856428Y72302620D01*
X60523095Y71921667D01*
X60665952Y71921667D01*
X60761190Y71874048D01*
X60808809Y71826429D01*
X60856428Y71731191D01*
X60856428Y71493096D01*
X60808809Y71397858D01*
X60761190Y71350239D01*
X60665952Y71302620D01*
X60380238Y71302620D01*
X60285000Y71350239D01*
X60237380Y71397858D01*
X16565952Y69762620D02*
X17232619Y69762620D01*
X16804047Y68762620D01*
X18042142Y69429286D02*
X18042142Y68762620D01*
X17804047Y69810239D02*
X17565952Y69095953D01*
X18185000Y69095953D01*
X19042142Y68762620D02*
X18565952Y68762620D01*
X18565952Y69762620D01*
X19327857Y68810239D02*
X19470714Y68762620D01*
X19708809Y68762620D01*
X19804047Y68810239D01*
X19851666Y68857858D01*
X19899285Y68953096D01*
X19899285Y69048334D01*
X19851666Y69143572D01*
X19804047Y69191191D01*
X19708809Y69238810D01*
X19518333Y69286429D01*
X19423095Y69334048D01*
X19375476Y69381667D01*
X19327857Y69476905D01*
X19327857Y69572143D01*
X19375476Y69667381D01*
X19423095Y69715000D01*
X19518333Y69762620D01*
X19756428Y69762620D01*
X19899285Y69715000D01*
X20851666Y68762620D02*
X20280238Y68762620D01*
X20565952Y68762620D02*
X20565952Y69762620D01*
X20470714Y69619762D01*
X20375476Y69524524D01*
X20280238Y69476905D01*
X21327857Y68762620D02*
X21518333Y68762620D01*
X21613571Y68810239D01*
X21661190Y68857858D01*
X21756428Y69000715D01*
X21804047Y69191191D01*
X21804047Y69572143D01*
X21756428Y69667381D01*
X21708809Y69715000D01*
X21613571Y69762620D01*
X21423095Y69762620D01*
X21327857Y69715000D01*
X21280238Y69667381D01*
X21232619Y69572143D01*
X21232619Y69334048D01*
X21280238Y69238810D01*
X21327857Y69191191D01*
X21423095Y69143572D01*
X21613571Y69143572D01*
X21708809Y69191191D01*
X21756428Y69238810D01*
X21804047Y69334048D01*
X22137380Y69762620D02*
X22756428Y69762620D01*
X22423095Y69381667D01*
X22565952Y69381667D01*
X22661190Y69334048D01*
X22708809Y69286429D01*
X22756428Y69191191D01*
X22756428Y68953096D01*
X22708809Y68857858D01*
X22661190Y68810239D01*
X22565952Y68762620D01*
X22280238Y68762620D01*
X22185000Y68810239D01*
X22137380Y68857858D01*
X15930952Y84367620D02*
X16597619Y84367620D01*
X16169047Y83367620D01*
X17407142Y84034286D02*
X17407142Y83367620D01*
X17169047Y84415239D02*
X16930952Y83700953D01*
X17550000Y83700953D01*
X18407142Y83367620D02*
X17930952Y83367620D01*
X17930952Y84367620D01*
X18692857Y83415239D02*
X18835714Y83367620D01*
X19073809Y83367620D01*
X19169047Y83415239D01*
X19216666Y83462858D01*
X19264285Y83558096D01*
X19264285Y83653334D01*
X19216666Y83748572D01*
X19169047Y83796191D01*
X19073809Y83843810D01*
X18883333Y83891429D01*
X18788095Y83939048D01*
X18740476Y83986667D01*
X18692857Y84081905D01*
X18692857Y84177143D01*
X18740476Y84272381D01*
X18788095Y84320000D01*
X18883333Y84367620D01*
X19121428Y84367620D01*
X19264285Y84320000D01*
X20216666Y83367620D02*
X19645238Y83367620D01*
X19930952Y83367620D02*
X19930952Y84367620D01*
X19835714Y84224762D01*
X19740476Y84129524D01*
X19645238Y84081905D01*
X20692857Y83367620D02*
X20883333Y83367620D01*
X20978571Y83415239D01*
X21026190Y83462858D01*
X21121428Y83605715D01*
X21169047Y83796191D01*
X21169047Y84177143D01*
X21121428Y84272381D01*
X21073809Y84320000D01*
X20978571Y84367620D01*
X20788095Y84367620D01*
X20692857Y84320000D01*
X20645238Y84272381D01*
X20597619Y84177143D01*
X20597619Y83939048D01*
X20645238Y83843810D01*
X20692857Y83796191D01*
X20788095Y83748572D01*
X20978571Y83748572D01*
X21073809Y83796191D01*
X21121428Y83843810D01*
X21169047Y83939048D01*
X21502380Y84367620D02*
X22121428Y84367620D01*
X21788095Y83986667D01*
X21930952Y83986667D01*
X22026190Y83939048D01*
X22073809Y83891429D01*
X22121428Y83796191D01*
X22121428Y83558096D01*
X22073809Y83462858D01*
X22026190Y83415239D01*
X21930952Y83367620D01*
X21645238Y83367620D01*
X21550000Y83415239D01*
X21502380Y83462858D01*
X53395952Y87542620D02*
X54062619Y87542620D01*
X53634047Y86542620D01*
X54872142Y87209286D02*
X54872142Y86542620D01*
X54634047Y87590239D02*
X54395952Y86875953D01*
X55015000Y86875953D01*
X55872142Y86542620D02*
X55395952Y86542620D01*
X55395952Y87542620D01*
X56157857Y86590239D02*
X56300714Y86542620D01*
X56538809Y86542620D01*
X56634047Y86590239D01*
X56681666Y86637858D01*
X56729285Y86733096D01*
X56729285Y86828334D01*
X56681666Y86923572D01*
X56634047Y86971191D01*
X56538809Y87018810D01*
X56348333Y87066429D01*
X56253095Y87114048D01*
X56205476Y87161667D01*
X56157857Y87256905D01*
X56157857Y87352143D01*
X56205476Y87447381D01*
X56253095Y87495000D01*
X56348333Y87542620D01*
X56586428Y87542620D01*
X56729285Y87495000D01*
X57681666Y86542620D02*
X57110238Y86542620D01*
X57395952Y86542620D02*
X57395952Y87542620D01*
X57300714Y87399762D01*
X57205476Y87304524D01*
X57110238Y87256905D01*
X58157857Y86542620D02*
X58348333Y86542620D01*
X58443571Y86590239D01*
X58491190Y86637858D01*
X58586428Y86780715D01*
X58634047Y86971191D01*
X58634047Y87352143D01*
X58586428Y87447381D01*
X58538809Y87495000D01*
X58443571Y87542620D01*
X58253095Y87542620D01*
X58157857Y87495000D01*
X58110238Y87447381D01*
X58062619Y87352143D01*
X58062619Y87114048D01*
X58110238Y87018810D01*
X58157857Y86971191D01*
X58253095Y86923572D01*
X58443571Y86923572D01*
X58538809Y86971191D01*
X58586428Y87018810D01*
X58634047Y87114048D01*
X58967380Y87542620D02*
X59586428Y87542620D01*
X59253095Y87161667D01*
X59395952Y87161667D01*
X59491190Y87114048D01*
X59538809Y87066429D01*
X59586428Y86971191D01*
X59586428Y86733096D01*
X59538809Y86637858D01*
X59491190Y86590239D01*
X59395952Y86542620D01*
X59110238Y86542620D01*
X59015000Y86590239D01*
X58967380Y86637858D01*
X95305952Y87542620D02*
X95972619Y87542620D01*
X95544047Y86542620D01*
X96782142Y87209286D02*
X96782142Y86542620D01*
X96544047Y87590239D02*
X96305952Y86875953D01*
X96925000Y86875953D01*
X97782142Y86542620D02*
X97305952Y86542620D01*
X97305952Y87542620D01*
X98067857Y86590239D02*
X98210714Y86542620D01*
X98448809Y86542620D01*
X98544047Y86590239D01*
X98591666Y86637858D01*
X98639285Y86733096D01*
X98639285Y86828334D01*
X98591666Y86923572D01*
X98544047Y86971191D01*
X98448809Y87018810D01*
X98258333Y87066429D01*
X98163095Y87114048D01*
X98115476Y87161667D01*
X98067857Y87256905D01*
X98067857Y87352143D01*
X98115476Y87447381D01*
X98163095Y87495000D01*
X98258333Y87542620D01*
X98496428Y87542620D01*
X98639285Y87495000D01*
X99591666Y86542620D02*
X99020238Y86542620D01*
X99305952Y86542620D02*
X99305952Y87542620D01*
X99210714Y87399762D01*
X99115476Y87304524D01*
X99020238Y87256905D01*
X99925000Y87542620D02*
X100544047Y87542620D01*
X100210714Y87161667D01*
X100353571Y87161667D01*
X100448809Y87114048D01*
X100496428Y87066429D01*
X100544047Y86971191D01*
X100544047Y86733096D01*
X100496428Y86637858D01*
X100448809Y86590239D01*
X100353571Y86542620D01*
X100067857Y86542620D01*
X99972619Y86590239D01*
X99925000Y86637858D01*
X101115476Y87114048D02*
X101020238Y87161667D01*
X100972619Y87209286D01*
X100925000Y87304524D01*
X100925000Y87352143D01*
X100972619Y87447381D01*
X101020238Y87495000D01*
X101115476Y87542620D01*
X101305952Y87542620D01*
X101401190Y87495000D01*
X101448809Y87447381D01*
X101496428Y87352143D01*
X101496428Y87304524D01*
X101448809Y87209286D01*
X101401190Y87161667D01*
X101305952Y87114048D01*
X101115476Y87114048D01*
X101020238Y87066429D01*
X100972619Y87018810D01*
X100925000Y86923572D01*
X100925000Y86733096D01*
X100972619Y86637858D01*
X101020238Y86590239D01*
X101115476Y86542620D01*
X101305952Y86542620D01*
X101401190Y86590239D01*
X101448809Y86637858D01*
X101496428Y86733096D01*
X101496428Y86923572D01*
X101448809Y87018810D01*
X101401190Y87066429D01*
X101305952Y87114048D01*
X91972142Y103417620D02*
X92638809Y103417620D01*
X92210238Y102417620D01*
X93448333Y103084286D02*
X93448333Y102417620D01*
X93210238Y103465239D02*
X92972142Y102750953D01*
X93591190Y102750953D01*
X94448333Y102417620D02*
X93972142Y102417620D01*
X93972142Y103417620D01*
X94734047Y102465239D02*
X94876904Y102417620D01*
X95115000Y102417620D01*
X95210238Y102465239D01*
X95257857Y102512858D01*
X95305476Y102608096D01*
X95305476Y102703334D01*
X95257857Y102798572D01*
X95210238Y102846191D01*
X95115000Y102893810D01*
X94924523Y102941429D01*
X94829285Y102989048D01*
X94781666Y103036667D01*
X94734047Y103131905D01*
X94734047Y103227143D01*
X94781666Y103322381D01*
X94829285Y103370000D01*
X94924523Y103417620D01*
X95162619Y103417620D01*
X95305476Y103370000D01*
X95638809Y103417620D02*
X96257857Y103417620D01*
X95924523Y103036667D01*
X96067380Y103036667D01*
X96162619Y102989048D01*
X96210238Y102941429D01*
X96257857Y102846191D01*
X96257857Y102608096D01*
X96210238Y102512858D01*
X96162619Y102465239D01*
X96067380Y102417620D01*
X95781666Y102417620D01*
X95686428Y102465239D01*
X95638809Y102512858D01*
X96876904Y103417620D02*
X96972142Y103417620D01*
X97067380Y103370000D01*
X97115000Y103322381D01*
X97162619Y103227143D01*
X97210238Y103036667D01*
X97210238Y102798572D01*
X97162619Y102608096D01*
X97115000Y102512858D01*
X97067380Y102465239D01*
X96972142Y102417620D01*
X96876904Y102417620D01*
X96781666Y102465239D01*
X96734047Y102512858D01*
X96686428Y102608096D01*
X96638809Y102798572D01*
X96638809Y103036667D01*
X96686428Y103227143D01*
X96734047Y103322381D01*
X96781666Y103370000D01*
X96876904Y103417620D01*
X54665952Y103417620D02*
X55332619Y103417620D01*
X54904047Y102417620D01*
X56142142Y103084286D02*
X56142142Y102417620D01*
X55904047Y103465239D02*
X55665952Y102750953D01*
X56285000Y102750953D01*
X57142142Y102417620D02*
X56665952Y102417620D01*
X56665952Y103417620D01*
X57427857Y102465239D02*
X57570714Y102417620D01*
X57808809Y102417620D01*
X57904047Y102465239D01*
X57951666Y102512858D01*
X57999285Y102608096D01*
X57999285Y102703334D01*
X57951666Y102798572D01*
X57904047Y102846191D01*
X57808809Y102893810D01*
X57618333Y102941429D01*
X57523095Y102989048D01*
X57475476Y103036667D01*
X57427857Y103131905D01*
X57427857Y103227143D01*
X57475476Y103322381D01*
X57523095Y103370000D01*
X57618333Y103417620D01*
X57856428Y103417620D01*
X57999285Y103370000D01*
X58951666Y102417620D02*
X58380238Y102417620D01*
X58665952Y102417620D02*
X58665952Y103417620D01*
X58570714Y103274762D01*
X58475476Y103179524D01*
X58380238Y103131905D01*
X59427857Y102417620D02*
X59618333Y102417620D01*
X59713571Y102465239D01*
X59761190Y102512858D01*
X59856428Y102655715D01*
X59904047Y102846191D01*
X59904047Y103227143D01*
X59856428Y103322381D01*
X59808809Y103370000D01*
X59713571Y103417620D01*
X59523095Y103417620D01*
X59427857Y103370000D01*
X59380238Y103322381D01*
X59332619Y103227143D01*
X59332619Y102989048D01*
X59380238Y102893810D01*
X59427857Y102846191D01*
X59523095Y102798572D01*
X59713571Y102798572D01*
X59808809Y102846191D01*
X59856428Y102893810D01*
X59904047Y102989048D01*
X60237380Y103417620D02*
X60856428Y103417620D01*
X60523095Y103036667D01*
X60665952Y103036667D01*
X60761190Y102989048D01*
X60808809Y102941429D01*
X60856428Y102846191D01*
X60856428Y102608096D01*
X60808809Y102512858D01*
X60761190Y102465239D01*
X60665952Y102417620D01*
X60380238Y102417620D01*
X60285000Y102465239D01*
X60237380Y102512858D01*
X18470952Y100242620D02*
X19137619Y100242620D01*
X18709047Y99242620D01*
X19947142Y99909286D02*
X19947142Y99242620D01*
X19709047Y100290239D02*
X19470952Y99575953D01*
X20090000Y99575953D01*
X20947142Y99242620D02*
X20470952Y99242620D01*
X20470952Y100242620D01*
X21232857Y99290239D02*
X21375714Y99242620D01*
X21613809Y99242620D01*
X21709047Y99290239D01*
X21756666Y99337858D01*
X21804285Y99433096D01*
X21804285Y99528334D01*
X21756666Y99623572D01*
X21709047Y99671191D01*
X21613809Y99718810D01*
X21423333Y99766429D01*
X21328095Y99814048D01*
X21280476Y99861667D01*
X21232857Y99956905D01*
X21232857Y100052143D01*
X21280476Y100147381D01*
X21328095Y100195000D01*
X21423333Y100242620D01*
X21661428Y100242620D01*
X21804285Y100195000D01*
X22185238Y100147381D02*
X22232857Y100195000D01*
X22328095Y100242620D01*
X22566190Y100242620D01*
X22661428Y100195000D01*
X22709047Y100147381D01*
X22756666Y100052143D01*
X22756666Y99956905D01*
X22709047Y99814048D01*
X22137619Y99242620D01*
X22756666Y99242620D01*
X23613809Y99909286D02*
X23613809Y99242620D01*
X23375714Y100290239D02*
X23137619Y99575953D01*
X23756666Y99575953D01*
X24613809Y100242620D02*
X24137619Y100242620D01*
X24090000Y99766429D01*
X24137619Y99814048D01*
X24232857Y99861667D01*
X24470952Y99861667D01*
X24566190Y99814048D01*
X24613809Y99766429D01*
X24661428Y99671191D01*
X24661428Y99433096D01*
X24613809Y99337858D01*
X24566190Y99290239D01*
X24470952Y99242620D01*
X24232857Y99242620D01*
X24137619Y99290239D01*
X24090000Y99337858D01*
X64667142Y119927620D02*
X65333809Y119927620D01*
X64905238Y118927620D01*
X66143333Y119594286D02*
X66143333Y118927620D01*
X65905238Y119975239D02*
X65667142Y119260953D01*
X66286190Y119260953D01*
X67143333Y118927620D02*
X66667142Y118927620D01*
X66667142Y119927620D01*
X67429047Y118975239D02*
X67571904Y118927620D01*
X67810000Y118927620D01*
X67905238Y118975239D01*
X67952857Y119022858D01*
X68000476Y119118096D01*
X68000476Y119213334D01*
X67952857Y119308572D01*
X67905238Y119356191D01*
X67810000Y119403810D01*
X67619523Y119451429D01*
X67524285Y119499048D01*
X67476666Y119546667D01*
X67429047Y119641905D01*
X67429047Y119737143D01*
X67476666Y119832381D01*
X67524285Y119880000D01*
X67619523Y119927620D01*
X67857619Y119927620D01*
X68000476Y119880000D01*
X68619523Y119927620D02*
X68714761Y119927620D01*
X68810000Y119880000D01*
X68857619Y119832381D01*
X68905238Y119737143D01*
X68952857Y119546667D01*
X68952857Y119308572D01*
X68905238Y119118096D01*
X68857619Y119022858D01*
X68810000Y118975239D01*
X68714761Y118927620D01*
X68619523Y118927620D01*
X68524285Y118975239D01*
X68476666Y119022858D01*
X68429047Y119118096D01*
X68381428Y119308572D01*
X68381428Y119546667D01*
X68429047Y119737143D01*
X68476666Y119832381D01*
X68524285Y119880000D01*
X68619523Y119927620D01*
X69810000Y119594286D02*
X69810000Y118927620D01*
X69571904Y119975239D02*
X69333809Y119260953D01*
X69952857Y119260953D01*
X39902142Y119927620D02*
X40568809Y119927620D01*
X40140238Y118927620D01*
X41378333Y119594286D02*
X41378333Y118927620D01*
X41140238Y119975239D02*
X40902142Y119260953D01*
X41521190Y119260953D01*
X42378333Y118927620D02*
X41902142Y118927620D01*
X41902142Y119927620D01*
X42664047Y118975239D02*
X42806904Y118927620D01*
X43045000Y118927620D01*
X43140238Y118975239D01*
X43187857Y119022858D01*
X43235476Y119118096D01*
X43235476Y119213334D01*
X43187857Y119308572D01*
X43140238Y119356191D01*
X43045000Y119403810D01*
X42854523Y119451429D01*
X42759285Y119499048D01*
X42711666Y119546667D01*
X42664047Y119641905D01*
X42664047Y119737143D01*
X42711666Y119832381D01*
X42759285Y119880000D01*
X42854523Y119927620D01*
X43092619Y119927620D01*
X43235476Y119880000D01*
X43854523Y119927620D02*
X43949761Y119927620D01*
X44045000Y119880000D01*
X44092619Y119832381D01*
X44140238Y119737143D01*
X44187857Y119546667D01*
X44187857Y119308572D01*
X44140238Y119118096D01*
X44092619Y119022858D01*
X44045000Y118975239D01*
X43949761Y118927620D01*
X43854523Y118927620D01*
X43759285Y118975239D01*
X43711666Y119022858D01*
X43664047Y119118096D01*
X43616428Y119308572D01*
X43616428Y119546667D01*
X43664047Y119737143D01*
X43711666Y119832381D01*
X43759285Y119880000D01*
X43854523Y119927620D01*
X45045000Y119594286D02*
X45045000Y118927620D01*
X44806904Y119975239D02*
X44568809Y119260953D01*
X45187857Y119260953D01*
X15137142Y119927620D02*
X15803809Y119927620D01*
X15375238Y118927620D01*
X16613333Y119594286D02*
X16613333Y118927620D01*
X16375238Y119975239D02*
X16137142Y119260953D01*
X16756190Y119260953D01*
X17613333Y118927620D02*
X17137142Y118927620D01*
X17137142Y119927620D01*
X17899047Y118975239D02*
X18041904Y118927620D01*
X18280000Y118927620D01*
X18375238Y118975239D01*
X18422857Y119022858D01*
X18470476Y119118096D01*
X18470476Y119213334D01*
X18422857Y119308572D01*
X18375238Y119356191D01*
X18280000Y119403810D01*
X18089523Y119451429D01*
X17994285Y119499048D01*
X17946666Y119546667D01*
X17899047Y119641905D01*
X17899047Y119737143D01*
X17946666Y119832381D01*
X17994285Y119880000D01*
X18089523Y119927620D01*
X18327619Y119927620D01*
X18470476Y119880000D01*
X19422857Y118927620D02*
X18851428Y118927620D01*
X19137142Y118927620D02*
X19137142Y119927620D01*
X19041904Y119784762D01*
X18946666Y119689524D01*
X18851428Y119641905D01*
X20280000Y119594286D02*
X20280000Y118927620D01*
X20041904Y119975239D02*
X19803809Y119260953D01*
X20422857Y119260953D01*
D11*
X88844571Y120400000D02*
X89558857Y120400000D01*
X88701714Y119971429D02*
X89201714Y121471429D01*
X89701714Y119971429D01*
X90130285Y121328572D02*
X90201714Y121400000D01*
X90344571Y121471429D01*
X90701714Y121471429D01*
X90844571Y121400000D01*
X90916000Y121328572D01*
X90987428Y121185715D01*
X90987428Y121042858D01*
X90916000Y120828572D01*
X90058857Y119971429D01*
X90987428Y119971429D01*
X85034571Y120400000D02*
X85748857Y120400000D01*
X84891714Y119971429D02*
X85391714Y121471429D01*
X85891714Y119971429D01*
X86248857Y121471429D02*
X87177428Y121471429D01*
X86677428Y120900000D01*
X86891714Y120900000D01*
X87034571Y120828572D01*
X87106000Y120757143D01*
X87177428Y120614286D01*
X87177428Y120257143D01*
X87106000Y120114286D01*
X87034571Y120042858D01*
X86891714Y119971429D01*
X86463142Y119971429D01*
X86320285Y120042858D01*
X86248857Y120114286D01*
X90344571Y117431429D02*
X89487428Y117431429D01*
X89916000Y117431429D02*
X89916000Y118931429D01*
X89773142Y118717143D01*
X89630285Y118574286D01*
X89487428Y118502858D01*
X86534571Y117431429D02*
X85677428Y117431429D01*
X86106000Y117431429D02*
X86106000Y118931429D01*
X85963142Y118717143D01*
X85820285Y118574286D01*
X85677428Y118502858D01*
X89844571Y108644429D02*
X89987428Y108644429D01*
X90130285Y108573000D01*
X90201714Y108501572D01*
X90273142Y108358715D01*
X90344571Y108073000D01*
X90344571Y107715858D01*
X90273142Y107430143D01*
X90201714Y107287286D01*
X90130285Y107215858D01*
X89987428Y107144429D01*
X89844571Y107144429D01*
X89701714Y107215858D01*
X89630285Y107287286D01*
X89558857Y107430143D01*
X89487428Y107715858D01*
X89487428Y108073000D01*
X89558857Y108358715D01*
X89630285Y108501572D01*
X89701714Y108573000D01*
X89844571Y108644429D01*
X85907571Y108771429D02*
X86050428Y108771429D01*
X86193285Y108700000D01*
X86264714Y108628572D01*
X86336142Y108485715D01*
X86407571Y108200000D01*
X86407571Y107842858D01*
X86336142Y107557143D01*
X86264714Y107414286D01*
X86193285Y107342858D01*
X86050428Y107271429D01*
X85907571Y107271429D01*
X85764714Y107342858D01*
X85693285Y107414286D01*
X85621857Y107557143D01*
X85550428Y107842858D01*
X85550428Y108200000D01*
X85621857Y108485715D01*
X85693285Y108628572D01*
X85764714Y108700000D01*
X85907571Y108771429D01*
D10*
X8040952Y102941381D02*
X8088571Y102989000D01*
X8183809Y103036620D01*
X8421904Y103036620D01*
X8517142Y102989000D01*
X8564761Y102941381D01*
X8612380Y102846143D01*
X8612380Y102750905D01*
X8564761Y102608048D01*
X7993333Y102036620D01*
X8612380Y102036620D01*
X8993333Y102941381D02*
X9040952Y102989000D01*
X9136190Y103036620D01*
X9374285Y103036620D01*
X9469523Y102989000D01*
X9517142Y102941381D01*
X9564761Y102846143D01*
X9564761Y102750905D01*
X9517142Y102608048D01*
X8945714Y102036620D01*
X9564761Y102036620D01*
X10183809Y103036620D02*
X10279047Y103036620D01*
X10374285Y102989000D01*
X10421904Y102941381D01*
X10469523Y102846143D01*
X10517142Y102655667D01*
X10517142Y102417572D01*
X10469523Y102227096D01*
X10421904Y102131858D01*
X10374285Y102084239D01*
X10279047Y102036620D01*
X10183809Y102036620D01*
X10088571Y102084239D01*
X10040952Y102131858D01*
X9993333Y102227096D01*
X9945714Y102417572D01*
X9945714Y102655667D01*
X9993333Y102846143D01*
X10040952Y102941381D01*
X10088571Y102989000D01*
X10183809Y103036620D01*
X10945714Y102703286D02*
X10945714Y101703286D01*
X10945714Y102655667D02*
X11040952Y102703286D01*
X11231428Y102703286D01*
X11326666Y102655667D01*
X11374285Y102608048D01*
X11421904Y102512810D01*
X11421904Y102227096D01*
X11374285Y102131858D01*
X11326666Y102084239D01*
X11231428Y102036620D01*
X11040952Y102036620D01*
X10945714Y102084239D01*
X12183809Y102560429D02*
X11850476Y102560429D01*
X11850476Y102036620D02*
X11850476Y103036620D01*
X12326666Y103036620D01*
X19653333Y102036620D02*
X19081904Y102036620D01*
X19367619Y102036620D02*
X19367619Y103036620D01*
X19272380Y102893762D01*
X19177142Y102798524D01*
X19081904Y102750905D01*
X20272380Y103036620D02*
X20367619Y103036620D01*
X20462857Y102989000D01*
X20510476Y102941381D01*
X20558095Y102846143D01*
X20605714Y102655667D01*
X20605714Y102417572D01*
X20558095Y102227096D01*
X20510476Y102131858D01*
X20462857Y102084239D01*
X20367619Y102036620D01*
X20272380Y102036620D01*
X20177142Y102084239D01*
X20129523Y102131858D01*
X20081904Y102227096D01*
X20034285Y102417572D01*
X20034285Y102655667D01*
X20081904Y102846143D01*
X20129523Y102941381D01*
X20177142Y102989000D01*
X20272380Y103036620D01*
X21224761Y103036620D02*
X21320000Y103036620D01*
X21415238Y102989000D01*
X21462857Y102941381D01*
X21510476Y102846143D01*
X21558095Y102655667D01*
X21558095Y102417572D01*
X21510476Y102227096D01*
X21462857Y102131858D01*
X21415238Y102084239D01*
X21320000Y102036620D01*
X21224761Y102036620D01*
X21129523Y102084239D01*
X21081904Y102131858D01*
X21034285Y102227096D01*
X20986666Y102417572D01*
X20986666Y102655667D01*
X21034285Y102846143D01*
X21081904Y102941381D01*
X21129523Y102989000D01*
X21224761Y103036620D01*
X51403333Y27106620D02*
X50831904Y27106620D01*
X51117619Y27106620D02*
X51117619Y28106620D01*
X51022380Y27963762D01*
X50927142Y27868524D01*
X50831904Y27820905D01*
X51784285Y27154239D02*
X51927142Y27106620D01*
X52165238Y27106620D01*
X52260476Y27154239D01*
X52308095Y27201858D01*
X52355714Y27297096D01*
X52355714Y27392334D01*
X52308095Y27487572D01*
X52260476Y27535191D01*
X52165238Y27582810D01*
X51974761Y27630429D01*
X51879523Y27678048D01*
X51831904Y27725667D01*
X51784285Y27820905D01*
X51784285Y27916143D01*
X51831904Y28011381D01*
X51879523Y28059000D01*
X51974761Y28106620D01*
X52212857Y28106620D01*
X52355714Y28059000D01*
X53212857Y27773286D02*
X53212857Y27106620D01*
X52974761Y28154239D02*
X52736666Y27439953D01*
X53355714Y27439953D01*
X51403333Y19486620D02*
X50831904Y19486620D01*
X51117619Y19486620D02*
X51117619Y20486620D01*
X51022380Y20343762D01*
X50927142Y20248524D01*
X50831904Y20200905D01*
X51784285Y19534239D02*
X51927142Y19486620D01*
X52165238Y19486620D01*
X52260476Y19534239D01*
X52308095Y19581858D01*
X52355714Y19677096D01*
X52355714Y19772334D01*
X52308095Y19867572D01*
X52260476Y19915191D01*
X52165238Y19962810D01*
X51974761Y20010429D01*
X51879523Y20058048D01*
X51831904Y20105667D01*
X51784285Y20200905D01*
X51784285Y20296143D01*
X51831904Y20391381D01*
X51879523Y20439000D01*
X51974761Y20486620D01*
X52212857Y20486620D01*
X52355714Y20439000D01*
X53212857Y20153286D02*
X53212857Y19486620D01*
X52974761Y20534239D02*
X52736666Y19819953D01*
X53355714Y19819953D01*
X81089761Y34821858D02*
X81042142Y34774239D01*
X80899285Y34726620D01*
X80804047Y34726620D01*
X80661190Y34774239D01*
X80565952Y34869477D01*
X80518333Y34964715D01*
X80470714Y35155191D01*
X80470714Y35298048D01*
X80518333Y35488524D01*
X80565952Y35583762D01*
X80661190Y35679000D01*
X80804047Y35726620D01*
X80899285Y35726620D01*
X81042142Y35679000D01*
X81089761Y35631381D01*
X82089761Y34726620D02*
X81756428Y35202810D01*
X81518333Y34726620D02*
X81518333Y35726620D01*
X81899285Y35726620D01*
X81994523Y35679000D01*
X82042142Y35631381D01*
X82089761Y35536143D01*
X82089761Y35393286D01*
X82042142Y35298048D01*
X81994523Y35250429D01*
X81899285Y35202810D01*
X81518333Y35202810D01*
X82470714Y35631381D02*
X82518333Y35679000D01*
X82613571Y35726620D01*
X82851666Y35726620D01*
X82946904Y35679000D01*
X82994523Y35631381D01*
X83042142Y35536143D01*
X83042142Y35440905D01*
X82994523Y35298048D01*
X82423095Y34726620D01*
X83042142Y34726620D01*
X83661190Y35726620D02*
X83756428Y35726620D01*
X83851666Y35679000D01*
X83899285Y35631381D01*
X83946904Y35536143D01*
X83994523Y35345667D01*
X83994523Y35107572D01*
X83946904Y34917096D01*
X83899285Y34821858D01*
X83851666Y34774239D01*
X83756428Y34726620D01*
X83661190Y34726620D01*
X83565952Y34774239D01*
X83518333Y34821858D01*
X83470714Y34917096D01*
X83423095Y35107572D01*
X83423095Y35345667D01*
X83470714Y35536143D01*
X83518333Y35631381D01*
X83565952Y35679000D01*
X83661190Y35726620D01*
X84327857Y35726620D02*
X84946904Y35726620D01*
X84613571Y35345667D01*
X84756428Y35345667D01*
X84851666Y35298048D01*
X84899285Y35250429D01*
X84946904Y35155191D01*
X84946904Y34917096D01*
X84899285Y34821858D01*
X84851666Y34774239D01*
X84756428Y34726620D01*
X84470714Y34726620D01*
X84375476Y34774239D01*
X84327857Y34821858D01*
X85327857Y35631381D02*
X85375476Y35679000D01*
X85470714Y35726620D01*
X85708809Y35726620D01*
X85804047Y35679000D01*
X85851666Y35631381D01*
X85899285Y35536143D01*
X85899285Y35440905D01*
X85851666Y35298048D01*
X85280238Y34726620D01*
X85899285Y34726620D01*
X49157142Y41441620D02*
X49252380Y41441620D01*
X49347619Y41394000D01*
X49395238Y41346381D01*
X49442857Y41251143D01*
X49490476Y41060667D01*
X49490476Y40822572D01*
X49442857Y40632096D01*
X49395238Y40536858D01*
X49347619Y40489239D01*
X49252380Y40441620D01*
X49157142Y40441620D01*
X49061904Y40489239D01*
X49014285Y40536858D01*
X48966666Y40632096D01*
X48919047Y40822572D01*
X48919047Y41060667D01*
X48966666Y41251143D01*
X49014285Y41346381D01*
X49061904Y41394000D01*
X49157142Y41441620D01*
X49919047Y40536858D02*
X49966666Y40489239D01*
X49919047Y40441620D01*
X49871428Y40489239D01*
X49919047Y40536858D01*
X49919047Y40441620D01*
X50919047Y40441620D02*
X50347619Y40441620D01*
X50633333Y40441620D02*
X50633333Y41441620D01*
X50538095Y41298762D01*
X50442857Y41203524D01*
X50347619Y41155905D01*
X51776190Y41108286D02*
X51776190Y40441620D01*
X51347619Y41108286D02*
X51347619Y40584477D01*
X51395238Y40489239D01*
X51490476Y40441620D01*
X51633333Y40441620D01*
X51728571Y40489239D01*
X51776190Y40536858D01*
X52585714Y40965429D02*
X52252380Y40965429D01*
X52252380Y40441620D02*
X52252380Y41441620D01*
X52728571Y41441620D01*
X80907142Y44616620D02*
X81002380Y44616620D01*
X81097619Y44569000D01*
X81145238Y44521381D01*
X81192857Y44426143D01*
X81240476Y44235667D01*
X81240476Y43997572D01*
X81192857Y43807096D01*
X81145238Y43711858D01*
X81097619Y43664239D01*
X81002380Y43616620D01*
X80907142Y43616620D01*
X80811904Y43664239D01*
X80764285Y43711858D01*
X80716666Y43807096D01*
X80669047Y43997572D01*
X80669047Y44235667D01*
X80716666Y44426143D01*
X80764285Y44521381D01*
X80811904Y44569000D01*
X80907142Y44616620D01*
X81669047Y43711858D02*
X81716666Y43664239D01*
X81669047Y43616620D01*
X81621428Y43664239D01*
X81669047Y43711858D01*
X81669047Y43616620D01*
X82669047Y43616620D02*
X82097619Y43616620D01*
X82383333Y43616620D02*
X82383333Y44616620D01*
X82288095Y44473762D01*
X82192857Y44378524D01*
X82097619Y44330905D01*
X83526190Y44283286D02*
X83526190Y43616620D01*
X83097619Y44283286D02*
X83097619Y43759477D01*
X83145238Y43664239D01*
X83240476Y43616620D01*
X83383333Y43616620D01*
X83478571Y43664239D01*
X83526190Y43711858D01*
X84335714Y44140429D02*
X84002380Y44140429D01*
X84002380Y43616620D02*
X84002380Y44616620D01*
X84478571Y44616620D01*
X104402142Y45251620D02*
X104497380Y45251620D01*
X104592619Y45204000D01*
X104640238Y45156381D01*
X104687857Y45061143D01*
X104735476Y44870667D01*
X104735476Y44632572D01*
X104687857Y44442096D01*
X104640238Y44346858D01*
X104592619Y44299239D01*
X104497380Y44251620D01*
X104402142Y44251620D01*
X104306904Y44299239D01*
X104259285Y44346858D01*
X104211666Y44442096D01*
X104164047Y44632572D01*
X104164047Y44870667D01*
X104211666Y45061143D01*
X104259285Y45156381D01*
X104306904Y45204000D01*
X104402142Y45251620D01*
X105164047Y44346858D02*
X105211666Y44299239D01*
X105164047Y44251620D01*
X105116428Y44299239D01*
X105164047Y44346858D01*
X105164047Y44251620D01*
X106164047Y44251620D02*
X105592619Y44251620D01*
X105878333Y44251620D02*
X105878333Y45251620D01*
X105783095Y45108762D01*
X105687857Y45013524D01*
X105592619Y44965905D01*
X107021190Y44918286D02*
X107021190Y44251620D01*
X106592619Y44918286D02*
X106592619Y44394477D01*
X106640238Y44299239D01*
X106735476Y44251620D01*
X106878333Y44251620D01*
X106973571Y44299239D01*
X107021190Y44346858D01*
X107830714Y44775429D02*
X107497380Y44775429D01*
X107497380Y44251620D02*
X107497380Y45251620D01*
X107973571Y45251620D01*
X106942142Y62396620D02*
X107037380Y62396620D01*
X107132619Y62349000D01*
X107180238Y62301381D01*
X107227857Y62206143D01*
X107275476Y62015667D01*
X107275476Y61777572D01*
X107227857Y61587096D01*
X107180238Y61491858D01*
X107132619Y61444239D01*
X107037380Y61396620D01*
X106942142Y61396620D01*
X106846904Y61444239D01*
X106799285Y61491858D01*
X106751666Y61587096D01*
X106704047Y61777572D01*
X106704047Y62015667D01*
X106751666Y62206143D01*
X106799285Y62301381D01*
X106846904Y62349000D01*
X106942142Y62396620D01*
X107704047Y61491858D02*
X107751666Y61444239D01*
X107704047Y61396620D01*
X107656428Y61444239D01*
X107704047Y61491858D01*
X107704047Y61396620D01*
X108704047Y61396620D02*
X108132619Y61396620D01*
X108418333Y61396620D02*
X108418333Y62396620D01*
X108323095Y62253762D01*
X108227857Y62158524D01*
X108132619Y62110905D01*
X109561190Y62063286D02*
X109561190Y61396620D01*
X109132619Y62063286D02*
X109132619Y61539477D01*
X109180238Y61444239D01*
X109275476Y61396620D01*
X109418333Y61396620D01*
X109513571Y61444239D01*
X109561190Y61491858D01*
X110370714Y61920429D02*
X110037380Y61920429D01*
X110037380Y61396620D02*
X110037380Y62396620D01*
X110513571Y62396620D01*
X66937142Y62396620D02*
X67032380Y62396620D01*
X67127619Y62349000D01*
X67175238Y62301381D01*
X67222857Y62206143D01*
X67270476Y62015667D01*
X67270476Y61777572D01*
X67222857Y61587096D01*
X67175238Y61491858D01*
X67127619Y61444239D01*
X67032380Y61396620D01*
X66937142Y61396620D01*
X66841904Y61444239D01*
X66794285Y61491858D01*
X66746666Y61587096D01*
X66699047Y61777572D01*
X66699047Y62015667D01*
X66746666Y62206143D01*
X66794285Y62301381D01*
X66841904Y62349000D01*
X66937142Y62396620D01*
X67699047Y61491858D02*
X67746666Y61444239D01*
X67699047Y61396620D01*
X67651428Y61444239D01*
X67699047Y61491858D01*
X67699047Y61396620D01*
X68699047Y61396620D02*
X68127619Y61396620D01*
X68413333Y61396620D02*
X68413333Y62396620D01*
X68318095Y62253762D01*
X68222857Y62158524D01*
X68127619Y62110905D01*
X69556190Y62063286D02*
X69556190Y61396620D01*
X69127619Y62063286D02*
X69127619Y61539477D01*
X69175238Y61444239D01*
X69270476Y61396620D01*
X69413333Y61396620D01*
X69508571Y61444239D01*
X69556190Y61491858D01*
X70365714Y61920429D02*
X70032380Y61920429D01*
X70032380Y61396620D02*
X70032380Y62396620D01*
X70508571Y62396620D01*
X28837142Y59856620D02*
X28932380Y59856620D01*
X29027619Y59809000D01*
X29075238Y59761381D01*
X29122857Y59666143D01*
X29170476Y59475667D01*
X29170476Y59237572D01*
X29122857Y59047096D01*
X29075238Y58951858D01*
X29027619Y58904239D01*
X28932380Y58856620D01*
X28837142Y58856620D01*
X28741904Y58904239D01*
X28694285Y58951858D01*
X28646666Y59047096D01*
X28599047Y59237572D01*
X28599047Y59475667D01*
X28646666Y59666143D01*
X28694285Y59761381D01*
X28741904Y59809000D01*
X28837142Y59856620D01*
X29599047Y58951858D02*
X29646666Y58904239D01*
X29599047Y58856620D01*
X29551428Y58904239D01*
X29599047Y58951858D01*
X29599047Y58856620D01*
X30599047Y58856620D02*
X30027619Y58856620D01*
X30313333Y58856620D02*
X30313333Y59856620D01*
X30218095Y59713762D01*
X30122857Y59618524D01*
X30027619Y59570905D01*
X31456190Y59523286D02*
X31456190Y58856620D01*
X31027619Y59523286D02*
X31027619Y58999477D01*
X31075238Y58904239D01*
X31170476Y58856620D01*
X31313333Y58856620D01*
X31408571Y58904239D01*
X31456190Y58951858D01*
X32265714Y59380429D02*
X31932380Y59380429D01*
X31932380Y58856620D02*
X31932380Y59856620D01*
X32408571Y59856620D01*
X28837142Y74461620D02*
X28932380Y74461620D01*
X29027619Y74414000D01*
X29075238Y74366381D01*
X29122857Y74271143D01*
X29170476Y74080667D01*
X29170476Y73842572D01*
X29122857Y73652096D01*
X29075238Y73556858D01*
X29027619Y73509239D01*
X28932380Y73461620D01*
X28837142Y73461620D01*
X28741904Y73509239D01*
X28694285Y73556858D01*
X28646666Y73652096D01*
X28599047Y73842572D01*
X28599047Y74080667D01*
X28646666Y74271143D01*
X28694285Y74366381D01*
X28741904Y74414000D01*
X28837142Y74461620D01*
X29599047Y73556858D02*
X29646666Y73509239D01*
X29599047Y73461620D01*
X29551428Y73509239D01*
X29599047Y73556858D01*
X29599047Y73461620D01*
X30599047Y73461620D02*
X30027619Y73461620D01*
X30313333Y73461620D02*
X30313333Y74461620D01*
X30218095Y74318762D01*
X30122857Y74223524D01*
X30027619Y74175905D01*
X31456190Y74128286D02*
X31456190Y73461620D01*
X31027619Y74128286D02*
X31027619Y73604477D01*
X31075238Y73509239D01*
X31170476Y73461620D01*
X31313333Y73461620D01*
X31408571Y73509239D01*
X31456190Y73556858D01*
X32265714Y73985429D02*
X31932380Y73985429D01*
X31932380Y73461620D02*
X31932380Y74461620D01*
X32408571Y74461620D01*
X66937142Y77636620D02*
X67032380Y77636620D01*
X67127619Y77589000D01*
X67175238Y77541381D01*
X67222857Y77446143D01*
X67270476Y77255667D01*
X67270476Y77017572D01*
X67222857Y76827096D01*
X67175238Y76731858D01*
X67127619Y76684239D01*
X67032380Y76636620D01*
X66937142Y76636620D01*
X66841904Y76684239D01*
X66794285Y76731858D01*
X66746666Y76827096D01*
X66699047Y77017572D01*
X66699047Y77255667D01*
X66746666Y77446143D01*
X66794285Y77541381D01*
X66841904Y77589000D01*
X66937142Y77636620D01*
X67699047Y76731858D02*
X67746666Y76684239D01*
X67699047Y76636620D01*
X67651428Y76684239D01*
X67699047Y76731858D01*
X67699047Y76636620D01*
X68699047Y76636620D02*
X68127619Y76636620D01*
X68413333Y76636620D02*
X68413333Y77636620D01*
X68318095Y77493762D01*
X68222857Y77398524D01*
X68127619Y77350905D01*
X69556190Y77303286D02*
X69556190Y76636620D01*
X69127619Y77303286D02*
X69127619Y76779477D01*
X69175238Y76684239D01*
X69270476Y76636620D01*
X69413333Y76636620D01*
X69508571Y76684239D01*
X69556190Y76731858D01*
X70365714Y77160429D02*
X70032380Y77160429D01*
X70032380Y76636620D02*
X70032380Y77636620D01*
X70508571Y77636620D01*
X106942142Y77636620D02*
X107037380Y77636620D01*
X107132619Y77589000D01*
X107180238Y77541381D01*
X107227857Y77446143D01*
X107275476Y77255667D01*
X107275476Y77017572D01*
X107227857Y76827096D01*
X107180238Y76731858D01*
X107132619Y76684239D01*
X107037380Y76636620D01*
X106942142Y76636620D01*
X106846904Y76684239D01*
X106799285Y76731858D01*
X106751666Y76827096D01*
X106704047Y77017572D01*
X106704047Y77255667D01*
X106751666Y77446143D01*
X106799285Y77541381D01*
X106846904Y77589000D01*
X106942142Y77636620D01*
X107704047Y76731858D02*
X107751666Y76684239D01*
X107704047Y76636620D01*
X107656428Y76684239D01*
X107704047Y76731858D01*
X107704047Y76636620D01*
X108704047Y76636620D02*
X108132619Y76636620D01*
X108418333Y76636620D02*
X108418333Y77636620D01*
X108323095Y77493762D01*
X108227857Y77398524D01*
X108132619Y77350905D01*
X109561190Y77303286D02*
X109561190Y76636620D01*
X109132619Y77303286D02*
X109132619Y76779477D01*
X109180238Y76684239D01*
X109275476Y76636620D01*
X109418333Y76636620D01*
X109513571Y76684239D01*
X109561190Y76731858D01*
X110370714Y77160429D02*
X110037380Y77160429D01*
X110037380Y76636620D02*
X110037380Y77636620D01*
X110513571Y77636620D01*
X103767142Y93511620D02*
X103862380Y93511620D01*
X103957619Y93464000D01*
X104005238Y93416381D01*
X104052857Y93321143D01*
X104100476Y93130667D01*
X104100476Y92892572D01*
X104052857Y92702096D01*
X104005238Y92606858D01*
X103957619Y92559239D01*
X103862380Y92511620D01*
X103767142Y92511620D01*
X103671904Y92559239D01*
X103624285Y92606858D01*
X103576666Y92702096D01*
X103529047Y92892572D01*
X103529047Y93130667D01*
X103576666Y93321143D01*
X103624285Y93416381D01*
X103671904Y93464000D01*
X103767142Y93511620D01*
X104529047Y92606858D02*
X104576666Y92559239D01*
X104529047Y92511620D01*
X104481428Y92559239D01*
X104529047Y92606858D01*
X104529047Y92511620D01*
X105529047Y92511620D02*
X104957619Y92511620D01*
X105243333Y92511620D02*
X105243333Y93511620D01*
X105148095Y93368762D01*
X105052857Y93273524D01*
X104957619Y93225905D01*
X106386190Y93178286D02*
X106386190Y92511620D01*
X105957619Y93178286D02*
X105957619Y92654477D01*
X106005238Y92559239D01*
X106100476Y92511620D01*
X106243333Y92511620D01*
X106338571Y92559239D01*
X106386190Y92606858D01*
X107195714Y93035429D02*
X106862380Y93035429D01*
X106862380Y92511620D02*
X106862380Y93511620D01*
X107338571Y93511620D01*
X66937142Y93511620D02*
X67032380Y93511620D01*
X67127619Y93464000D01*
X67175238Y93416381D01*
X67222857Y93321143D01*
X67270476Y93130667D01*
X67270476Y92892572D01*
X67222857Y92702096D01*
X67175238Y92606858D01*
X67127619Y92559239D01*
X67032380Y92511620D01*
X66937142Y92511620D01*
X66841904Y92559239D01*
X66794285Y92606858D01*
X66746666Y92702096D01*
X66699047Y92892572D01*
X66699047Y93130667D01*
X66746666Y93321143D01*
X66794285Y93416381D01*
X66841904Y93464000D01*
X66937142Y93511620D01*
X67699047Y92606858D02*
X67746666Y92559239D01*
X67699047Y92511620D01*
X67651428Y92559239D01*
X67699047Y92606858D01*
X67699047Y92511620D01*
X68699047Y92511620D02*
X68127619Y92511620D01*
X68413333Y92511620D02*
X68413333Y93511620D01*
X68318095Y93368762D01*
X68222857Y93273524D01*
X68127619Y93225905D01*
X69556190Y93178286D02*
X69556190Y92511620D01*
X69127619Y93178286D02*
X69127619Y92654477D01*
X69175238Y92559239D01*
X69270476Y92511620D01*
X69413333Y92511620D01*
X69508571Y92559239D01*
X69556190Y92606858D01*
X70365714Y93035429D02*
X70032380Y93035429D01*
X70032380Y92511620D02*
X70032380Y93511620D01*
X70508571Y93511620D01*
X33917142Y90336620D02*
X34012380Y90336620D01*
X34107619Y90289000D01*
X34155238Y90241381D01*
X34202857Y90146143D01*
X34250476Y89955667D01*
X34250476Y89717572D01*
X34202857Y89527096D01*
X34155238Y89431858D01*
X34107619Y89384239D01*
X34012380Y89336620D01*
X33917142Y89336620D01*
X33821904Y89384239D01*
X33774285Y89431858D01*
X33726666Y89527096D01*
X33679047Y89717572D01*
X33679047Y89955667D01*
X33726666Y90146143D01*
X33774285Y90241381D01*
X33821904Y90289000D01*
X33917142Y90336620D01*
X34679047Y89431858D02*
X34726666Y89384239D01*
X34679047Y89336620D01*
X34631428Y89384239D01*
X34679047Y89431858D01*
X34679047Y89336620D01*
X35679047Y89336620D02*
X35107619Y89336620D01*
X35393333Y89336620D02*
X35393333Y90336620D01*
X35298095Y90193762D01*
X35202857Y90098524D01*
X35107619Y90050905D01*
X36536190Y90003286D02*
X36536190Y89336620D01*
X36107619Y90003286D02*
X36107619Y89479477D01*
X36155238Y89384239D01*
X36250476Y89336620D01*
X36393333Y89336620D01*
X36488571Y89384239D01*
X36536190Y89431858D01*
X37345714Y89860429D02*
X37012380Y89860429D01*
X37012380Y89336620D02*
X37012380Y90336620D01*
X37488571Y90336620D01*
X75827142Y110021620D02*
X75922380Y110021620D01*
X76017619Y109974000D01*
X76065238Y109926381D01*
X76112857Y109831143D01*
X76160476Y109640667D01*
X76160476Y109402572D01*
X76112857Y109212096D01*
X76065238Y109116858D01*
X76017619Y109069239D01*
X75922380Y109021620D01*
X75827142Y109021620D01*
X75731904Y109069239D01*
X75684285Y109116858D01*
X75636666Y109212096D01*
X75589047Y109402572D01*
X75589047Y109640667D01*
X75636666Y109831143D01*
X75684285Y109926381D01*
X75731904Y109974000D01*
X75827142Y110021620D01*
X76589047Y109116858D02*
X76636666Y109069239D01*
X76589047Y109021620D01*
X76541428Y109069239D01*
X76589047Y109116858D01*
X76589047Y109021620D01*
X77589047Y109021620D02*
X77017619Y109021620D01*
X77303333Y109021620D02*
X77303333Y110021620D01*
X77208095Y109878762D01*
X77112857Y109783524D01*
X77017619Y109735905D01*
X78446190Y109688286D02*
X78446190Y109021620D01*
X78017619Y109688286D02*
X78017619Y109164477D01*
X78065238Y109069239D01*
X78160476Y109021620D01*
X78303333Y109021620D01*
X78398571Y109069239D01*
X78446190Y109116858D01*
X79255714Y109545429D02*
X78922380Y109545429D01*
X78922380Y109021620D02*
X78922380Y110021620D01*
X79398571Y110021620D01*
X51062142Y110021620D02*
X51157380Y110021620D01*
X51252619Y109974000D01*
X51300238Y109926381D01*
X51347857Y109831143D01*
X51395476Y109640667D01*
X51395476Y109402572D01*
X51347857Y109212096D01*
X51300238Y109116858D01*
X51252619Y109069239D01*
X51157380Y109021620D01*
X51062142Y109021620D01*
X50966904Y109069239D01*
X50919285Y109116858D01*
X50871666Y109212096D01*
X50824047Y109402572D01*
X50824047Y109640667D01*
X50871666Y109831143D01*
X50919285Y109926381D01*
X50966904Y109974000D01*
X51062142Y110021620D01*
X51824047Y109116858D02*
X51871666Y109069239D01*
X51824047Y109021620D01*
X51776428Y109069239D01*
X51824047Y109116858D01*
X51824047Y109021620D01*
X52824047Y109021620D02*
X52252619Y109021620D01*
X52538333Y109021620D02*
X52538333Y110021620D01*
X52443095Y109878762D01*
X52347857Y109783524D01*
X52252619Y109735905D01*
X53681190Y109688286D02*
X53681190Y109021620D01*
X53252619Y109688286D02*
X53252619Y109164477D01*
X53300238Y109069239D01*
X53395476Y109021620D01*
X53538333Y109021620D01*
X53633571Y109069239D01*
X53681190Y109116858D01*
X54490714Y109545429D02*
X54157380Y109545429D01*
X54157380Y109021620D02*
X54157380Y110021620D01*
X54633571Y110021620D01*
X24487380Y119181620D02*
X23915952Y119181620D01*
X24201666Y119181620D02*
X24201666Y120181620D01*
X24106428Y120038762D01*
X24011190Y119943524D01*
X23915952Y119895905D01*
X25106428Y120181620D02*
X25201666Y120181620D01*
X25296904Y120134000D01*
X25344523Y120086381D01*
X25392142Y119991143D01*
X25439761Y119800667D01*
X25439761Y119562572D01*
X25392142Y119372096D01*
X25344523Y119276858D01*
X25296904Y119229239D01*
X25201666Y119181620D01*
X25106428Y119181620D01*
X25011190Y119229239D01*
X24963571Y119276858D01*
X24915952Y119372096D01*
X24868333Y119562572D01*
X24868333Y119800667D01*
X24915952Y119991143D01*
X24963571Y120086381D01*
X25011190Y120134000D01*
X25106428Y120181620D01*
X26058809Y120181620D02*
X26154047Y120181620D01*
X26249285Y120134000D01*
X26296904Y120086381D01*
X26344523Y119991143D01*
X26392142Y119800667D01*
X26392142Y119562572D01*
X26344523Y119372096D01*
X26296904Y119276858D01*
X26249285Y119229239D01*
X26154047Y119181620D01*
X26058809Y119181620D01*
X25963571Y119229239D01*
X25915952Y119276858D01*
X25868333Y119372096D01*
X25820714Y119562572D01*
X25820714Y119800667D01*
X25868333Y119991143D01*
X25915952Y120086381D01*
X25963571Y120134000D01*
X26058809Y120181620D01*
X27249285Y119848286D02*
X27249285Y119181620D01*
X26820714Y119848286D02*
X26820714Y119324477D01*
X26868333Y119229239D01*
X26963571Y119181620D01*
X27106428Y119181620D01*
X27201666Y119229239D01*
X27249285Y119276858D01*
X28058809Y119705429D02*
X27725476Y119705429D01*
X27725476Y119181620D02*
X27725476Y120181620D01*
X28201666Y120181620D01*
X26297142Y110021620D02*
X26392380Y110021620D01*
X26487619Y109974000D01*
X26535238Y109926381D01*
X26582857Y109831143D01*
X26630476Y109640667D01*
X26630476Y109402572D01*
X26582857Y109212096D01*
X26535238Y109116858D01*
X26487619Y109069239D01*
X26392380Y109021620D01*
X26297142Y109021620D01*
X26201904Y109069239D01*
X26154285Y109116858D01*
X26106666Y109212096D01*
X26059047Y109402572D01*
X26059047Y109640667D01*
X26106666Y109831143D01*
X26154285Y109926381D01*
X26201904Y109974000D01*
X26297142Y110021620D01*
X27059047Y109116858D02*
X27106666Y109069239D01*
X27059047Y109021620D01*
X27011428Y109069239D01*
X27059047Y109116858D01*
X27059047Y109021620D01*
X28059047Y109021620D02*
X27487619Y109021620D01*
X27773333Y109021620D02*
X27773333Y110021620D01*
X27678095Y109878762D01*
X27582857Y109783524D01*
X27487619Y109735905D01*
X28916190Y109688286D02*
X28916190Y109021620D01*
X28487619Y109688286D02*
X28487619Y109164477D01*
X28535238Y109069239D01*
X28630476Y109021620D01*
X28773333Y109021620D01*
X28868571Y109069239D01*
X28916190Y109116858D01*
X29725714Y109545429D02*
X29392380Y109545429D01*
X29392380Y109021620D02*
X29392380Y110021620D01*
X29868571Y110021620D01*
D12*
X30832619Y4802143D02*
X32165952Y4802143D01*
X32737380Y2183096D02*
X30832619Y2183096D01*
X30832619Y7183096D01*
X32737380Y7183096D01*
X34451666Y2183096D02*
X34451666Y7183096D01*
X35785000Y3611667D01*
X37118333Y7183096D01*
X37118333Y2183096D01*
X39023095Y2183096D02*
X39023095Y7183096D01*
X40356428Y3611667D01*
X41689761Y7183096D01*
X41689761Y2183096D01*
X46070714Y5516429D02*
X47594523Y5516429D01*
X46642142Y2183096D02*
X46642142Y6468810D01*
X46832619Y6945000D01*
X47213571Y7183096D01*
X47594523Y7183096D01*
X49499285Y2183096D02*
X49118333Y2421191D01*
X48927857Y2659286D01*
X48737380Y3135477D01*
X48737380Y4564048D01*
X48927857Y5040239D01*
X49118333Y5278334D01*
X49499285Y5516429D01*
X50070714Y5516429D01*
X50451666Y5278334D01*
X50642142Y5040239D01*
X50832619Y4564048D01*
X50832619Y3135477D01*
X50642142Y2659286D01*
X50451666Y2421191D01*
X50070714Y2183096D01*
X49499285Y2183096D01*
X52546904Y2183096D02*
X52546904Y5516429D01*
X52546904Y4564048D02*
X52737380Y5040239D01*
X52927857Y5278334D01*
X53308809Y5516429D01*
X53689761Y5516429D01*
X58070714Y2183096D02*
X58070714Y7183096D01*
X59404047Y3611667D01*
X60737380Y7183096D01*
X60737380Y2183096D01*
X62261190Y7183096D02*
X64927857Y7183096D01*
X62261190Y2183096D01*
X64927857Y2183096D01*
X66451666Y4087858D02*
X69499285Y4087858D01*
X71213571Y6706905D02*
X71404047Y6945000D01*
X71785000Y7183096D01*
X72737380Y7183096D01*
X73118333Y6945000D01*
X73308809Y6706905D01*
X73499285Y6230715D01*
X73499285Y5754524D01*
X73308809Y5040239D01*
X71023095Y2183096D01*
X73499285Y2183096D01*
X75975476Y7183096D02*
X76356428Y7183096D01*
X76737380Y6945000D01*
X76927857Y6706905D01*
X77118333Y6230715D01*
X77308809Y5278334D01*
X77308809Y4087858D01*
X77118333Y3135477D01*
X76927857Y2659286D01*
X76737380Y2421191D01*
X76356428Y2183096D01*
X75975476Y2183096D01*
X75594523Y2421191D01*
X75404047Y2659286D01*
X75213571Y3135477D01*
X75023095Y4087858D01*
X75023095Y5278334D01*
X75213571Y6230715D01*
X75404047Y6706905D01*
X75594523Y6945000D01*
X75975476Y7183096D01*
X79785000Y7183096D02*
X80165952Y7183096D01*
X80546904Y6945000D01*
X80737380Y6706905D01*
X80927857Y6230715D01*
X81118333Y5278334D01*
X81118333Y4087858D01*
X80927857Y3135477D01*
X80737380Y2659286D01*
X80546904Y2421191D01*
X80165952Y2183096D01*
X79785000Y2183096D01*
X79404047Y2421191D01*
X79213571Y2659286D01*
X79023095Y3135477D01*
X78832619Y4087858D01*
X78832619Y5278334D01*
X79023095Y6230715D01*
X79213571Y6706905D01*
X79404047Y6945000D01*
X79785000Y7183096D01*
X83594523Y7183096D02*
X83975476Y7183096D01*
X84356428Y6945000D01*
X84546904Y6706905D01*
X84737380Y6230715D01*
X84927857Y5278334D01*
X84927857Y4087858D01*
X84737380Y3135477D01*
X84546904Y2659286D01*
X84356428Y2421191D01*
X83975476Y2183096D01*
X83594523Y2183096D01*
X83213571Y2421191D01*
X83023095Y2659286D01*
X82832619Y3135477D01*
X82642142Y4087858D01*
X82642142Y5278334D01*
X82832619Y6230715D01*
X83023095Y6706905D01*
X83213571Y6945000D01*
X83594523Y7183096D01*
D13*
X75465000Y110890000D02*
X75465000Y115130000D01*
X78205000Y110890000D02*
X78205000Y115130000D01*
X75465000Y110890000D02*
X76170000Y110890000D01*
X77500000Y110890000D02*
X78205000Y110890000D01*
X75465000Y115130000D02*
X76170000Y115130000D01*
X77500000Y115130000D02*
X78205000Y115130000D01*
X35590000Y95445000D02*
X36295000Y95445000D01*
X33555000Y95445000D02*
X34260000Y95445000D01*
X35590000Y91205000D02*
X36295000Y91205000D01*
X33555000Y91205000D02*
X34260000Y91205000D01*
X36295000Y91205000D02*
X36295000Y95445000D01*
X33555000Y91205000D02*
X33555000Y95445000D01*
X66575000Y94380000D02*
X66575000Y98620000D01*
X69315000Y94380000D02*
X69315000Y98620000D01*
X66575000Y94380000D02*
X67280000Y94380000D01*
X68610000Y94380000D02*
X69315000Y94380000D01*
X66575000Y98620000D02*
X67280000Y98620000D01*
X68610000Y98620000D02*
X69315000Y98620000D01*
X28475000Y75330000D02*
X28475000Y79570000D01*
X31215000Y75330000D02*
X31215000Y79570000D01*
X28475000Y75330000D02*
X29180000Y75330000D01*
X30510000Y75330000D02*
X31215000Y75330000D01*
X28475000Y79570000D02*
X29180000Y79570000D01*
X30510000Y79570000D02*
X31215000Y79570000D01*
X68610000Y82745000D02*
X69315000Y82745000D01*
X66575000Y82745000D02*
X67280000Y82745000D01*
X68610000Y78505000D02*
X69315000Y78505000D01*
X66575000Y78505000D02*
X67280000Y78505000D01*
X69315000Y78505000D02*
X69315000Y82745000D01*
X66575000Y78505000D02*
X66575000Y82745000D01*
X28475000Y60725000D02*
X28475000Y64965000D01*
X31215000Y60725000D02*
X31215000Y64965000D01*
X28475000Y60725000D02*
X29180000Y60725000D01*
X30510000Y60725000D02*
X31215000Y60725000D01*
X28475000Y64965000D02*
X29180000Y64965000D01*
X30510000Y64965000D02*
X31215000Y64965000D01*
X68610000Y67505000D02*
X69315000Y67505000D01*
X66575000Y67505000D02*
X67280000Y67505000D01*
X68610000Y63265000D02*
X69315000Y63265000D01*
X66575000Y63265000D02*
X67280000Y63265000D01*
X69315000Y63265000D02*
X69315000Y67505000D01*
X66575000Y63265000D02*
X66575000Y67505000D01*
X49430000Y42310000D02*
X49430000Y46550000D01*
X52170000Y42310000D02*
X52170000Y46550000D01*
X49430000Y42310000D02*
X50135000Y42310000D01*
X51465000Y42310000D02*
X52170000Y42310000D01*
X49430000Y46550000D02*
X50135000Y46550000D01*
X51465000Y46550000D02*
X52170000Y46550000D01*
X82580000Y50360000D02*
X83285000Y50360000D01*
X80545000Y50360000D02*
X81250000Y50360000D01*
X82580000Y46120000D02*
X83285000Y46120000D01*
X80545000Y46120000D02*
X81250000Y46120000D01*
X83285000Y46120000D02*
X83285000Y50360000D01*
X80545000Y46120000D02*
X80545000Y50360000D01*
X8060000Y105440000D02*
X8060000Y106145000D01*
X8060000Y103405000D02*
X8060000Y104110000D01*
X12300000Y105440000D02*
X12300000Y106145000D01*
X12300000Y103405000D02*
X12300000Y104110000D01*
X12300000Y106145000D02*
X8060000Y106145000D01*
X12300000Y103405000D02*
X8060000Y103405000D01*
X29607500Y123591000D02*
G75*
G03*
X29607500Y123591000I-2620000J0D01*
G01*
X29567500Y123591000D02*
X24407500Y123591000D01*
X29567500Y123551000D02*
X24407500Y123551000D01*
X29566500Y123511000D02*
X24408500Y123511000D01*
X29565500Y123471000D02*
X24409500Y123471000D01*
X29563500Y123431000D02*
X24411500Y123431000D01*
X29560500Y123391000D02*
X24414500Y123391000D01*
X29556500Y123351000D02*
X28027500Y123351000D01*
X25947500Y123351000D02*
X24418500Y123351000D01*
X29552500Y123311000D02*
X28027500Y123311000D01*
X25947500Y123311000D02*
X24422500Y123311000D01*
X29548500Y123271000D02*
X28027500Y123271000D01*
X25947500Y123271000D02*
X24426500Y123271000D01*
X29543500Y123231000D02*
X28027500Y123231000D01*
X25947500Y123231000D02*
X24431500Y123231000D01*
X29537500Y123191000D02*
X28027500Y123191000D01*
X25947500Y123191000D02*
X24437500Y123191000D01*
X29530500Y123151000D02*
X28027500Y123151000D01*
X25947500Y123151000D02*
X24444500Y123151000D01*
X29523500Y123111000D02*
X28027500Y123111000D01*
X25947500Y123111000D02*
X24451500Y123111000D01*
X29515500Y123071000D02*
X28027500Y123071000D01*
X25947500Y123071000D02*
X24459500Y123071000D01*
X29507500Y123031000D02*
X28027500Y123031000D01*
X25947500Y123031000D02*
X24467500Y123031000D01*
X29498500Y122991000D02*
X28027500Y122991000D01*
X25947500Y122991000D02*
X24476500Y122991000D01*
X29488500Y122951000D02*
X28027500Y122951000D01*
X25947500Y122951000D02*
X24486500Y122951000D01*
X29478500Y122911000D02*
X28027500Y122911000D01*
X25947500Y122911000D02*
X24496500Y122911000D01*
X29467500Y122870000D02*
X28027500Y122870000D01*
X25947500Y122870000D02*
X24507500Y122870000D01*
X29455500Y122830000D02*
X28027500Y122830000D01*
X25947500Y122830000D02*
X24519500Y122830000D01*
X29442500Y122790000D02*
X28027500Y122790000D01*
X25947500Y122790000D02*
X24532500Y122790000D01*
X29429500Y122750000D02*
X28027500Y122750000D01*
X25947500Y122750000D02*
X24545500Y122750000D01*
X29415500Y122710000D02*
X28027500Y122710000D01*
X25947500Y122710000D02*
X24559500Y122710000D01*
X29401500Y122670000D02*
X28027500Y122670000D01*
X25947500Y122670000D02*
X24573500Y122670000D01*
X29385500Y122630000D02*
X28027500Y122630000D01*
X25947500Y122630000D02*
X24589500Y122630000D01*
X29369500Y122590000D02*
X28027500Y122590000D01*
X25947500Y122590000D02*
X24605500Y122590000D01*
X29352500Y122550000D02*
X28027500Y122550000D01*
X25947500Y122550000D02*
X24622500Y122550000D01*
X29335500Y122510000D02*
X28027500Y122510000D01*
X25947500Y122510000D02*
X24639500Y122510000D01*
X29316500Y122470000D02*
X28027500Y122470000D01*
X25947500Y122470000D02*
X24658500Y122470000D01*
X29297500Y122430000D02*
X28027500Y122430000D01*
X25947500Y122430000D02*
X24677500Y122430000D01*
X29277500Y122390000D02*
X28027500Y122390000D01*
X25947500Y122390000D02*
X24697500Y122390000D01*
X29255500Y122350000D02*
X28027500Y122350000D01*
X25947500Y122350000D02*
X24719500Y122350000D01*
X29234500Y122310000D02*
X28027500Y122310000D01*
X25947500Y122310000D02*
X24740500Y122310000D01*
X29211500Y122270000D02*
X28027500Y122270000D01*
X25947500Y122270000D02*
X24763500Y122270000D01*
X29187500Y122230000D02*
X28027500Y122230000D01*
X25947500Y122230000D02*
X24787500Y122230000D01*
X29162500Y122190000D02*
X28027500Y122190000D01*
X25947500Y122190000D02*
X24812500Y122190000D01*
X29136500Y122150000D02*
X28027500Y122150000D01*
X25947500Y122150000D02*
X24838500Y122150000D01*
X29109500Y122110000D02*
X28027500Y122110000D01*
X25947500Y122110000D02*
X24865500Y122110000D01*
X29082500Y122070000D02*
X28027500Y122070000D01*
X25947500Y122070000D02*
X24892500Y122070000D01*
X29052500Y122030000D02*
X28027500Y122030000D01*
X25947500Y122030000D02*
X24922500Y122030000D01*
X29022500Y121990000D02*
X28027500Y121990000D01*
X25947500Y121990000D02*
X24952500Y121990000D01*
X28991500Y121950000D02*
X28027500Y121950000D01*
X25947500Y121950000D02*
X24983500Y121950000D01*
X28958500Y121910000D02*
X28027500Y121910000D01*
X25947500Y121910000D02*
X25016500Y121910000D01*
X28924500Y121870000D02*
X28027500Y121870000D01*
X25947500Y121870000D02*
X25050500Y121870000D01*
X28888500Y121830000D02*
X28027500Y121830000D01*
X25947500Y121830000D02*
X25086500Y121830000D01*
X28851500Y121790000D02*
X28027500Y121790000D01*
X25947500Y121790000D02*
X25123500Y121790000D01*
X28813500Y121750000D02*
X28027500Y121750000D01*
X25947500Y121750000D02*
X25161500Y121750000D01*
X28772500Y121710000D02*
X28027500Y121710000D01*
X25947500Y121710000D02*
X25202500Y121710000D01*
X28730500Y121670000D02*
X28027500Y121670000D01*
X25947500Y121670000D02*
X25244500Y121670000D01*
X28686500Y121630000D02*
X28027500Y121630000D01*
X25947500Y121630000D02*
X25288500Y121630000D01*
X28640500Y121590000D02*
X28027500Y121590000D01*
X25947500Y121590000D02*
X25334500Y121590000D01*
X28592500Y121550000D02*
X28027500Y121550000D01*
X25947500Y121550000D02*
X25382500Y121550000D01*
X28541500Y121510000D02*
X28027500Y121510000D01*
X25947500Y121510000D02*
X25433500Y121510000D01*
X28487500Y121470000D02*
X28027500Y121470000D01*
X25947500Y121470000D02*
X25487500Y121470000D01*
X28430500Y121430000D02*
X28027500Y121430000D01*
X25947500Y121430000D02*
X25544500Y121430000D01*
X28370500Y121390000D02*
X28027500Y121390000D01*
X25947500Y121390000D02*
X25604500Y121390000D01*
X28306500Y121350000D02*
X28027500Y121350000D01*
X25947500Y121350000D02*
X25668500Y121350000D01*
X28238500Y121310000D02*
X28027500Y121310000D01*
X25947500Y121310000D02*
X25736500Y121310000D01*
X28165500Y121270000D02*
X25809500Y121270000D01*
X28085500Y121230000D02*
X25889500Y121230000D01*
X27998500Y121190000D02*
X25976500Y121190000D01*
X27902500Y121150000D02*
X26072500Y121150000D01*
X27792500Y121110000D02*
X26182500Y121110000D01*
X27664500Y121070000D02*
X26310500Y121070000D01*
X27505500Y121030000D02*
X26469500Y121030000D01*
X27271500Y120990000D02*
X26703500Y120990000D01*
X28462500Y126395775D02*
X28462500Y125895775D01*
X28712500Y126145775D02*
X28212500Y126145775D01*
X50130000Y23695000D02*
X50130000Y20755000D01*
X50370000Y23695000D02*
X50370000Y20755000D01*
X50250000Y23695000D02*
X50250000Y20755000D01*
X55810000Y22225000D02*
X54790000Y22225000D01*
X48330000Y22225000D02*
X49350000Y22225000D01*
X54790000Y23695000D02*
X49350000Y23695000D01*
X54790000Y20755000D02*
X54790000Y23695000D01*
X49350000Y20755000D02*
X54790000Y20755000D01*
X49350000Y23695000D02*
X49350000Y20755000D01*
X49350000Y31315000D02*
X49350000Y28375000D01*
X49350000Y28375000D02*
X54790000Y28375000D01*
X54790000Y28375000D02*
X54790000Y31315000D01*
X54790000Y31315000D02*
X49350000Y31315000D01*
X48330000Y29845000D02*
X49350000Y29845000D01*
X55810000Y29845000D02*
X54790000Y29845000D01*
X50250000Y31315000D02*
X50250000Y28375000D01*
X50370000Y31315000D02*
X50370000Y28375000D01*
X50130000Y31315000D02*
X50130000Y28375000D01*
X23590000Y103735000D02*
X23590000Y103405000D01*
X23590000Y103405000D02*
X17050000Y103405000D01*
X17050000Y103405000D02*
X17050000Y103735000D01*
X23590000Y105815000D02*
X23590000Y106145000D01*
X23590000Y106145000D02*
X17050000Y106145000D01*
X17050000Y106145000D02*
X17050000Y105815000D01*
X25460000Y114030000D02*
X25460000Y115280000D01*
X25460000Y115280000D02*
X7560000Y115280000D01*
X7560000Y115280000D02*
X7560000Y110780000D01*
X7560000Y110780000D02*
X25460000Y110780000D01*
X25460000Y110780000D02*
X25460000Y112030000D01*
X25460000Y112030000D02*
G75*
G02*
X25460000Y114030000I0J1000000D01*
G01*
X33080000Y91095000D02*
X33080000Y92345000D01*
X7560000Y91095000D02*
X33080000Y91095000D01*
X7560000Y95595000D02*
X7560000Y91095000D01*
X33080000Y95595000D02*
X7560000Y95595000D01*
X33080000Y94345000D02*
X33080000Y95595000D01*
X33080000Y92345000D02*
G75*
G02*
X33080000Y94345000I0J1000000D01*
G01*
X66100000Y97520000D02*
X66100000Y98770000D01*
X66100000Y98770000D02*
X45660000Y98770000D01*
X45660000Y98770000D02*
X45660000Y94270000D01*
X45660000Y94270000D02*
X66100000Y94270000D01*
X66100000Y94270000D02*
X66100000Y95520000D01*
X66100000Y95520000D02*
G75*
G02*
X66100000Y97520000I0J1000000D01*
G01*
X28000000Y75220000D02*
X28000000Y76470000D01*
X7560000Y75220000D02*
X28000000Y75220000D01*
X7560000Y79720000D02*
X7560000Y75220000D01*
X28000000Y79720000D02*
X7560000Y79720000D01*
X28000000Y78470000D02*
X28000000Y79720000D01*
X28000000Y76470000D02*
G75*
G02*
X28000000Y78470000I0J1000000D01*
G01*
X66100000Y81645000D02*
X66100000Y82895000D01*
X66100000Y82895000D02*
X45660000Y82895000D01*
X45660000Y82895000D02*
X45660000Y78395000D01*
X45660000Y78395000D02*
X66100000Y78395000D01*
X66100000Y78395000D02*
X66100000Y79645000D01*
X66100000Y79645000D02*
G75*
G02*
X66100000Y81645000I0J1000000D01*
G01*
X28000000Y63865000D02*
X28000000Y65115000D01*
X28000000Y65115000D02*
X7560000Y65115000D01*
X7560000Y65115000D02*
X7560000Y60615000D01*
X7560000Y60615000D02*
X28000000Y60615000D01*
X28000000Y60615000D02*
X28000000Y61865000D01*
X28000000Y61865000D02*
G75*
G02*
X28000000Y63865000I0J1000000D01*
G01*
X66100000Y63155000D02*
X66100000Y64405000D01*
X45660000Y63155000D02*
X66100000Y63155000D01*
X45660000Y67655000D02*
X45660000Y63155000D01*
X66100000Y67655000D02*
X45660000Y67655000D01*
X66100000Y66405000D02*
X66100000Y67655000D01*
X66100000Y64405000D02*
G75*
G02*
X66100000Y66405000I0J1000000D01*
G01*
X48320000Y45450000D02*
X48320000Y50510000D01*
X48320000Y50510000D02*
X7560000Y50510000D01*
X7560000Y50510000D02*
X7560000Y38390000D01*
X7560000Y38390000D02*
X48320000Y38390000D01*
X48320000Y38390000D02*
X48320000Y43450000D01*
X48320000Y43450000D02*
G75*
G02*
X48320000Y45450000I0J1000000D01*
G01*
X80070000Y49260000D02*
X80070000Y50510000D01*
X80070000Y50510000D02*
X54550000Y50510000D01*
X54550000Y50510000D02*
X54550000Y46010000D01*
X54550000Y46010000D02*
X80070000Y46010000D01*
X80070000Y46010000D02*
X80070000Y47260000D01*
X80070000Y47260000D02*
G75*
G02*
X80070000Y49260000I0J1000000D01*
G01*
X65745000Y25225000D02*
X71445000Y25225000D01*
X65745000Y19225000D02*
X65745000Y25225000D01*
X65745000Y19225000D02*
X71445000Y19225000D01*
X94640671Y22270281D02*
G75*
G02*
X72195000Y18725000I-11495671J-45281D01*
G01*
X72196754Y18698616D02*
G75*
G03*
X71445000Y19225000I-751754J-273616D01*
G01*
X94640671Y22179719D02*
G75*
G03*
X72195000Y25725000I-11495671J45281D01*
G01*
X72196754Y25751384D02*
G75*
G02*
X71445000Y25225000I-751754J273616D01*
G01*
X52735000Y115130000D02*
X53440000Y115130000D01*
X50700000Y115130000D02*
X51405000Y115130000D01*
X52735000Y110890000D02*
X53440000Y110890000D01*
X50700000Y110890000D02*
X51405000Y110890000D01*
X53440000Y110890000D02*
X53440000Y115130000D01*
X50700000Y110890000D02*
X50700000Y115130000D01*
X25935000Y110890000D02*
X25935000Y115130000D01*
X28675000Y110890000D02*
X28675000Y115130000D01*
X25935000Y110890000D02*
X26640000Y110890000D01*
X27970000Y110890000D02*
X28675000Y110890000D01*
X25935000Y115130000D02*
X26640000Y115130000D01*
X27970000Y115130000D02*
X28675000Y115130000D01*
X105440000Y98620000D02*
X106145000Y98620000D01*
X103405000Y98620000D02*
X104110000Y98620000D01*
X105440000Y94380000D02*
X106145000Y94380000D01*
X103405000Y94380000D02*
X104110000Y94380000D01*
X106145000Y94380000D02*
X106145000Y98620000D01*
X103405000Y94380000D02*
X103405000Y98620000D01*
X108615000Y82745000D02*
X109320000Y82745000D01*
X106580000Y82745000D02*
X107285000Y82745000D01*
X108615000Y78505000D02*
X109320000Y78505000D01*
X106580000Y78505000D02*
X107285000Y78505000D01*
X109320000Y78505000D02*
X109320000Y82745000D01*
X106580000Y78505000D02*
X106580000Y82745000D01*
X106580000Y63265000D02*
X106580000Y67505000D01*
X109320000Y63265000D02*
X109320000Y67505000D01*
X106580000Y63265000D02*
X107285000Y63265000D01*
X108615000Y63265000D02*
X109320000Y63265000D01*
X106580000Y67505000D02*
X107285000Y67505000D01*
X108615000Y67505000D02*
X109320000Y67505000D01*
X104040000Y46120000D02*
X104040000Y50360000D01*
X106780000Y46120000D02*
X106780000Y50360000D01*
X104040000Y46120000D02*
X104745000Y46120000D01*
X106075000Y46120000D02*
X106780000Y46120000D01*
X104040000Y50360000D02*
X104745000Y50360000D01*
X106075000Y50360000D02*
X106780000Y50360000D01*
X84776000Y109160000D02*
X87436000Y109160000D01*
X84776000Y114300000D02*
X84776000Y109160000D01*
X87436000Y114300000D02*
X87436000Y109160000D01*
X84776000Y114300000D02*
X87436000Y114300000D01*
X84776000Y115570000D02*
X84776000Y116900000D01*
X84776000Y116900000D02*
X86106000Y116900000D01*
X88586000Y116900000D02*
X89916000Y116900000D01*
X88586000Y115570000D02*
X88586000Y116900000D01*
X88586000Y114300000D02*
X91246000Y114300000D01*
X91246000Y114300000D02*
X91246000Y109160000D01*
X88586000Y114300000D02*
X88586000Y109160000D01*
X88586000Y109160000D02*
X91246000Y109160000D01*
X50225000Y114030000D02*
X50225000Y115280000D01*
X50225000Y115280000D02*
X32325000Y115280000D01*
X32325000Y115280000D02*
X32325000Y110780000D01*
X32325000Y110780000D02*
X50225000Y110780000D01*
X50225000Y110780000D02*
X50225000Y112030000D01*
X50225000Y112030000D02*
G75*
G02*
X50225000Y114030000I0J1000000D01*
G01*
X102930000Y97520000D02*
X102930000Y98770000D01*
X102930000Y98770000D02*
X85030000Y98770000D01*
X85030000Y98770000D02*
X85030000Y94270000D01*
X85030000Y94270000D02*
X102930000Y94270000D01*
X102930000Y94270000D02*
X102930000Y95520000D01*
X102930000Y95520000D02*
G75*
G02*
X102930000Y97520000I0J1000000D01*
G01*
X106105000Y78395000D02*
X106105000Y79645000D01*
X85665000Y78395000D02*
X106105000Y78395000D01*
X85665000Y82895000D02*
X85665000Y78395000D01*
X106105000Y82895000D02*
X85665000Y82895000D01*
X106105000Y81645000D02*
X106105000Y82895000D01*
X106105000Y79645000D02*
G75*
G02*
X106105000Y81645000I0J1000000D01*
G01*
X106105000Y66405000D02*
X106105000Y67655000D01*
X106105000Y67655000D02*
X85665000Y67655000D01*
X85665000Y67655000D02*
X85665000Y63155000D01*
X85665000Y63155000D02*
X106105000Y63155000D01*
X106105000Y63155000D02*
X106105000Y64405000D01*
X106105000Y64405000D02*
G75*
G02*
X106105000Y66405000I0J1000000D01*
G01*
X103565000Y46010000D02*
X103565000Y47260000D01*
X85665000Y46010000D02*
X103565000Y46010000D01*
X85665000Y50510000D02*
X85665000Y46010000D01*
X103565000Y50510000D02*
X85665000Y50510000D01*
X103565000Y49260000D02*
X103565000Y50510000D01*
X103565000Y47260000D02*
G75*
G02*
X103565000Y49260000I0J1000000D01*
G01*
X74990000Y110780000D02*
X74990000Y112030000D01*
X57090000Y110780000D02*
X74990000Y110780000D01*
X57090000Y115280000D02*
X57090000Y110780000D01*
X74990000Y115280000D02*
X57090000Y115280000D01*
X74990000Y114030000D02*
X74990000Y115280000D01*
X74990000Y112030000D02*
G75*
G02*
X74990000Y114030000I0J1000000D01*
G01*
X22130000Y31215000D02*
X22130000Y30885000D01*
X28670000Y31215000D02*
X22130000Y31215000D01*
X28670000Y30885000D02*
X28670000Y31215000D01*
X22130000Y28475000D02*
X22130000Y28805000D01*
X28670000Y28475000D02*
X22130000Y28475000D01*
X28670000Y28805000D02*
X28670000Y28475000D01*
D10*
X76668333Y115847858D02*
X76620714Y115800239D01*
X76477857Y115752620D01*
X76382619Y115752620D01*
X76239761Y115800239D01*
X76144523Y115895477D01*
X76096904Y115990715D01*
X76049285Y116181191D01*
X76049285Y116324048D01*
X76096904Y116514524D01*
X76144523Y116609762D01*
X76239761Y116705000D01*
X76382619Y116752620D01*
X76477857Y116752620D01*
X76620714Y116705000D01*
X76668333Y116657381D01*
X77620714Y115752620D02*
X77049285Y115752620D01*
X77335000Y115752620D02*
X77335000Y116752620D01*
X77239761Y116609762D01*
X77144523Y116514524D01*
X77049285Y116466905D01*
X34833333Y96142858D02*
X34785714Y96095239D01*
X34642857Y96047620D01*
X34547619Y96047620D01*
X34404761Y96095239D01*
X34309523Y96190477D01*
X34261904Y96285715D01*
X34214285Y96476191D01*
X34214285Y96619048D01*
X34261904Y96809524D01*
X34309523Y96904762D01*
X34404761Y97000000D01*
X34547619Y97047620D01*
X34642857Y97047620D01*
X34785714Y97000000D01*
X34833333Y96952381D01*
X35690476Y96714286D02*
X35690476Y96047620D01*
X35452380Y97095239D02*
X35214285Y96380953D01*
X35833333Y96380953D01*
X67778333Y99337858D02*
X67730714Y99290239D01*
X67587857Y99242620D01*
X67492619Y99242620D01*
X67349761Y99290239D01*
X67254523Y99385477D01*
X67206904Y99480715D01*
X67159285Y99671191D01*
X67159285Y99814048D01*
X67206904Y100004524D01*
X67254523Y100099762D01*
X67349761Y100195000D01*
X67492619Y100242620D01*
X67587857Y100242620D01*
X67730714Y100195000D01*
X67778333Y100147381D01*
X68635476Y100242620D02*
X68445000Y100242620D01*
X68349761Y100195000D01*
X68302142Y100147381D01*
X68206904Y100004524D01*
X68159285Y99814048D01*
X68159285Y99433096D01*
X68206904Y99337858D01*
X68254523Y99290239D01*
X68349761Y99242620D01*
X68540238Y99242620D01*
X68635476Y99290239D01*
X68683095Y99337858D01*
X68730714Y99433096D01*
X68730714Y99671191D01*
X68683095Y99766429D01*
X68635476Y99814048D01*
X68540238Y99861667D01*
X68349761Y99861667D01*
X68254523Y99814048D01*
X68206904Y99766429D01*
X68159285Y99671191D01*
X29678333Y80287858D02*
X29630714Y80240239D01*
X29487857Y80192620D01*
X29392619Y80192620D01*
X29249761Y80240239D01*
X29154523Y80335477D01*
X29106904Y80430715D01*
X29059285Y80621191D01*
X29059285Y80764048D01*
X29106904Y80954524D01*
X29154523Y81049762D01*
X29249761Y81145000D01*
X29392619Y81192620D01*
X29487857Y81192620D01*
X29630714Y81145000D01*
X29678333Y81097381D01*
X30011666Y81192620D02*
X30678333Y81192620D01*
X30249761Y80192620D01*
X67778333Y83462858D02*
X67730714Y83415239D01*
X67587857Y83367620D01*
X67492619Y83367620D01*
X67349761Y83415239D01*
X67254523Y83510477D01*
X67206904Y83605715D01*
X67159285Y83796191D01*
X67159285Y83939048D01*
X67206904Y84129524D01*
X67254523Y84224762D01*
X67349761Y84320000D01*
X67492619Y84367620D01*
X67587857Y84367620D01*
X67730714Y84320000D01*
X67778333Y84272381D01*
X68349761Y83939048D02*
X68254523Y83986667D01*
X68206904Y84034286D01*
X68159285Y84129524D01*
X68159285Y84177143D01*
X68206904Y84272381D01*
X68254523Y84320000D01*
X68349761Y84367620D01*
X68540238Y84367620D01*
X68635476Y84320000D01*
X68683095Y84272381D01*
X68730714Y84177143D01*
X68730714Y84129524D01*
X68683095Y84034286D01*
X68635476Y83986667D01*
X68540238Y83939048D01*
X68349761Y83939048D01*
X68254523Y83891429D01*
X68206904Y83843810D01*
X68159285Y83748572D01*
X68159285Y83558096D01*
X68206904Y83462858D01*
X68254523Y83415239D01*
X68349761Y83367620D01*
X68540238Y83367620D01*
X68635476Y83415239D01*
X68683095Y83462858D01*
X68730714Y83558096D01*
X68730714Y83748572D01*
X68683095Y83843810D01*
X68635476Y83891429D01*
X68540238Y83939048D01*
X29678333Y65682858D02*
X29630714Y65635239D01*
X29487857Y65587620D01*
X29392619Y65587620D01*
X29249761Y65635239D01*
X29154523Y65730477D01*
X29106904Y65825715D01*
X29059285Y66016191D01*
X29059285Y66159048D01*
X29106904Y66349524D01*
X29154523Y66444762D01*
X29249761Y66540000D01*
X29392619Y66587620D01*
X29487857Y66587620D01*
X29630714Y66540000D01*
X29678333Y66492381D01*
X30154523Y65587620D02*
X30345000Y65587620D01*
X30440238Y65635239D01*
X30487857Y65682858D01*
X30583095Y65825715D01*
X30630714Y66016191D01*
X30630714Y66397143D01*
X30583095Y66492381D01*
X30535476Y66540000D01*
X30440238Y66587620D01*
X30249761Y66587620D01*
X30154523Y66540000D01*
X30106904Y66492381D01*
X30059285Y66397143D01*
X30059285Y66159048D01*
X30106904Y66063810D01*
X30154523Y66016191D01*
X30249761Y65968572D01*
X30440238Y65968572D01*
X30535476Y66016191D01*
X30583095Y66063810D01*
X30630714Y66159048D01*
X67302142Y68222858D02*
X67254523Y68175239D01*
X67111666Y68127620D01*
X67016428Y68127620D01*
X66873571Y68175239D01*
X66778333Y68270477D01*
X66730714Y68365715D01*
X66683095Y68556191D01*
X66683095Y68699048D01*
X66730714Y68889524D01*
X66778333Y68984762D01*
X66873571Y69080000D01*
X67016428Y69127620D01*
X67111666Y69127620D01*
X67254523Y69080000D01*
X67302142Y69032381D01*
X68254523Y68127620D02*
X67683095Y68127620D01*
X67968809Y68127620D02*
X67968809Y69127620D01*
X67873571Y68984762D01*
X67778333Y68889524D01*
X67683095Y68841905D01*
X68873571Y69127620D02*
X68968809Y69127620D01*
X69064047Y69080000D01*
X69111666Y69032381D01*
X69159285Y68937143D01*
X69206904Y68746667D01*
X69206904Y68508572D01*
X69159285Y68318096D01*
X69111666Y68222858D01*
X69064047Y68175239D01*
X68968809Y68127620D01*
X68873571Y68127620D01*
X68778333Y68175239D01*
X68730714Y68222858D01*
X68683095Y68318096D01*
X68635476Y68508572D01*
X68635476Y68746667D01*
X68683095Y68937143D01*
X68730714Y69032381D01*
X68778333Y69080000D01*
X68873571Y69127620D01*
X50157142Y47267858D02*
X50109523Y47220239D01*
X49966666Y47172620D01*
X49871428Y47172620D01*
X49728571Y47220239D01*
X49633333Y47315477D01*
X49585714Y47410715D01*
X49538095Y47601191D01*
X49538095Y47744048D01*
X49585714Y47934524D01*
X49633333Y48029762D01*
X49728571Y48125000D01*
X49871428Y48172620D01*
X49966666Y48172620D01*
X50109523Y48125000D01*
X50157142Y48077381D01*
X51109523Y47172620D02*
X50538095Y47172620D01*
X50823809Y47172620D02*
X50823809Y48172620D01*
X50728571Y48029762D01*
X50633333Y47934524D01*
X50538095Y47886905D01*
X51442857Y48172620D02*
X52061904Y48172620D01*
X51728571Y47791667D01*
X51871428Y47791667D01*
X51966666Y47744048D01*
X52014285Y47696429D01*
X52061904Y47601191D01*
X52061904Y47363096D01*
X52014285Y47267858D01*
X51966666Y47220239D01*
X51871428Y47172620D01*
X51585714Y47172620D01*
X51490476Y47220239D01*
X51442857Y47267858D01*
X81272142Y51077858D02*
X81224523Y51030239D01*
X81081666Y50982620D01*
X80986428Y50982620D01*
X80843571Y51030239D01*
X80748333Y51125477D01*
X80700714Y51220715D01*
X80653095Y51411191D01*
X80653095Y51554048D01*
X80700714Y51744524D01*
X80748333Y51839762D01*
X80843571Y51935000D01*
X80986428Y51982620D01*
X81081666Y51982620D01*
X81224523Y51935000D01*
X81272142Y51887381D01*
X82224523Y50982620D02*
X81653095Y50982620D01*
X81938809Y50982620D02*
X81938809Y51982620D01*
X81843571Y51839762D01*
X81748333Y51744524D01*
X81653095Y51696905D01*
X83129285Y51982620D02*
X82653095Y51982620D01*
X82605476Y51506429D01*
X82653095Y51554048D01*
X82748333Y51601667D01*
X82986428Y51601667D01*
X83081666Y51554048D01*
X83129285Y51506429D01*
X83176904Y51411191D01*
X83176904Y51173096D01*
X83129285Y51077858D01*
X83081666Y51030239D01*
X82986428Y50982620D01*
X82748333Y50982620D01*
X82653095Y51030239D01*
X82605476Y51077858D01*
X9517142Y106642858D02*
X9469523Y106595239D01*
X9326666Y106547620D01*
X9231428Y106547620D01*
X9088571Y106595239D01*
X8993333Y106690477D01*
X8945714Y106785715D01*
X8898095Y106976191D01*
X8898095Y107119048D01*
X8945714Y107309524D01*
X8993333Y107404762D01*
X9088571Y107500000D01*
X9231428Y107547620D01*
X9326666Y107547620D01*
X9469523Y107500000D01*
X9517142Y107452381D01*
X10469523Y106547620D02*
X9898095Y106547620D01*
X10183809Y106547620D02*
X10183809Y107547620D01*
X10088571Y107404762D01*
X9993333Y107309524D01*
X9898095Y107261905D01*
X11326666Y107547620D02*
X11136190Y107547620D01*
X11040952Y107500000D01*
X10993333Y107452381D01*
X10898095Y107309524D01*
X10850476Y107119048D01*
X10850476Y106738096D01*
X10898095Y106642858D01*
X10945714Y106595239D01*
X11040952Y106547620D01*
X11231428Y106547620D01*
X11326666Y106595239D01*
X11374285Y106642858D01*
X11421904Y106738096D01*
X11421904Y106976191D01*
X11374285Y107071429D01*
X11326666Y107119048D01*
X11231428Y107166667D01*
X11040952Y107166667D01*
X10945714Y107119048D01*
X10898095Y107071429D01*
X10850476Y106976191D01*
X26027142Y126642858D02*
X25979523Y126595239D01*
X25836666Y126547620D01*
X25741428Y126547620D01*
X25598571Y126595239D01*
X25503333Y126690477D01*
X25455714Y126785715D01*
X25408095Y126976191D01*
X25408095Y127119048D01*
X25455714Y127309524D01*
X25503333Y127404762D01*
X25598571Y127500000D01*
X25741428Y127547620D01*
X25836666Y127547620D01*
X25979523Y127500000D01*
X26027142Y127452381D01*
X26979523Y126547620D02*
X26408095Y126547620D01*
X26693809Y126547620D02*
X26693809Y127547620D01*
X26598571Y127404762D01*
X26503333Y127309524D01*
X26408095Y127261905D01*
X27312857Y127547620D02*
X27979523Y127547620D01*
X27550952Y126547620D01*
X51331904Y24242620D02*
X51331904Y25242620D01*
X51570000Y25242620D01*
X51712857Y25195000D01*
X51808095Y25099762D01*
X51855714Y25004524D01*
X51903333Y24814048D01*
X51903333Y24671191D01*
X51855714Y24480715D01*
X51808095Y24385477D01*
X51712857Y24290239D01*
X51570000Y24242620D01*
X51331904Y24242620D01*
X52855714Y24242620D02*
X52284285Y24242620D01*
X52570000Y24242620D02*
X52570000Y25242620D01*
X52474761Y25099762D01*
X52379523Y25004524D01*
X52284285Y24956905D01*
X46728095Y23872620D02*
X46728095Y24872620D01*
X47299523Y23872620D02*
X46870952Y24444048D01*
X47299523Y24872620D02*
X46728095Y24301191D01*
X51331904Y31862620D02*
X51331904Y32862620D01*
X51570000Y32862620D01*
X51712857Y32815000D01*
X51808095Y32719762D01*
X51855714Y32624524D01*
X51903333Y32434048D01*
X51903333Y32291191D01*
X51855714Y32100715D01*
X51808095Y32005477D01*
X51712857Y31910239D01*
X51570000Y31862620D01*
X51331904Y31862620D01*
X52284285Y32767381D02*
X52331904Y32815000D01*
X52427142Y32862620D01*
X52665238Y32862620D01*
X52760476Y32815000D01*
X52808095Y32767381D01*
X52855714Y32672143D01*
X52855714Y32576905D01*
X52808095Y32434048D01*
X52236666Y31862620D01*
X52855714Y31862620D01*
X46728095Y31492620D02*
X46728095Y32492620D01*
X47299523Y31492620D02*
X46870952Y32064048D01*
X47299523Y32492620D02*
X46728095Y31921191D01*
X20333333Y106547620D02*
X20000000Y107023810D01*
X19761904Y106547620D02*
X19761904Y107547620D01*
X20142857Y107547620D01*
X20238095Y107500000D01*
X20285714Y107452381D01*
X20333333Y107357143D01*
X20333333Y107214286D01*
X20285714Y107119048D01*
X20238095Y107071429D01*
X20142857Y107023810D01*
X19761904Y107023810D01*
X21285714Y106547620D02*
X20714285Y106547620D01*
X21000000Y106547620D02*
X21000000Y107547620D01*
X20904761Y107404762D01*
X20809523Y107309524D01*
X20714285Y107261905D01*
X12573095Y119927620D02*
X12573095Y119118096D01*
X12620714Y119022858D01*
X12668333Y118975239D01*
X12763571Y118927620D01*
X12954047Y118927620D01*
X13049285Y118975239D01*
X13096904Y119022858D01*
X13144523Y119118096D01*
X13144523Y119927620D01*
X13525476Y119927620D02*
X14144523Y119927620D01*
X13811190Y119546667D01*
X13954047Y119546667D01*
X14049285Y119499048D01*
X14096904Y119451429D01*
X14144523Y119356191D01*
X14144523Y119118096D01*
X14096904Y119022858D01*
X14049285Y118975239D01*
X13954047Y118927620D01*
X13668333Y118927620D01*
X13573095Y118975239D01*
X13525476Y119022858D01*
X15113095Y100242620D02*
X15113095Y99433096D01*
X15160714Y99337858D01*
X15208333Y99290239D01*
X15303571Y99242620D01*
X15494047Y99242620D01*
X15589285Y99290239D01*
X15636904Y99337858D01*
X15684523Y99433096D01*
X15684523Y100242620D01*
X16589285Y99909286D02*
X16589285Y99242620D01*
X16351190Y100290239D02*
X16113095Y99575953D01*
X16732142Y99575953D01*
X51308095Y103417620D02*
X51308095Y102608096D01*
X51355714Y102512858D01*
X51403333Y102465239D01*
X51498571Y102417620D01*
X51689047Y102417620D01*
X51784285Y102465239D01*
X51831904Y102512858D01*
X51879523Y102608096D01*
X51879523Y103417620D01*
X52784285Y103417620D02*
X52593809Y103417620D01*
X52498571Y103370000D01*
X52450952Y103322381D01*
X52355714Y103179524D01*
X52308095Y102989048D01*
X52308095Y102608096D01*
X52355714Y102512858D01*
X52403333Y102465239D01*
X52498571Y102417620D01*
X52689047Y102417620D01*
X52784285Y102465239D01*
X52831904Y102512858D01*
X52879523Y102608096D01*
X52879523Y102846191D01*
X52831904Y102941429D01*
X52784285Y102989048D01*
X52689047Y103036667D01*
X52498571Y103036667D01*
X52403333Y102989048D01*
X52355714Y102941429D01*
X52308095Y102846191D01*
X13208095Y84367620D02*
X13208095Y83558096D01*
X13255714Y83462858D01*
X13303333Y83415239D01*
X13398571Y83367620D01*
X13589047Y83367620D01*
X13684285Y83415239D01*
X13731904Y83462858D01*
X13779523Y83558096D01*
X13779523Y84367620D01*
X14160476Y84367620D02*
X14827142Y84367620D01*
X14398571Y83367620D01*
X50673095Y87542620D02*
X50673095Y86733096D01*
X50720714Y86637858D01*
X50768333Y86590239D01*
X50863571Y86542620D01*
X51054047Y86542620D01*
X51149285Y86590239D01*
X51196904Y86637858D01*
X51244523Y86733096D01*
X51244523Y87542620D01*
X51863571Y87114048D02*
X51768333Y87161667D01*
X51720714Y87209286D01*
X51673095Y87304524D01*
X51673095Y87352143D01*
X51720714Y87447381D01*
X51768333Y87495000D01*
X51863571Y87542620D01*
X52054047Y87542620D01*
X52149285Y87495000D01*
X52196904Y87447381D01*
X52244523Y87352143D01*
X52244523Y87304524D01*
X52196904Y87209286D01*
X52149285Y87161667D01*
X52054047Y87114048D01*
X51863571Y87114048D01*
X51768333Y87066429D01*
X51720714Y87018810D01*
X51673095Y86923572D01*
X51673095Y86733096D01*
X51720714Y86637858D01*
X51768333Y86590239D01*
X51863571Y86542620D01*
X52054047Y86542620D01*
X52149285Y86590239D01*
X52196904Y86637858D01*
X52244523Y86733096D01*
X52244523Y86923572D01*
X52196904Y87018810D01*
X52149285Y87066429D01*
X52054047Y87114048D01*
X13208095Y69762620D02*
X13208095Y68953096D01*
X13255714Y68857858D01*
X13303333Y68810239D01*
X13398571Y68762620D01*
X13589047Y68762620D01*
X13684285Y68810239D01*
X13731904Y68857858D01*
X13779523Y68953096D01*
X13779523Y69762620D01*
X14303333Y68762620D02*
X14493809Y68762620D01*
X14589047Y68810239D01*
X14636666Y68857858D01*
X14731904Y69000715D01*
X14779523Y69191191D01*
X14779523Y69572143D01*
X14731904Y69667381D01*
X14684285Y69715000D01*
X14589047Y69762620D01*
X14398571Y69762620D01*
X14303333Y69715000D01*
X14255714Y69667381D01*
X14208095Y69572143D01*
X14208095Y69334048D01*
X14255714Y69238810D01*
X14303333Y69191191D01*
X14398571Y69143572D01*
X14589047Y69143572D01*
X14684285Y69191191D01*
X14731904Y69238810D01*
X14779523Y69334048D01*
X50831904Y72302620D02*
X50831904Y71493096D01*
X50879523Y71397858D01*
X50927142Y71350239D01*
X51022380Y71302620D01*
X51212857Y71302620D01*
X51308095Y71350239D01*
X51355714Y71397858D01*
X51403333Y71493096D01*
X51403333Y72302620D01*
X52403333Y71302620D02*
X51831904Y71302620D01*
X52117619Y71302620D02*
X52117619Y72302620D01*
X52022380Y72159762D01*
X51927142Y72064524D01*
X51831904Y72016905D01*
X53022380Y72302620D02*
X53117619Y72302620D01*
X53212857Y72255000D01*
X53260476Y72207381D01*
X53308095Y72112143D01*
X53355714Y71921667D01*
X53355714Y71683572D01*
X53308095Y71493096D01*
X53260476Y71397858D01*
X53212857Y71350239D01*
X53117619Y71302620D01*
X53022380Y71302620D01*
X52927142Y71350239D01*
X52879523Y71397858D01*
X52831904Y71493096D01*
X52784285Y71683572D01*
X52784285Y71921667D01*
X52831904Y72112143D01*
X52879523Y72207381D01*
X52927142Y72255000D01*
X53022380Y72302620D01*
X16541904Y55157620D02*
X16541904Y54348096D01*
X16589523Y54252858D01*
X16637142Y54205239D01*
X16732380Y54157620D01*
X16922857Y54157620D01*
X17018095Y54205239D01*
X17065714Y54252858D01*
X17113333Y54348096D01*
X17113333Y55157620D01*
X18113333Y54157620D02*
X17541904Y54157620D01*
X17827619Y54157620D02*
X17827619Y55157620D01*
X17732380Y55014762D01*
X17637142Y54919524D01*
X17541904Y54871905D01*
X18446666Y55157620D02*
X19065714Y55157620D01*
X18732380Y54776667D01*
X18875238Y54776667D01*
X18970476Y54729048D01*
X19018095Y54681429D01*
X19065714Y54586191D01*
X19065714Y54348096D01*
X19018095Y54252858D01*
X18970476Y54205239D01*
X18875238Y54157620D01*
X18589523Y54157620D01*
X18494285Y54205239D01*
X18446666Y54252858D01*
X60991904Y55157620D02*
X60991904Y54348096D01*
X61039523Y54252858D01*
X61087142Y54205239D01*
X61182380Y54157620D01*
X61372857Y54157620D01*
X61468095Y54205239D01*
X61515714Y54252858D01*
X61563333Y54348096D01*
X61563333Y55157620D01*
X62563333Y54157620D02*
X61991904Y54157620D01*
X62277619Y54157620D02*
X62277619Y55157620D01*
X62182380Y55014762D01*
X62087142Y54919524D01*
X61991904Y54871905D01*
X63468095Y55157620D02*
X62991904Y55157620D01*
X62944285Y54681429D01*
X62991904Y54729048D01*
X63087142Y54776667D01*
X63325238Y54776667D01*
X63420476Y54729048D01*
X63468095Y54681429D01*
X63515714Y54586191D01*
X63515714Y54348096D01*
X63468095Y54252858D01*
X63420476Y54205239D01*
X63325238Y54157620D01*
X63087142Y54157620D01*
X62991904Y54205239D01*
X62944285Y54252858D01*
X67159285Y26596429D02*
X67302142Y26548810D01*
X67349761Y26501191D01*
X67397380Y26405953D01*
X67397380Y26263096D01*
X67349761Y26167858D01*
X67302142Y26120239D01*
X67206904Y26072620D01*
X66825952Y26072620D01*
X66825952Y27072620D01*
X67159285Y27072620D01*
X67254523Y27025000D01*
X67302142Y26977381D01*
X67349761Y26882143D01*
X67349761Y26786905D01*
X67302142Y26691667D01*
X67254523Y26644048D01*
X67159285Y26596429D01*
X66825952Y26596429D01*
X67683095Y27072620D02*
X68254523Y27072620D01*
X67968809Y26072620D02*
X67968809Y27072620D01*
X69111666Y26072620D02*
X68540238Y26072620D01*
X68825952Y26072620D02*
X68825952Y27072620D01*
X68730714Y26929762D01*
X68635476Y26834524D01*
X68540238Y26786905D01*
X70123571Y22117858D02*
X71266428Y22117858D01*
X70695000Y21546429D02*
X70695000Y22689286D01*
X51903333Y116142858D02*
X51855714Y116095239D01*
X51712857Y116047620D01*
X51617619Y116047620D01*
X51474761Y116095239D01*
X51379523Y116190477D01*
X51331904Y116285715D01*
X51284285Y116476191D01*
X51284285Y116619048D01*
X51331904Y116809524D01*
X51379523Y116904762D01*
X51474761Y117000000D01*
X51617619Y117047620D01*
X51712857Y117047620D01*
X51855714Y117000000D01*
X51903333Y116952381D01*
X52284285Y116952381D02*
X52331904Y117000000D01*
X52427142Y117047620D01*
X52665238Y117047620D01*
X52760476Y117000000D01*
X52808095Y116952381D01*
X52855714Y116857143D01*
X52855714Y116761905D01*
X52808095Y116619048D01*
X52236666Y116047620D01*
X52855714Y116047620D01*
X27138333Y115847858D02*
X27090714Y115800239D01*
X26947857Y115752620D01*
X26852619Y115752620D01*
X26709761Y115800239D01*
X26614523Y115895477D01*
X26566904Y115990715D01*
X26519285Y116181191D01*
X26519285Y116324048D01*
X26566904Y116514524D01*
X26614523Y116609762D01*
X26709761Y116705000D01*
X26852619Y116752620D01*
X26947857Y116752620D01*
X27090714Y116705000D01*
X27138333Y116657381D01*
X27471666Y116752620D02*
X28090714Y116752620D01*
X27757380Y116371667D01*
X27900238Y116371667D01*
X27995476Y116324048D01*
X28043095Y116276429D01*
X28090714Y116181191D01*
X28090714Y115943096D01*
X28043095Y115847858D01*
X27995476Y115800239D01*
X27900238Y115752620D01*
X27614523Y115752620D01*
X27519285Y115800239D01*
X27471666Y115847858D01*
X104608333Y99337858D02*
X104560714Y99290239D01*
X104417857Y99242620D01*
X104322619Y99242620D01*
X104179761Y99290239D01*
X104084523Y99385477D01*
X104036904Y99480715D01*
X103989285Y99671191D01*
X103989285Y99814048D01*
X104036904Y100004524D01*
X104084523Y100099762D01*
X104179761Y100195000D01*
X104322619Y100242620D01*
X104417857Y100242620D01*
X104560714Y100195000D01*
X104608333Y100147381D01*
X105513095Y100242620D02*
X105036904Y100242620D01*
X104989285Y99766429D01*
X105036904Y99814048D01*
X105132142Y99861667D01*
X105370238Y99861667D01*
X105465476Y99814048D01*
X105513095Y99766429D01*
X105560714Y99671191D01*
X105560714Y99433096D01*
X105513095Y99337858D01*
X105465476Y99290239D01*
X105370238Y99242620D01*
X105132142Y99242620D01*
X105036904Y99290239D01*
X104989285Y99337858D01*
X107307142Y83462858D02*
X107259523Y83415239D01*
X107116666Y83367620D01*
X107021428Y83367620D01*
X106878571Y83415239D01*
X106783333Y83510477D01*
X106735714Y83605715D01*
X106688095Y83796191D01*
X106688095Y83939048D01*
X106735714Y84129524D01*
X106783333Y84224762D01*
X106878571Y84320000D01*
X107021428Y84367620D01*
X107116666Y84367620D01*
X107259523Y84320000D01*
X107307142Y84272381D01*
X108259523Y83367620D02*
X107688095Y83367620D01*
X107973809Y83367620D02*
X107973809Y84367620D01*
X107878571Y84224762D01*
X107783333Y84129524D01*
X107688095Y84081905D01*
X109211904Y83367620D02*
X108640476Y83367620D01*
X108926190Y83367620D02*
X108926190Y84367620D01*
X108830952Y84224762D01*
X108735714Y84129524D01*
X108640476Y84081905D01*
X107307142Y68222858D02*
X107259523Y68175239D01*
X107116666Y68127620D01*
X107021428Y68127620D01*
X106878571Y68175239D01*
X106783333Y68270477D01*
X106735714Y68365715D01*
X106688095Y68556191D01*
X106688095Y68699048D01*
X106735714Y68889524D01*
X106783333Y68984762D01*
X106878571Y69080000D01*
X107021428Y69127620D01*
X107116666Y69127620D01*
X107259523Y69080000D01*
X107307142Y69032381D01*
X108259523Y68127620D02*
X107688095Y68127620D01*
X107973809Y68127620D02*
X107973809Y69127620D01*
X107878571Y68984762D01*
X107783333Y68889524D01*
X107688095Y68841905D01*
X108640476Y69032381D02*
X108688095Y69080000D01*
X108783333Y69127620D01*
X109021428Y69127620D01*
X109116666Y69080000D01*
X109164285Y69032381D01*
X109211904Y68937143D01*
X109211904Y68841905D01*
X109164285Y68699048D01*
X108592857Y68127620D01*
X109211904Y68127620D01*
X104767142Y51077858D02*
X104719523Y51030239D01*
X104576666Y50982620D01*
X104481428Y50982620D01*
X104338571Y51030239D01*
X104243333Y51125477D01*
X104195714Y51220715D01*
X104148095Y51411191D01*
X104148095Y51554048D01*
X104195714Y51744524D01*
X104243333Y51839762D01*
X104338571Y51935000D01*
X104481428Y51982620D01*
X104576666Y51982620D01*
X104719523Y51935000D01*
X104767142Y51887381D01*
X105719523Y50982620D02*
X105148095Y50982620D01*
X105433809Y50982620D02*
X105433809Y51982620D01*
X105338571Y51839762D01*
X105243333Y51744524D01*
X105148095Y51696905D01*
X106576666Y51649286D02*
X106576666Y50982620D01*
X106338571Y52030239D02*
X106100476Y51315953D01*
X106719523Y51315953D01*
X83058095Y114530239D02*
X83200952Y114482620D01*
X83439047Y114482620D01*
X83534285Y114530239D01*
X83581904Y114577858D01*
X83629523Y114673096D01*
X83629523Y114768334D01*
X83581904Y114863572D01*
X83534285Y114911191D01*
X83439047Y114958810D01*
X83248571Y115006429D01*
X83153333Y115054048D01*
X83105714Y115101667D01*
X83058095Y115196905D01*
X83058095Y115292143D01*
X83105714Y115387381D01*
X83153333Y115435000D01*
X83248571Y115482620D01*
X83486666Y115482620D01*
X83629523Y115435000D01*
X84581904Y114482620D02*
X84010476Y114482620D01*
X84296190Y114482620D02*
X84296190Y115482620D01*
X84200952Y115339762D01*
X84105714Y115244524D01*
X84010476Y115196905D01*
X87249095Y114530239D02*
X87391952Y114482620D01*
X87630047Y114482620D01*
X87725285Y114530239D01*
X87772904Y114577858D01*
X87820523Y114673096D01*
X87820523Y114768334D01*
X87772904Y114863572D01*
X87725285Y114911191D01*
X87630047Y114958810D01*
X87439571Y115006429D01*
X87344333Y115054048D01*
X87296714Y115101667D01*
X87249095Y115196905D01*
X87249095Y115292143D01*
X87296714Y115387381D01*
X87344333Y115435000D01*
X87439571Y115482620D01*
X87677666Y115482620D01*
X87820523Y115435000D01*
X88201476Y115387381D02*
X88249095Y115435000D01*
X88344333Y115482620D01*
X88582428Y115482620D01*
X88677666Y115435000D01*
X88725285Y115387381D01*
X88772904Y115292143D01*
X88772904Y115196905D01*
X88725285Y115054048D01*
X88153857Y114482620D01*
X88772904Y114482620D01*
X36068095Y119927620D02*
X36068095Y119118096D01*
X36115714Y119022858D01*
X36163333Y118975239D01*
X36258571Y118927620D01*
X36449047Y118927620D01*
X36544285Y118975239D01*
X36591904Y119022858D01*
X36639523Y119118096D01*
X36639523Y119927620D01*
X37068095Y119832381D02*
X37115714Y119880000D01*
X37210952Y119927620D01*
X37449047Y119927620D01*
X37544285Y119880000D01*
X37591904Y119832381D01*
X37639523Y119737143D01*
X37639523Y119641905D01*
X37591904Y119499048D01*
X37020476Y118927620D01*
X37639523Y118927620D01*
X88773095Y103417620D02*
X88773095Y102608096D01*
X88820714Y102512858D01*
X88868333Y102465239D01*
X88963571Y102417620D01*
X89154047Y102417620D01*
X89249285Y102465239D01*
X89296904Y102512858D01*
X89344523Y102608096D01*
X89344523Y103417620D01*
X90296904Y103417620D02*
X89820714Y103417620D01*
X89773095Y102941429D01*
X89820714Y102989048D01*
X89915952Y103036667D01*
X90154047Y103036667D01*
X90249285Y102989048D01*
X90296904Y102941429D01*
X90344523Y102846191D01*
X90344523Y102608096D01*
X90296904Y102512858D01*
X90249285Y102465239D01*
X90154047Y102417620D01*
X89915952Y102417620D01*
X89820714Y102465239D01*
X89773095Y102512858D01*
X91471904Y87542620D02*
X91471904Y86733096D01*
X91519523Y86637858D01*
X91567142Y86590239D01*
X91662380Y86542620D01*
X91852857Y86542620D01*
X91948095Y86590239D01*
X91995714Y86637858D01*
X92043333Y86733096D01*
X92043333Y87542620D01*
X93043333Y86542620D02*
X92471904Y86542620D01*
X92757619Y86542620D02*
X92757619Y87542620D01*
X92662380Y87399762D01*
X92567142Y87304524D01*
X92471904Y87256905D01*
X93995714Y86542620D02*
X93424285Y86542620D01*
X93710000Y86542620D02*
X93710000Y87542620D01*
X93614761Y87399762D01*
X93519523Y87304524D01*
X93424285Y87256905D01*
X90201904Y72302620D02*
X90201904Y71493096D01*
X90249523Y71397858D01*
X90297142Y71350239D01*
X90392380Y71302620D01*
X90582857Y71302620D01*
X90678095Y71350239D01*
X90725714Y71397858D01*
X90773333Y71493096D01*
X90773333Y72302620D01*
X91773333Y71302620D02*
X91201904Y71302620D01*
X91487619Y71302620D02*
X91487619Y72302620D01*
X91392380Y72159762D01*
X91297142Y72064524D01*
X91201904Y72016905D01*
X92154285Y72207381D02*
X92201904Y72255000D01*
X92297142Y72302620D01*
X92535238Y72302620D01*
X92630476Y72255000D01*
X92678095Y72207381D01*
X92725714Y72112143D01*
X92725714Y72016905D01*
X92678095Y71874048D01*
X92106666Y71302620D01*
X92725714Y71302620D01*
X89566904Y55157620D02*
X89566904Y54348096D01*
X89614523Y54252858D01*
X89662142Y54205239D01*
X89757380Y54157620D01*
X89947857Y54157620D01*
X90043095Y54205239D01*
X90090714Y54252858D01*
X90138333Y54348096D01*
X90138333Y55157620D01*
X91138333Y54157620D02*
X90566904Y54157620D01*
X90852619Y54157620D02*
X90852619Y55157620D01*
X90757380Y55014762D01*
X90662142Y54919524D01*
X90566904Y54871905D01*
X91995476Y54824286D02*
X91995476Y54157620D01*
X91757380Y55205239D02*
X91519285Y54490953D01*
X92138333Y54490953D01*
X75442380Y112268096D02*
X76251904Y112268096D01*
X76347142Y112315715D01*
X76394761Y112363334D01*
X76442380Y112458572D01*
X76442380Y112649048D01*
X76394761Y112744286D01*
X76347142Y112791905D01*
X76251904Y112839524D01*
X75442380Y112839524D01*
X76442380Y113839524D02*
X76442380Y113268096D01*
X76442380Y113553810D02*
X75442380Y113553810D01*
X75585238Y113458572D01*
X75680476Y113363334D01*
X75728095Y113268096D01*
X25233333Y31932620D02*
X24900000Y32408810D01*
X24661904Y31932620D02*
X24661904Y32932620D01*
X25042857Y32932620D01*
X25138095Y32885000D01*
X25185714Y32837381D01*
X25233333Y32742143D01*
X25233333Y32599286D01*
X25185714Y32504048D01*
X25138095Y32456429D01*
X25042857Y32408810D01*
X24661904Y32408810D01*
X25614285Y32837381D02*
X25661904Y32885000D01*
X25757142Y32932620D01*
X25995238Y32932620D01*
X26090476Y32885000D01*
X26138095Y32837381D01*
X26185714Y32742143D01*
X26185714Y32646905D01*
X26138095Y32504048D01*
X25566666Y31932620D01*
X26185714Y31932620D01*
M02*
