M48
; DRILL file {KiCad (5.1.9)-1} date 12/18/25 14:44:53
; FORMAT={-:-/ absolute / metric / decimal}
; #@! TF.CreationDate,2025-12-18T14:44:53+09:00
; #@! TF.GenerationSoftware,Kicad,Pcbnew,(5.1.9)-1
FMAT,2
METRIC
T1C0.300
T2C0.800
T3C1.000
T4C1.100
T5C1.500
T6C3.200
%
G90
G05
T1
X12.842Y122.317
X24.25Y126.019
X25.617Y126.622
X26.193Y128.761
X26.807Y54.559
X26.906Y87.367
X29.128Y86.735
X29.198Y86.033
X29.944Y85.965
X31.328Y40.387
X33.058Y59.315
X33.408Y57.814
X35.509Y58.764
X38.566Y58.021
X39.14Y55.558
X39.831Y79.298
X40.22Y75.335
X40.792Y86.929
X51.82Y56.812
X54.709Y56.472
X60.351Y131.161
X65.286Y130.795
X75.089Y92.307
X81.626Y132.822
T2
X8.89Y116.84
X8.89Y109.22
X8.89Y97.155
X8.89Y89.535
X8.89Y81.28
X8.89Y73.66
X8.89Y66.675
X8.89Y59.055
X8.89Y52.07
X8.89Y36.83
X8.93Y104.775
X11.43Y116.84
X11.43Y109.22
X11.43Y104.775
X11.43Y97.155
X11.43Y89.535
X11.43Y81.28
X11.43Y73.66
X11.43Y66.675
X11.43Y59.055
X11.43Y52.07
X11.43Y36.83
X13.97Y116.84
X13.97Y109.22
X13.97Y97.155
X13.97Y89.535
X13.97Y81.28
X13.97Y73.66
X13.97Y66.675
X13.97Y59.055
X13.97Y52.07
X13.97Y36.83
X16.51Y116.84
X16.51Y109.22
X16.51Y104.775
X16.51Y97.155
X16.51Y89.535
X16.51Y81.28
X16.51Y73.66
X16.51Y66.675
X16.51Y59.055
X16.51Y52.07
X16.51Y36.83
X19.05Y116.84
X19.05Y109.22
X19.05Y97.155
X19.05Y89.535
X19.05Y81.28
X19.05Y73.66
X19.05Y66.675
X19.05Y59.055
X19.05Y52.07
X19.05Y36.83
X21.59Y116.84
X21.59Y109.22
X21.59Y97.155
X21.59Y89.535
X21.59Y81.28
X21.59Y73.66
X21.59Y66.675
X21.59Y59.055
X21.59Y52.07
X21.59Y36.83
X21.59Y29.845
X24.13Y116.84
X24.13Y109.22
X24.13Y104.775
X24.13Y97.155
X24.13Y89.535
X24.13Y81.28
X24.13Y73.66
X24.13Y66.675
X24.13Y59.055
X24.13Y52.07
X24.13Y36.83
X26.67Y97.155
X26.67Y89.535
X26.67Y81.28
X26.67Y73.66
X26.67Y66.675
X26.67Y59.055
X26.67Y52.07
X26.67Y36.83
X26.987Y124.841
X26.987Y122.341
X27.305Y114.26
X27.305Y111.76
X29.21Y97.155
X29.21Y89.535
X29.21Y52.07
X29.21Y36.83
X29.21Y29.845
X29.845Y78.7
X29.845Y76.2
X29.845Y64.095
X29.845Y61.595
X31.75Y97.155
X31.75Y89.535
X31.75Y52.07
X31.75Y36.83
X33.655Y116.84
X33.655Y109.22
X34.29Y52.07
X34.29Y36.83
X34.925Y94.575
X34.925Y92.075
X36.195Y116.84
X36.195Y109.22
X36.83Y52.07
X36.83Y36.83
X38.735Y116.84
X38.735Y109.22
X39.37Y52.07
X39.37Y36.83
X41.275Y116.84
X41.275Y109.22
X41.91Y52.07
X41.91Y36.83
X43.815Y116.84
X43.815Y109.22
X44.45Y52.07
X44.45Y36.83
X46.355Y116.84
X46.355Y109.22
X46.99Y100.33
X46.99Y92.71
X46.99Y84.455
X46.99Y76.835
X46.99Y69.215
X46.99Y61.595
X46.99Y52.07
X46.99Y36.83
X48.895Y116.84
X48.895Y109.22
X49.53Y100.33
X49.53Y92.71
X49.53Y84.455
X49.53Y76.835
X49.53Y69.215
X49.53Y61.595
X50.8Y45.68
X50.8Y43.18
X52.07Y114.26
X52.07Y111.76
X52.07Y100.33
X52.07Y92.71
X52.07Y84.455
X52.07Y76.835
X52.07Y69.215
X52.07Y61.595
X54.61Y100.33
X54.61Y92.71
X54.61Y84.455
X54.61Y76.835
X54.61Y69.215
X54.61Y61.595
X55.88Y52.07
X55.88Y44.45
X57.15Y100.33
X57.15Y92.71
X57.15Y84.455
X57.15Y76.835
X57.15Y69.215
X57.15Y61.595
X58.42Y116.84
X58.42Y109.22
X58.42Y52.07
X58.42Y44.45
X59.69Y100.33
X59.69Y92.71
X59.69Y84.455
X59.69Y76.835
X59.69Y69.215
X59.69Y61.595
X60.96Y116.84
X60.96Y109.22
X60.96Y52.07
X60.96Y44.45
X62.23Y100.33
X62.23Y92.71
X62.23Y84.455
X62.23Y76.835
X62.23Y69.215
X62.23Y61.595
X63.5Y116.84
X63.5Y109.22
X63.5Y52.07
X63.5Y44.45
X64.77Y100.33
X64.77Y92.71
X64.77Y84.455
X64.77Y76.835
X64.77Y69.215
X64.77Y61.595
X66.04Y116.84
X66.04Y109.22
X66.04Y52.07
X66.04Y44.45
X67.945Y97.75
X67.945Y95.25
X67.945Y81.875
X67.945Y79.375
X67.945Y66.635
X67.945Y64.135
X68.58Y116.84
X68.58Y109.22
X68.58Y52.07
X68.58Y44.45
X71.12Y116.84
X71.12Y109.22
X71.12Y52.07
X71.12Y44.45
X73.66Y116.84
X73.66Y109.22
X73.66Y52.07
X73.66Y44.45
X76.2Y52.07
X76.2Y44.45
X76.835Y114.26
X76.835Y111.76
X78.74Y52.07
X78.74Y44.45
X81.915Y49.49
X81.915Y46.99
X86.36Y100.33
X86.36Y92.71
X86.995Y84.455
X86.995Y76.835
X86.995Y69.215
X86.995Y61.595
X86.995Y52.07
X86.995Y44.45
X88.9Y100.33
X88.9Y92.71
X89.535Y84.455
X89.535Y76.835
X89.535Y69.215
X89.535Y61.595
X89.535Y52.07
X89.535Y44.45
X91.44Y100.33
X91.44Y92.71
X92.075Y84.455
X92.075Y76.835
X92.075Y69.215
X92.075Y61.595
X92.075Y52.07
X92.075Y44.45
X93.98Y100.33
X93.98Y92.71
X94.615Y84.455
X94.615Y76.835
X94.615Y69.215
X94.615Y61.595
X94.615Y52.07
X94.615Y44.45
X96.52Y100.33
X96.52Y92.71
X97.155Y84.455
X97.155Y76.835
X97.155Y69.215
X97.155Y61.595
X97.155Y52.07
X97.155Y44.45
X99.06Y100.33
X99.06Y92.71
X99.695Y84.455
X99.695Y76.835
X99.695Y69.215
X99.695Y61.595
X99.695Y52.07
X99.695Y44.45
X101.6Y100.33
X101.6Y92.71
X102.235Y84.455
X102.235Y76.835
X102.235Y69.215
X102.235Y61.595
X102.235Y52.07
X102.235Y44.45
X104.775Y97.75
X104.775Y95.25
X104.775Y84.455
X104.775Y76.835
X104.775Y69.215
X104.775Y61.595
X105.41Y49.49
X105.41Y46.99
X107.95Y81.875
X107.95Y79.375
X107.95Y66.635
X107.95Y64.135
T3
X86.106Y115.57
X86.106Y113.03
X86.106Y110.49
X89.916Y115.57
X89.916Y113.03
X89.916Y110.49
T4
X46.99Y29.845
X46.99Y22.225
X57.15Y29.845
X57.15Y22.225
T5
X67.945Y22.225
X88.435Y22.225
T6
X4.0Y127.0
X4.0Y5.0
X111.0Y127.0
X111.0Y5.0
T0
M30
